<svg width="1075" height="191" viewBox="0 0 1075 191" fill="none" xmlns="http://www.w3.org/2000/svg">
<g clip-path="url(#clip0_175_114)">
<path d="M0 8C0 3.58173 3.58172 0 8 0H1067C1071.42 0 1075 3.58172 1075 8V183C1075 187.418 1071.42 191 1067 191H8.00002C3.58174 191 0 187.418 0 183V8Z" fill="#0b0541"/>
<g clip-path="url(#clip1_175_114)">
<path d="M163.179 -27.9778C163.179 -27.9778 235.982 -31.2563 274.568 41.943H156.988C156.988 41.943 134.781 41.2123 115.852 68.1654C110.393 79.4559 104.57 91.1099 111.121 114.049C101.657 98.029 60.8857 27.0129 60.8857 27.0129C60.8857 27.0129 89.6467 -25.0656 163.179 -27.9778Z" fill="#C6352E"/>
<path d="M270.778 157.873C270.778 157.873 237.205 222.582 154.545 219.401C164.742 201.743 213.349 117.538 213.349 117.538C213.349 117.538 225.084 98.6662 211.227 68.789C204.183 58.4117 197.01 47.5378 173.873 41.7401C192.48 41.5552 274.334 41.752 274.334 41.752C274.334 41.752 305.029 92.712 270.778 157.873Z" fill="#F4D911"/>
<path d="M56.0976 158.365C56.0976 158.365 16.8709 96.9144 60.9596 26.8938C71.1476 44.5587 119.728 128.779 119.728 128.779C119.728 128.779 130.194 148.381 162.988 151.317C175.489 150.405 188.492 149.626 205.079 132.482C195.934 148.692 154.831 219.515 154.831 219.515C154.831 219.515 95.3719 220.624 56.0976 158.365Z" fill="#81B354"/>
<path d="M154.545 220L171.084 150.954C171.084 150.954 189.269 149.535 204.507 132.804C195.048 149.451 154.545 220 154.545 220V220Z" fill="#7BAA50"/>
<path d="M107.787 96.7727C107.787 66.3354 132.448 41.6606 162.875 41.6606C193.299 41.6606 217.963 66.3348 217.963 96.7727C217.963 127.212 193.3 151.887 162.875 151.887C132.448 151.887 107.787 127.212 107.787 96.7727V96.7727Z" fill="white"/>
<path d="M117.006 96.7727C117.006 71.4307 137.541 50.8865 162.875 50.8865C188.204 50.8865 208.741 71.4307 208.741 96.7727C208.741 122.115 188.204 142.661 162.875 142.661C137.541 142.662 117.006 122.114 117.006 96.7727V96.7727Z" fill="url(#paint0_linear_175_114)"/>
<path d="M274.335 41.752L206.232 61.7281C206.232 61.7281 195.962 46.6506 173.873 41.74C193.012 41.6749 274.335 41.752 274.335 41.752Z" fill="#E7CE12"/>
<path d="M109.797 111.571C100.226 94.9892 60.8882 27.0111 60.8882 27.0111L111.338 76.9388C111.338 76.9388 106.153 87.608 108.119 102.847L109.797 111.571V111.571Z" fill="#BC332C"/>
</g>
<g clip-path="url(#clip2_175_114)">
<path d="M421.138 -4.92944C415.105 2.09305 412.287 17.9199 418.412 33.9447C424.527 49.9811 433.913 46.499 439.759 62.8498C447.481 84.4181 443.882 113.405 443.882 113.405C443.882 113.405 453.164 140.272 459.627 111.728C473.929 58.1333 421.138 8.27704 421.138 -4.92944V-4.92944Z" fill="url(#paint1_radial_175_114)"/>
<path d="M347.489 217.636C409.294 217.636 459.359 167.29 459.359 105.229C459.359 43.1682 409.294 -7.17712 347.547 -7.17712C285.8 -7.17712 235.734 43.1566 235.734 105.229C235.618 167.36 285.742 217.636 347.489 217.636Z" fill="url(#paint2_radial_175_114)"/>
<path d="M431.316 174.534C428.894 176.246 426.355 177.772 423.723 179.111C427.217 173.999 430.443 168.7 433.377 163.238C435.765 160.594 437.943 158.032 439.725 155.26C440.586 153.898 441.565 152.221 442.601 150.264C448.878 138.944 455.808 120.637 456.006 101.829V101.782C456.006 101.316 456.017 100.851 456.006 100.396C456.04 95.6797 455.551 90.9631 454.561 86.3513C454.608 86.7124 454.655 87.0734 454.701 87.4344C454.643 87.1549 454.596 86.8754 454.538 86.5959C454.631 87.1083 454.701 87.6091 454.783 88.0982C456.064 98.9872 455.155 109.62 450.579 117.446C450.509 117.562 450.427 117.667 450.357 117.784C452.733 105.882 453.525 92.7333 450.881 79.5734C450.881 79.5734 449.822 73.1798 441.961 53.7544C437.442 42.5743 429.406 33.409 422.302 26.7358C416.083 19.0379 410.423 13.8671 407.314 10.5946C400.804 3.74679 398.079 -1.38906 396.961 -4.74309C395.994 -5.23222 383.568 -17.2974 382.578 -17.7516C377.151 -9.34323 360.101 16.9416 368.219 41.5145C371.899 52.648 381.192 64.2008 390.916 70.6876C391.347 71.1767 396.704 76.9997 399.255 90.1363C401.887 103.704 400.501 114.29 395.086 129.954C388.715 143.696 372.388 157.275 357.097 158.661C324.418 161.631 312.446 142.252 312.446 142.252C324.127 146.922 337.031 145.944 344.892 141.099C352.811 136.208 357.597 132.574 361.476 134.006C365.307 135.427 368.358 131.293 365.622 127.007C361.301 120.357 353.428 116.922 345.614 118.296C337.695 119.589 330.439 125.854 320.051 119.787C319.376 119.402 318.723 118.972 318.106 118.506C317.419 118.052 320.33 119.193 319.655 118.68C317.64 117.586 314.065 115.187 313.133 114.336C312.982 114.197 314.706 114.884 314.542 114.744C304.841 106.755 306.053 101.351 306.355 97.9623C306.6 95.2488 308.358 91.7783 311.328 90.3692C312.761 91.1495 313.657 91.7551 313.657 91.7551C313.657 91.7551 313.04 90.5089 312.714 89.8451C312.831 89.7985 312.935 89.8102 313.052 89.7636C314.228 90.3343 316.825 91.8016 318.199 92.6984C319.981 93.9561 320.552 95.0741 320.552 95.0741C320.552 95.0741 321.018 94.8179 320.668 93.7232C320.54 93.269 320.004 91.8482 318.234 90.4041L318.339 90.4158C319.399 91.0214 320.4 91.7085 321.332 92.4887C321.833 90.6836 322.73 88.7853 322.532 85.408C322.415 83.0323 322.462 82.415 322.042 81.495C321.67 80.7031 322.252 80.4003 322.904 81.2155C322.788 80.575 322.601 79.9461 322.345 79.3521V79.2939C323.16 76.464 339.546 69.0921 340.734 68.2303C342.691 66.8444 344.333 65.0626 345.556 62.9896C346.464 61.5339 347.151 59.4958 347.314 56.4097C347.407 54.1853 346.371 52.6946 329.799 50.9594C325.268 50.5168 322.613 47.2327 321.099 44.2047C320.82 43.5526 320.54 42.9586 320.261 42.3647C319.993 41.6776 319.771 40.9672 319.62 40.2451C322.334 32.4656 326.876 25.8857 333.572 20.9129C333.933 20.5752 332.116 20.9944 332.477 20.6683C332.908 20.284 335.68 19.166 336.204 18.9098C336.844 18.607 333.467 17.1745 330.474 17.5239C327.435 17.8617 326.782 18.2343 325.164 18.9214C325.839 18.246 327.982 17.3725 327.481 17.3725C324.197 17.8733 320.133 19.7832 316.639 21.9377C316.627 21.5651 316.709 21.1924 316.848 20.843C315.23 21.5301 311.235 24.3135 310.082 26.6776C310.129 26.2234 310.152 25.7692 310.152 25.315C308.917 26.3515 307.799 27.5161 306.821 28.7972L306.763 28.8554C297.353 25.0588 289.061 24.8143 282.05 26.5146C280.513 24.9773 279.768 26.0953 276.274 18.4323C276.041 17.9665 276.46 18.8865 276.274 18.4323C275.703 16.9416 276.623 20.4121 276.274 18.4323C270.404 23.0674 262.683 28.308 258.98 32.0115C258.933 32.1628 263.3 30.777 258.98 32.0115C257.466 32.4424 257.571 33.3391 257.338 41.4679C257.279 42.0852 257.326 42.7723 257.279 43.3313C254.321 47.1046 252.307 50.2956 251.538 51.9493C247.707 58.5525 243.491 68.8359 239.403 85.1052C241.208 80.6914 243.374 76.4407 245.901 72.3995C242.501 81.0408 239.217 94.5967 238.564 115.478C239.391 111.169 240.439 106.906 241.72 102.714C240.917 120.043 243.91 137.337 250.478 153.385C252.831 159.138 256.72 167.861 263.335 177.434C284.135 199.317 313.471 212.943 345.963 212.943C379.923 212.943 410.388 198.106 431.316 174.534V174.534Z" fill="url(#paint3_linear_175_114)"/>
<path d="M406.219 190.431C447.271 185.679 465.439 143.381 442.1 142.543C421.021 141.879 386.77 192.679 406.219 190.431Z" fill="url(#paint4_radial_175_114)"/>
<path d="M445.058 133.913C473.3 117.481 465.939 81.9725 465.939 81.9725C465.939 81.9725 455.039 94.6317 447.632 114.814C440.318 134.798 428.079 143.836 445.058 133.913V133.913Z" fill="url(#paint5_radial_175_114)"/>
<path d="M355.396 211.44C394.771 224.006 428.614 192.981 407.756 182.628C388.785 173.288 336.716 205.501 355.396 211.44Z" fill="url(#paint6_radial_175_114)"/>
<path d="M447.993 148.983C448.948 147.632 450.241 143.3 451.394 141.367C458.346 130.14 458.393 121.196 458.393 120.998C462.597 100.024 462.213 91.4639 459.627 75.6255C457.543 62.8732 448.459 44.6007 440.586 35.8081C432.469 26.7475 438.187 29.694 430.326 23.0791C423.443 15.4393 416.759 7.88114 413.125 4.84156C386.84 -17.1343 387.434 -21.8043 387.935 -22.5962C387.854 -22.5031 387.725 -22.3633 387.562 -22.177C387.248 -23.4231 387.027 -24.4596 387.027 -24.4596C387.027 -24.4596 372.656 -10.0885 369.639 13.8439C367.66 29.4727 373.517 45.7653 381.984 56.1884C386.398 61.5805 391.382 66.4834 396.856 70.8041V70.7924C403.261 79.9811 406.778 91.3242 406.778 103.529C406.778 134.088 381.996 158.859 351.425 158.859C347.256 158.859 343.11 158.393 339.045 157.473C324.616 154.725 316.289 147.446 312.132 142.508C309.756 139.678 308.743 137.617 308.743 137.617C321.67 142.252 335.959 141.274 344.647 136.475C353.405 131.619 358.704 128.021 363.001 129.441C367.24 130.85 370.618 126.751 367.59 122.5C364.62 118.25 356.899 112.17 345.439 113.859C336.67 115.14 328.634 121.359 317.151 115.326C316.406 114.942 315.695 114.523 314.997 114.057C314.24 113.615 317.454 114.733 316.709 114.232C314.473 113.149 310.513 110.773 309.488 109.934C309.313 109.795 311.223 110.482 311.049 110.342C300.311 102.411 301.65 97.0656 301.988 93.7C302.256 91.0098 304.212 87.5742 307.497 86.1767C309.08 86.957 310.07 87.5509 310.07 87.5509C310.07 87.5509 309.395 86.3165 309.022 85.6526C309.15 85.606 309.278 85.6177 309.395 85.5711C310.699 86.1301 313.576 87.5975 315.09 88.4826C317.058 89.7287 317.687 90.8467 317.687 90.8467C317.687 90.8467 318.211 90.5905 317.827 89.5074C317.687 89.0649 317.093 87.6441 315.136 86.2116L315.253 86.2233C316.417 86.8172 317.524 87.5043 318.56 88.2846C319.108 86.4911 320.098 84.6161 319.888 81.2621C319.76 78.9096 319.818 78.2924 319.352 77.384C318.933 76.6037 319.585 76.301 320.307 77.1045C320.179 76.464 319.981 75.8468 319.69 75.2528L319.702 75.1946C320.598 72.3879 338.743 65.0859 340.059 64.2241C342.19 62.8848 344.007 61.1147 345.392 59.03C346.406 57.5859 347.163 55.5712 347.349 52.5083C347.407 51.1225 346.988 50.0394 342.178 48.9913C339.29 48.3624 334.83 47.7568 327.959 47.1046C322.939 46.6621 320.004 43.4012 318.327 40.3966C318.025 39.7444 317.71 39.1621 317.396 38.5798C317.105 37.8927 316.86 37.1939 316.685 36.4719C319.702 28.5992 325.105 21.8912 332.151 17.291C332.559 16.965 330.532 17.3726 330.94 17.0465C331.406 16.6622 334.48 15.5558 335.063 15.2996C335.773 14.9968 332.023 13.576 328.727 13.9254C325.361 14.2631 324.651 14.6241 322.846 15.3112C323.591 14.6474 325.967 13.774 325.408 13.7856C321.775 14.2864 317.268 16.173 313.413 18.3159C313.401 17.9432 313.483 17.5706 313.646 17.2328C311.852 17.9199 307.438 20.68 306.157 23.0208C306.216 22.5783 306.239 22.1241 306.227 21.6699C304.876 22.6831 303.642 23.8361 302.547 25.1171L302.477 25.1753C292.054 21.4137 282.889 21.1691 275.121 22.8578C273.421 21.3322 270.696 19.0146 266.829 11.4215C266.561 10.9673 266.421 12.3648 266.223 11.9106C264.721 8.4285 263.813 2.722 263.964 -1.20268C263.964 -1.20268 260.855 0.206477 258.293 6.12261C257.815 7.18239 257.512 7.77633 257.21 8.35863C257.07 8.53332 257.524 6.41376 257.454 6.53021C257.012 7.2872 255.847 8.34698 255.346 9.70955C254.997 10.7227 254.508 11.2934 254.193 12.5512L254.123 12.6676C254.1 12.2949 254.217 11.1304 254.135 11.3749C252.935 13.8089 251.899 16.3244 251.037 18.8982C249.651 23.4517 248.044 29.6357 247.788 37.6947C247.73 38.3003 247.776 38.9874 247.73 39.5348C244.457 43.2731 242.221 46.4408 241.383 48.0829C237.132 54.6046 232.462 64.8064 227.932 80.936C229.946 76.5339 232.357 72.3064 235.129 68.3351C231.367 76.8949 227.734 90.3459 227 111.064C227.908 106.778 229.085 102.551 230.494 98.4049C229.842 112.217 231.449 129.337 240.183 148.657C245.366 160.024 257.303 183.094 286.464 201.099C315.626 219.103 296.386 208.482 313.436 214.014C314.694 214.468 315.975 214.922 317.279 215.353C316.883 215.19 316.487 215.016 316.091 214.841C327.446 218.242 339.22 219.977 351.076 219.977C395.225 220.012 408.246 202.287 408.246 202.287C408.246 202.287 408.199 202.322 408.117 202.38C408.735 201.797 409.34 201.18 409.923 200.551C402.958 207.131 387.062 207.562 381.111 207.096C391.243 204.115 397.916 201.599 410.889 196.627C412.403 196.068 413.964 195.427 415.548 194.705C415.722 194.635 415.897 194.542 416.06 194.472C416.374 194.321 416.689 194.193 417.003 194.03C423.327 191.048 429.266 187.333 434.717 182.943C447.749 172.531 450.578 162.388 452.069 155.703C451.86 156.343 451.219 157.834 450.765 158.812C447.411 165.986 439.969 170.4 431.887 174.173C435.73 169.131 439.294 163.878 442.566 158.44C445.198 155.831 446.025 151.732 447.993 148.983V148.983Z" fill="url(#paint7_radial_175_114)"/>
<path d="M432.131 173.87C437.442 168.013 442.217 161.316 445.827 153.711C455.132 134.158 469.503 101.642 458.183 67.6946C449.228 40.8624 436.941 26.1885 421.347 11.8524C396.006 -11.4278 388.925 -21.816 388.925 -28C388.925 -28 359.67 4.62024 372.353 38.6263C385.035 72.6324 411.029 71.398 428.218 106.895C448.447 148.669 411.844 194.251 381.576 207.015C383.428 206.607 448.855 191.794 452.302 154.375C452.232 155.062 450.753 165.404 432.131 173.87V173.87Z" fill="url(#paint8_radial_175_114)"/>
<path d="M347.361 52.485C347.465 50.2723 346.312 48.7933 328.04 47.0813C320.517 46.3826 317.64 39.4416 316.767 36.5068C314.088 43.4595 312.993 50.7382 313.587 59.5658C313.995 65.3421 317.873 71.5378 319.725 75.183C319.725 75.183 320.132 74.6472 320.33 74.4493C323.824 70.8157 338.463 65.2723 339.837 64.4803C341.34 63.5254 347.116 59.3096 347.361 52.485V52.485Z" fill="url(#paint9_linear_175_114)"/>
<path d="M266.899 11.4331C266.631 10.979 266.491 12.3765 266.293 11.9223C264.791 8.44014 263.883 2.80351 264.092 -1.19104C264.092 -1.19104 260.983 0.218118 258.421 6.13425C257.943 7.19403 257.64 7.78797 257.338 8.37026C257.198 8.54495 257.652 6.4254 257.582 6.54186C257.14 7.29884 255.975 8.35862 255.474 9.66296C255.055 10.7344 254.636 11.305 254.31 12.6327C254.217 12.9937 254.403 11.0372 254.321 11.2817C248.347 22.8345 247.206 40.2917 247.835 39.5581C260.552 25.9789 275.133 22.753 275.133 22.753C273.595 21.6 270.218 18.3042 266.899 11.4331V11.4331Z" fill="url(#paint10_linear_175_114)"/>
<path d="M315.171 153.49C297.598 145.99 277.625 135.404 278.37 111.367C279.395 79.7131 307.893 85.967 307.893 85.967C306.821 86.2232 303.945 88.2729 302.92 90.4623C301.848 93.1875 299.88 99.3482 305.831 105.812C315.183 115.944 286.627 129.849 330.695 156.11C331.813 156.704 320.377 155.738 315.171 153.49V153.49Z" fill="url(#paint11_linear_175_114)"/>
<path d="M308.929 137.71C321.39 142.042 335.901 141.285 344.601 136.487C350.424 133.25 357.877 128.055 362.477 129.336C358.506 127.764 355.49 127.031 351.868 126.856C351.25 126.856 350.517 126.844 349.841 126.774C348.514 126.774 347.186 126.844 345.87 126.996C343.622 127.205 341.142 128.614 338.883 128.393C338.766 128.382 341.072 127.438 340.886 127.485C339.686 127.729 338.382 127.788 337.008 127.962C336.134 128.055 335.377 128.172 334.515 128.207C308.557 130.408 286.627 114.139 286.627 114.139C284.752 120.416 294.977 132.854 308.929 137.71Z" fill="url(#paint12_linear_175_114)"/>
<path d="M432.085 174.033C458.335 148.261 471.623 116.934 465.998 81.7861C465.998 81.7861 468.245 99.8023 459.732 118.238C463.82 100.245 464.297 77.8847 453.443 54.7326C438.956 23.8243 415.128 7.56662 406.021 0.777046C392.244 -9.50631 386.526 -19.9644 386.421 -22.1305C382.298 -13.6988 369.849 15.218 385.082 40.117C399.36 63.4438 421.848 70.3731 437.582 91.7667C466.592 131.2 432.085 174.033 432.085 174.033V174.033Z" fill="url(#paint13_linear_175_114)"/>
<path d="M428.323 106.976C419.146 88.0283 407.698 79.7597 396.867 70.7924C398.125 72.5509 398.44 73.1798 399.138 74.3211C408.676 84.4763 422.733 109.271 412.52 140.377C393.304 198.944 316.464 171.367 308.405 163.622C311.666 197.512 368.393 213.734 405.334 191.759C426.355 171.856 443.358 138.036 428.323 106.976V106.976Z" fill="url(#paint14_linear_175_114)"/>
</g>
<g clip-path="url(#clip3_175_114)">
<path d="M490.494 165.847C476.738 149.669 467.923 125.741 467.341 98.9062V93.0938C467.923 66.2594 476.835 42.3313 490.494 26.1531C508.319 3.09688 534.476 -7.26875 564.023 -7.26875C582.235 -7.26875 599.382 -6.00937 613.913 3.67813C592.116 -15.9875 563.344 -27.9031 531.763 -28H531.279C462.788 -28 407.279 27.5094 407.279 96C407.279 162.456 459.591 216.803 525.369 219.903C527.307 220 529.341 220 531.279 220C563.054 220 592.019 208.084 613.913 188.419C599.382 198.106 583.204 198.494 564.991 198.494C535.541 198.591 508.223 189 490.494 165.847V165.847Z" fill="url(#paint15_linear_175_114)"/>
<path d="M490.494 26.1531C501.829 12.6875 516.554 4.64683 532.635 4.64683C568.769 4.64683 598.026 45.5281 598.026 96.0968C598.026 146.666 568.769 187.547 532.635 187.547C516.554 187.547 501.926 179.409 490.494 166.041C508.319 189.097 534.766 203.822 564.216 203.822C582.332 203.822 599.382 198.3 613.913 188.612C639.294 165.75 655.279 132.716 655.279 95.9999C655.279 59.2843 639.294 26.2499 613.913 3.5812C599.382 -6.1063 582.429 -11.6282 564.216 -11.6282C534.669 -11.6282 508.223 2.99995 490.494 26.1531V26.1531Z" fill="url(#paint16_linear_175_114)"/>
</g>
<g clip-path="url(#clip4_175_114)">
<g filter="url(#filter0_d_175_114)">
<path d="M719.279 214.188C785.622 214.188 839.404 160.406 839.404 94.0625C839.404 27.7193 785.622 -26.0625 719.279 -26.0625C652.936 -26.0625 599.154 27.7193 599.154 94.0625C599.154 160.406 652.936 214.188 719.279 214.188Z" fill="url(#paint17_linear_175_114)"/>
</g>
<path d="M719.279 205.178C780.646 205.178 830.394 155.43 830.394 94.0625C830.394 32.6951 780.646 -17.0531 719.279 -17.0531C657.911 -17.0531 608.163 32.6951 608.163 94.0625C608.163 155.43 657.911 205.178 719.279 205.178Z" fill="url(#paint18_radial_175_114)"/>
<path d="M719.467 9.97505C718.716 9.97505 718.059 9.41221 718.059 8.66143V-10.9529C718.059 -11.7036 718.716 -12.2665 719.467 -12.2665C720.217 -12.2665 720.874 -11.7036 720.874 -10.9529V8.66143C720.78 9.41221 720.217 9.97505 719.467 9.97505Z" fill="#F3F3F3"/>
<path d="M719.466 10.069C718.622 10.069 717.965 9.41218 717.965 8.6614V-10.9529C717.965 -11.7037 718.622 -12.3605 719.466 -12.3605C720.311 -12.3605 720.968 -11.7037 720.968 -10.9529V8.6614C720.968 9.41218 720.217 10.069 719.466 10.069ZM719.466 -12.1735C718.81 -12.1735 718.153 -11.6097 718.153 -10.9529V8.6614C718.153 9.31821 718.716 9.88203 719.466 9.88203C720.123 9.88203 720.78 9.31821 720.78 8.6614V-10.9529C720.687 -11.6097 720.123 -12.1735 719.466 -12.1735V-12.1735Z" fill="white"/>
<path d="M735.891 11.6645C735.139 11.4766 734.67 10.8198 734.764 10.069L738.612 -9.17036C738.8 -9.92018 739.457 -10.39 740.207 -10.2021C740.958 -10.0141 741.427 -9.35733 741.333 -8.60655L737.485 10.6328C737.391 11.2887 736.64 11.7585 735.89 11.6645H735.891Z" fill="#F3F3F3"/>
<path d="M735.891 11.7585C735.045 11.5705 734.576 10.8198 734.67 10.069L738.518 -9.1704C738.706 -9.92021 739.457 -10.484 740.3 -10.2961C741.145 -10.1082 741.615 -9.35737 741.521 -8.60659L737.673 10.6328C737.485 11.3826 736.734 11.8524 735.891 11.7585ZM740.3 -10.1082C739.644 -10.2021 738.987 -9.82722 738.799 -9.16943L734.952 10.0699C734.858 10.7258 735.233 11.3826 735.984 11.5715C736.641 11.6645 737.297 11.2886 737.485 10.6318L741.333 -8.60659C741.427 -9.35737 740.958 -9.92022 740.3 -10.1082V-10.1082Z" fill="white"/>
<path d="M747.152 3.21799C746.973 3.17491 746.804 3.09702 746.656 2.98877C746.507 2.88052 746.381 2.74403 746.286 2.58712C746.19 2.4302 746.126 2.25594 746.097 2.07429C746.069 1.89264 746.077 1.70717 746.12 1.52849L748.466 -6.91707C748.653 -7.66785 749.404 -8.04373 750.155 -7.85579C750.906 -7.66785 751.375 -6.91707 751.187 -6.16629L748.841 2.28024C748.653 3.03005 747.902 3.40593 747.152 3.21799Z" fill="#F3F3F3"/>
<path d="M747.152 3.31196C746.401 3.12402 745.838 2.27927 746.12 1.52946L748.466 -6.91804C748.653 -7.66786 749.498 -8.1377 750.249 -7.94976C750.999 -7.76183 751.562 -6.91708 751.281 -6.16726L748.935 2.28024C748.747 3.03005 747.996 3.49989 747.153 3.31196H747.152ZM750.249 -7.66786C749.592 -7.85579 748.841 -7.47992 748.653 -6.82311L746.308 1.62246C746.12 2.27927 746.495 2.93705 747.246 3.12402C747.902 3.31196 748.653 2.93705 748.841 2.28024L751.187 -6.16726C751.281 -6.82311 750.906 -7.47992 750.249 -7.66883V-7.66786Z" fill="white"/>
<path d="M751.75 16.4511C750.999 16.1692 750.718 15.3245 750.999 14.6677L758.507 -3.44507C758.788 -4.10188 759.634 -4.47776 760.29 -4.10188C761.041 -3.82094 761.323 -2.97522 761.041 -2.31938L753.534 15.7933C753.253 16.4511 752.407 16.826 751.751 16.4511H751.75Z" fill="#F3F3F3"/>
<path d="M751.75 16.5451C751.39 16.4077 751.098 16.1329 750.94 15.7809C750.782 15.429 750.769 15.0287 750.906 14.6676L758.413 -3.44507C758.695 -4.19585 759.54 -4.47776 760.385 -4.19585C760.745 -4.05842 761.037 -3.78363 761.195 -3.43171C761.353 -3.07979 761.366 -2.67944 761.229 -2.31842L753.722 15.7943C753.346 16.5451 752.501 16.92 751.75 16.5451ZM760.291 -4.00792C759.634 -4.28885 758.883 -4.00792 758.601 -3.3511L751.093 14.7616C750.813 15.4184 751.187 16.0752 751.844 16.3571C752.501 16.6381 753.252 16.3571 753.534 15.7003L761.042 -2.41238C761.229 -2.9762 760.948 -3.72698 760.291 -4.00792V-4.00792Z" fill="white"/>
<path d="M764.42 10.4449C763.763 10.069 763.481 9.31823 763.763 8.66142L767.705 0.872669C768.079 0.214888 768.83 -0.0670171 769.582 0.308858C770.239 0.684733 770.52 1.43551 770.239 2.09136L766.296 9.88108C765.921 10.5379 765.17 10.8208 764.419 10.4449H764.42Z" fill="#F3F3F3"/>
<path d="M764.42 10.5388C763.669 10.163 763.388 9.31822 763.763 8.56744L767.704 0.778687C768.079 0.0269367 768.925 -0.254002 769.675 0.120905C770.426 0.49678 770.707 1.34153 770.332 2.09231L766.391 9.88106C766.015 10.6318 765.17 10.9137 764.419 10.5379L764.42 10.5388ZM769.582 0.308842C768.924 0.0279049 768.173 0.214873 767.892 0.871686L763.95 8.6614C763.67 9.22425 763.95 9.97503 764.513 10.3509C765.17 10.6318 765.921 10.4449 766.203 9.78806L770.145 1.99834C770.426 1.4355 770.145 0.684717 769.582 0.308842Z" fill="white"/>
<path d="M766.297 24.3339C765.64 23.865 765.452 23.0202 765.921 22.4574L776.808 6.22115C777.183 5.56434 778.028 5.47037 778.684 5.84624C779.342 6.31512 779.529 7.15987 779.06 7.72271L768.173 23.959C767.798 24.6158 766.954 24.8037 766.297 24.3339Z" fill="#F3F3F3"/>
<path d="M766.297 24.4278C765.64 23.9589 765.452 23.0202 765.828 22.3634L776.714 6.12716C777.183 5.47035 778.027 5.28241 778.778 5.75226C779.435 6.22113 779.623 7.15985 779.248 7.81666L768.361 24.0529C767.892 24.7097 766.954 24.8967 766.297 24.4278ZM778.684 5.9402C778.122 5.56432 777.277 5.65829 776.902 6.22113L766.015 22.4574C765.64 23.0193 765.827 23.771 766.391 24.1459C766.954 24.5218 767.798 24.4278 768.173 23.865L779.06 7.7227C779.435 7.15985 779.248 6.3151 778.684 5.9402V5.9402Z" fill="white"/>
<path d="M779.998 20.8618C779.436 20.3919 779.248 19.5472 779.717 18.9843L785.16 12.1333C785.629 11.5714 786.474 11.4765 787.037 11.9464C787.601 12.4152 787.787 13.26 787.318 13.8228L781.875 20.6738C781.406 21.2367 780.562 21.3306 779.999 20.8618H779.998Z" fill="#F3F3F3"/>
<path d="M779.905 20.9557C779.248 20.4859 779.154 19.5472 779.624 18.8904L785.066 12.0403C785.535 11.3825 786.474 11.2886 787.131 11.8524C787.787 12.3213 787.881 13.26 787.412 13.9168L781.969 20.7678C781.5 21.4246 780.562 21.5186 779.905 20.9557V20.9557ZM786.943 12.0394C786.381 11.5705 785.629 11.6644 785.16 12.2273L779.717 19.0783C779.342 19.6411 779.436 20.3919 779.998 20.8608C780.562 21.3306 781.312 21.2367 781.781 20.6738L787.225 13.8228C787.6 13.26 787.506 12.4152 786.944 12.0403L786.943 12.0394Z" fill="white"/>
<path d="M779.06 34.9388C778.497 34.3759 778.497 33.5312 779.06 33.0613L792.949 19.2663C793.513 18.7035 794.357 18.7965 794.827 19.2663C795.296 19.7352 795.39 20.6739 794.827 21.1428L781.032 34.9388C780.468 35.5016 779.623 35.5016 779.06 34.9388V34.9388Z" fill="#F3F3F3"/>
<path d="M778.966 35.0327C778.696 34.7573 778.544 34.3866 778.544 34.0005C778.544 33.6144 778.696 33.2437 778.966 32.9683L792.855 19.1723C793.131 18.9014 793.502 18.7495 793.888 18.7495C794.274 18.7495 794.645 18.9014 794.921 19.1723C795.191 19.4477 795.343 19.8184 795.343 20.2045C795.343 20.5907 795.191 20.9614 794.921 21.2367L781.031 35.0317C780.755 35.3024 780.385 35.4541 779.998 35.4541C779.612 35.4541 779.242 35.3024 778.966 35.0317V35.0327ZM794.827 19.2663C794.358 18.7965 793.513 18.7965 793.044 19.2663L779.154 33.0613C778.684 33.5312 778.684 34.3759 779.154 34.8448C779.623 35.3146 780.468 35.3146 780.937 34.8448L794.827 21.0498C795.296 20.5799 795.296 19.8292 794.827 19.2663Z" fill="white"/>
<path d="M793.137 34.1879C792.668 33.625 792.668 32.7803 793.231 32.3104L799.894 26.6801C800.457 26.2112 801.302 26.3042 801.772 26.868C802.24 27.4308 802.24 28.2756 801.678 28.7445L795.015 34.3758C794.451 34.8447 793.606 34.7507 793.137 34.1879Z" fill="#F3F3F3"/>
<path d="M793.043 34.2819C792.48 33.6251 792.574 32.6864 793.137 32.2175L799.8 26.5862C800.363 26.0233 801.302 26.1173 801.865 26.7741C802.428 27.4309 802.334 28.3696 801.772 28.8385L795.108 34.4699C794.546 35.0317 793.606 34.9387 793.044 34.2819H793.043ZM801.678 26.8681C801.208 26.3052 800.457 26.3052 799.895 26.6801L793.231 32.3115C792.762 32.7804 792.668 33.5311 793.137 34.094C793.606 34.6568 794.358 34.6568 794.92 34.2819L801.584 28.6506C802.146 28.1817 802.146 27.4309 801.678 26.8681Z" fill="white"/>
<path d="M789.383 47.702C788.914 47.0452 789.102 46.2004 789.759 45.8246L806.088 34.9387C806.745 34.5628 807.59 34.7508 807.965 35.3146C808.435 35.9714 808.247 36.8162 807.59 37.1911L791.261 48.0769C790.697 48.4528 789.852 48.2648 789.383 47.702V47.702Z" fill="#F3F3F3"/>
<path d="M789.289 47.7019C788.82 47.0451 789.008 46.1064 789.665 45.6375L805.994 34.7507C806.651 34.2818 807.59 34.4698 808.059 35.2206C808.528 35.8774 808.34 36.8161 807.684 37.284L791.354 48.1718C790.697 48.6416 789.759 48.4537 789.289 47.7029V47.7019ZM807.871 35.4085C807.496 34.8447 806.745 34.6568 806.182 35.0326L789.852 45.9185C789.29 46.2943 789.101 47.0451 789.571 47.7019C789.946 48.2648 790.697 48.4527 791.261 48.0778L807.59 37.191C808.153 36.7221 808.247 35.9704 807.871 35.4085Z" fill="white"/>
<path d="M803.367 49.6734C802.991 49.0156 803.179 48.1718 803.836 47.796L811.438 43.4792C812.094 43.1033 812.939 43.3852 813.314 44.0411C813.69 44.6989 813.502 45.5426 812.845 45.9185L805.243 50.2362C804.587 50.6111 803.742 50.3302 803.366 49.6724L803.367 49.6734Z" fill="#F3F3F3"/>
<path d="M803.273 49.7664C802.897 49.0156 803.085 48.1709 803.742 47.796L811.344 43.4792C812.001 43.1033 812.939 43.3852 813.314 44.0411C813.69 44.7928 813.502 45.6376 812.845 46.0125L805.244 50.3302C804.587 50.7051 803.648 50.4232 803.273 49.7664V49.7664ZM813.22 44.136C812.845 43.4792 812.095 43.2913 811.532 43.6662L803.93 47.9839C803.367 48.3588 803.179 49.1096 803.46 49.6724C803.836 50.3292 804.587 50.5172 805.15 50.1423L812.751 45.8245C813.314 45.5436 813.502 44.7928 813.22 44.136V44.136Z" fill="white"/>
<path d="M797.079 62.1548C796.798 61.404 797.079 60.6532 797.83 60.3723L815.943 52.8645C816.599 52.5826 817.444 52.9575 817.725 53.6143C818.007 54.3651 817.725 55.1159 816.974 55.3968L798.862 62.9046C798.205 63.1865 797.361 62.9046 797.079 62.1548Z" fill="#F3F3F3"/>
<path d="M796.985 62.2477C796.704 61.4979 796.985 60.6532 797.736 60.2773L815.848 52.7695C816.209 52.6334 816.609 52.646 816.961 52.8043C817.313 52.9626 817.587 53.2538 817.725 53.6142C818.007 54.365 817.725 55.2097 816.974 55.5847L798.862 63.0925C798.501 63.2288 798.101 63.2166 797.749 63.0585C797.397 62.9003 797.122 62.6091 796.985 62.2487V62.2477ZM817.538 53.7082C817.256 53.0514 816.505 52.7695 815.942 52.9574L797.83 60.4652C797.173 60.7462 796.891 61.4979 797.173 62.1547C797.454 62.8115 798.204 63.0934 798.768 62.9055L816.88 55.3977C817.538 55.1168 817.82 54.365 817.538 53.7082Z" fill="white"/>
<path d="M810.311 66.8474C810.03 66.0957 810.405 65.3459 811.156 65.0639L819.414 62.3418C820.071 62.0608 820.916 62.5297 821.104 63.1865C821.385 63.9373 821.01 64.6881 820.259 64.97L812 67.6922C811.344 67.9731 810.593 67.5982 810.311 66.8464V66.8474Z" fill="#F3F3F3"/>
<path d="M810.217 66.9404C809.936 66.1896 810.311 65.3448 811.157 65.0639L819.414 62.3417C820.165 62.0608 821.01 62.5297 821.292 63.2814C821.573 64.0312 821.198 64.876 820.352 65.1579L812.095 67.8801C811.344 68.067 810.499 67.6912 810.217 66.9404ZM821.104 63.3754C820.916 62.7176 820.165 62.3417 819.508 62.5297L811.25 65.2518C810.593 65.4388 810.311 66.1896 810.499 66.8474C810.687 67.5042 811.438 67.8791 812.095 67.6912L820.353 64.9699C821.01 64.689 821.292 64.0312 821.104 63.3744V63.3754Z" fill="white"/>
<path d="M801.866 78.0152C801.678 77.2644 802.147 76.5136 802.897 76.4197L822.137 72.6657C822.887 72.4778 823.544 73.0407 823.731 73.7914C823.919 74.5422 823.45 75.293 822.7 75.387L803.46 79.1409C802.709 79.2348 801.959 78.766 801.865 78.0152H801.866Z" fill="#F3F3F3"/>
<path d="M801.678 78.0151C801.49 77.1704 802.052 76.4196 802.803 76.2317L822.043 72.4777C822.793 72.2898 823.544 72.8536 823.731 73.6984C823.919 74.5422 823.356 75.2929 822.605 75.4809L803.366 79.2348C802.616 79.4227 801.865 78.8599 801.678 78.0141V78.0151ZM823.544 73.7914C823.45 73.1346 822.793 72.6657 822.137 72.7597L802.897 76.5136C802.24 76.6075 801.772 77.3573 801.959 78.0151C802.052 78.6719 802.709 79.1408 803.367 79.0468L822.605 75.2929C823.262 75.105 823.731 74.4482 823.544 73.7914Z" fill="white"/>
<path d="M813.878 85.2411C813.784 84.4903 814.253 83.8335 815.004 83.7395L823.637 82.7068C824.388 82.6138 825.046 83.1767 825.139 83.9275C825.233 84.6782 824.764 85.3351 824.013 85.429L815.379 86.4607C814.722 86.5547 813.971 85.9919 813.877 85.2411H813.878Z" fill="#F3F3F3"/>
<path d="M813.784 85.2411C813.69 84.3963 814.253 83.6456 815.004 83.5516L823.637 82.5199C824.388 82.4259 825.139 82.9887 825.233 83.8335C825.327 84.6782 824.764 85.429 824.013 85.523L815.379 86.5547C814.629 86.6487 813.877 86.0858 813.784 85.2411ZM825.139 83.9275C825.046 83.2707 824.389 82.7068 823.731 82.8008L815.098 83.8335C814.441 83.9275 813.971 84.5843 814.065 85.2411C814.159 85.8979 814.816 86.4617 815.473 86.3677L824.107 85.3351C824.764 85.2411 825.233 84.5843 825.14 83.9275H825.139Z" fill="white"/>
<path d="M803.367 94.3444C803.367 93.5936 803.929 92.9368 804.681 92.9368H824.295C825.046 92.9368 825.609 93.5936 825.609 94.3444C825.609 95.0951 825.046 95.752 824.295 95.752H804.681C803.93 95.752 803.367 95.0951 803.367 94.3444Z" fill="#F3F3F3"/>
<path d="M803.273 94.3445C803.273 93.4997 803.93 92.8429 804.681 92.8429H824.295C825.046 92.8429 825.702 93.4997 825.702 94.3445C825.702 95.1892 825.046 95.846 824.295 95.846H804.681C803.93 95.846 803.273 95.1892 803.273 94.3445ZM825.514 94.4384C825.514 93.7816 824.952 93.1248 824.294 93.1248H804.682C804.025 93.1248 803.461 93.6867 803.461 94.4384C803.461 95.0952 804.025 95.7521 804.682 95.7521H824.296C824.953 95.6581 825.515 95.0952 825.515 94.4384H825.514Z" fill="white"/>
<path d="M813.784 103.823C813.877 103.072 814.441 102.509 815.192 102.509L823.92 103.166C824.67 103.26 825.233 103.917 825.139 104.667C825.046 105.418 824.482 105.981 823.731 105.981L815.004 105.324C814.347 105.23 813.783 104.573 813.783 103.823H813.784Z" fill="#F3F3F3"/>
<path d="M813.69 103.823C813.784 102.978 814.441 102.415 815.192 102.415L823.92 103.072C824.67 103.166 825.327 103.823 825.233 104.667C825.14 105.512 824.482 106.075 823.731 106.075L815.004 105.418C814.253 105.324 813.69 104.573 813.69 103.823ZM825.14 104.667C825.233 104.011 824.67 103.354 824.013 103.354L815.285 102.697C814.629 102.697 814.065 103.166 813.971 103.918C813.878 104.573 814.441 105.23 815.098 105.23L823.826 105.887C824.482 105.887 825.046 105.325 825.14 104.667V104.667Z" fill="white"/>
<path d="M801.678 110.674C801.865 109.923 802.522 109.453 803.273 109.548L822.511 113.396C823.262 113.583 823.732 114.24 823.544 114.99C823.356 115.741 822.699 116.211 821.949 116.117L802.709 112.269C802.052 112.175 801.584 111.424 801.678 110.674V110.674Z" fill="#F3F3F3"/>
<path d="M801.584 110.674C801.772 109.829 802.522 109.36 803.273 109.453L822.512 113.302C823.262 113.489 823.825 114.24 823.637 115.084C823.45 115.929 822.7 116.399 821.949 116.305L802.709 112.457C801.959 112.269 801.49 111.518 801.584 110.675V110.674ZM823.45 115.084C823.544 114.428 823.169 113.771 822.512 113.583L803.272 109.735C802.616 109.642 801.959 110.017 801.771 110.768C801.678 111.424 802.053 112.081 802.71 112.269L821.949 116.117C822.7 116.211 823.262 115.741 823.45 115.084Z" fill="white"/>
<path d="M810.124 121.935C810.167 121.757 810.245 121.588 810.353 121.44C810.462 121.291 810.598 121.166 810.755 121.07C810.912 120.974 811.086 120.91 811.267 120.881C811.449 120.853 811.634 120.86 811.813 120.904L820.259 123.249C821.01 123.437 821.385 124.189 821.198 124.938C821.155 125.117 821.077 125.286 820.969 125.435C820.861 125.583 820.724 125.709 820.567 125.805C820.41 125.901 820.236 125.965 820.054 125.994C819.873 126.022 819.687 126.014 819.508 125.971L811.062 123.625C810.311 123.437 809.936 122.686 810.123 121.935H810.124Z" fill="#F3F3F3"/>
<path d="M810.029 121.935C810.217 121.185 811.062 120.622 811.813 120.904L820.259 123.249C821.01 123.437 821.48 124.282 821.292 125.032C821.104 125.783 820.259 126.346 819.508 126.065L811.062 123.719C810.311 123.531 809.841 122.78 810.03 121.936L810.029 121.935ZM821.01 125.032C821.198 124.376 820.822 123.625 820.165 123.437L811.719 121.091C811.062 120.903 810.405 121.279 810.217 122.029C810.03 122.686 810.405 123.437 811.062 123.625L819.508 125.971C820.165 126.065 820.822 125.69 821.01 125.032Z" fill="white"/>
<path d="M796.891 126.44C797.172 125.689 798.018 125.407 798.673 125.689L816.787 133.197C817.444 133.478 817.819 134.324 817.538 134.98C817.256 135.731 816.411 136.012 815.754 135.731L797.642 128.224C796.891 127.943 796.609 127.097 796.891 126.441V126.44Z" fill="#F3F3F3"/>
<path d="M796.797 126.346C796.935 125.986 797.209 125.694 797.561 125.536C797.913 125.377 798.314 125.365 798.675 125.501L816.787 133.009C817.538 133.291 817.819 134.136 817.538 134.981C817.401 135.341 817.126 135.633 816.774 135.791C816.422 135.949 816.022 135.962 815.661 135.825L797.548 128.318C796.797 127.942 796.516 127.097 796.797 126.346ZM817.35 134.887C817.631 134.23 817.35 133.479 816.693 133.197L798.581 125.689C797.924 125.408 797.267 125.783 796.985 126.44C796.704 127.097 796.985 127.848 797.642 128.13L815.755 135.637C816.412 135.825 817.162 135.543 817.35 134.887Z" fill="white"/>
<path d="M802.991 139.109C803.367 138.453 804.117 138.171 804.774 138.453L812.563 142.394C813.22 142.675 813.502 143.52 813.127 144.271C812.751 144.928 812 145.211 811.344 144.928L803.555 140.987C802.897 140.611 802.615 139.766 802.991 139.109Z" fill="#F3F3F3"/>
<path d="M802.897 139.015C803.273 138.265 804.118 137.984 804.869 138.359L812.657 142.3C813.408 142.676 813.69 143.521 813.314 144.271C812.939 145.022 812.094 145.304 811.344 144.928L803.555 140.987C802.803 140.706 802.522 139.766 802.897 139.015V139.015ZM813.033 144.177C813.314 143.52 813.126 142.769 812.469 142.488L804.681 138.547C804.117 138.266 803.367 138.547 802.991 139.109C802.71 139.766 802.897 140.517 803.554 140.799L811.343 144.741C812.001 145.022 812.751 144.835 813.033 144.177Z" fill="white"/>
<path d="M789.195 140.893C789.665 140.236 790.416 140.048 791.073 140.517L807.402 151.404C808.059 151.779 808.153 152.624 807.778 153.28C807.308 153.938 806.557 154.125 805.9 153.656L789.571 142.769C788.914 142.3 788.726 141.456 789.195 140.893Z" fill="#F3F3F3"/>
<path d="M789.101 140.799C789.571 140.142 790.51 139.954 791.167 140.33L807.496 151.216C808.153 151.685 808.341 152.53 807.871 153.28C807.402 153.938 806.463 154.125 805.808 153.75L789.477 142.863C788.727 142.394 788.633 141.456 789.101 140.799ZM807.59 153.186C807.965 152.624 807.871 151.779 807.309 151.404L790.979 140.517C790.416 140.142 789.665 140.33 789.289 140.893C788.914 141.456 789.008 142.3 789.57 142.675L805.901 153.562C806.463 153.938 807.214 153.75 807.59 153.187V153.186Z" fill="white"/>
<path d="M792.668 154.501C793.137 153.937 793.982 153.75 794.545 154.22L801.396 159.568C801.959 160.037 802.053 160.882 801.584 161.446C801.115 162.008 800.27 162.197 799.706 161.727L792.855 156.377C792.293 155.909 792.198 155.064 792.668 154.501V154.501Z" fill="#F3F3F3"/>
<path d="M792.574 154.407C793.043 153.75 793.982 153.656 794.638 154.126L801.489 159.474C802.146 159.943 802.24 160.882 801.77 161.539C801.302 162.197 800.363 162.29 799.707 161.821L792.855 156.471C792.198 156.002 792.105 155.064 792.574 154.407ZM801.583 161.446C802.052 160.882 801.958 160.131 801.396 159.662L794.545 154.313C793.982 153.938 793.231 154.032 792.762 154.594C792.292 155.158 792.386 155.908 792.949 156.377L799.8 161.727C800.363 162.103 801.114 162.008 801.582 161.446H801.583Z" fill="white"/>
<path d="M778.684 153.562C779.248 152.999 780.093 152.999 780.562 153.562L794.451 167.357C795.014 167.921 794.92 168.766 794.451 169.235C793.889 169.797 793.043 169.797 792.574 169.235L778.684 155.44C778.215 154.97 778.215 154.031 778.684 153.562V153.562Z" fill="#F3F3F3"/>
<path d="M778.685 153.468C778.96 153.197 779.331 153.045 779.717 153.045C780.104 153.045 780.474 153.197 780.75 153.468L794.639 167.263C794.91 167.539 795.062 167.91 795.062 168.296C795.062 168.682 794.91 169.053 794.639 169.329C794.363 169.599 793.993 169.751 793.607 169.751C793.221 169.751 792.85 169.599 792.574 169.329L778.685 155.534C778.028 154.97 778.028 154.032 778.685 153.468ZM794.451 169.141C794.921 168.672 794.921 167.827 794.451 167.358L780.562 153.562C780.093 153.093 779.248 153.093 778.779 153.562C778.31 154.031 778.31 154.876 778.779 155.345L792.668 169.141C793.137 169.704 793.889 169.704 794.451 169.141Z" fill="white"/>
<path d="M779.529 167.545C780.093 167.076 780.937 167.076 781.407 167.639L787.132 174.208C787.6 174.772 787.507 175.617 786.943 176.086C786.381 176.554 785.535 176.554 785.066 175.992L779.341 169.423C778.872 168.954 778.966 168.109 779.529 167.545V167.545Z" fill="#F3F3F3"/>
<path d="M779.436 167.545C780.093 166.983 780.938 167.076 781.499 167.639L787.225 174.208C787.788 174.772 787.694 175.71 787.037 176.274C786.38 176.836 785.535 176.742 784.972 176.18L779.247 169.611C778.778 168.954 778.778 168.015 779.435 167.545H779.436ZM786.944 176.086C787.506 175.617 787.506 174.865 787.131 174.303L781.406 167.733C780.937 167.264 780.186 167.17 779.623 167.639C779.06 168.109 779.06 168.86 779.435 169.422L785.16 175.992C785.629 176.555 786.381 176.555 786.943 176.086H786.944Z" fill="white"/>
<path d="M766.015 163.979C766.672 163.51 767.516 163.698 767.892 164.355L778.777 180.59C779.153 181.247 778.965 182.092 778.402 182.468C777.745 182.937 776.901 182.749 776.525 182.092L765.639 165.856C765.263 165.2 765.451 164.354 766.014 163.979H766.015Z" fill="#F3F3F3"/>
<path d="M766.015 163.885C766.672 163.416 767.61 163.604 768.079 164.261L778.966 180.497C779.435 181.153 779.247 182.092 778.497 182.561C777.839 183.031 776.902 182.843 776.432 182.186L765.546 165.95C765.077 165.2 765.265 164.355 766.015 163.886V163.885ZM778.403 182.374C778.966 181.998 779.154 181.247 778.778 180.684L767.892 164.448C767.516 163.886 766.766 163.791 766.11 164.167C765.546 164.542 765.358 165.293 765.734 165.857L776.62 182.092C776.996 182.561 777.84 182.749 778.402 182.373L778.403 182.374Z" fill="white"/>
<path d="M764.045 177.868C764.702 177.493 765.546 177.681 765.921 178.338L770.239 185.94C770.614 186.596 770.332 187.441 769.675 187.816C769.018 188.192 768.174 188.004 767.799 187.347L763.482 179.745C763.2 179.089 763.388 178.244 764.044 177.869L764.045 177.868Z" fill="#F3F3F3"/>
<path d="M764.045 177.775C764.796 177.399 765.64 177.587 766.015 178.244L770.332 185.846C770.708 186.503 770.52 187.441 769.77 187.816C769.018 188.192 768.174 188.004 767.799 187.347L763.482 179.746C763.106 179.089 763.294 178.244 764.044 177.775H764.045ZM769.675 187.723C770.239 187.347 770.52 186.597 770.145 186.034L765.828 178.432C765.452 177.869 764.702 177.681 764.139 177.962C763.575 178.338 763.294 179.089 763.669 179.652L767.987 187.253C768.268 187.816 769.112 188.098 769.675 187.722V187.723Z" fill="white"/>
<path d="M751.562 171.675C752.313 171.394 753.064 171.675 753.346 172.332L760.948 190.444C761.229 191.101 760.854 191.946 760.197 192.227C759.54 192.509 758.695 192.227 758.414 191.57L750.813 173.458C750.531 172.801 750.906 171.957 751.562 171.675Z" fill="#F3F3F3"/>
<path d="M751.562 171.581C752.313 171.3 753.158 171.581 753.534 172.332L761.136 190.444C761.272 190.805 761.259 191.205 761.101 191.557C760.942 191.909 760.651 192.183 760.291 192.321C759.54 192.603 758.695 192.321 758.32 191.57L750.719 173.458C750.437 172.801 750.813 171.957 751.562 171.581V171.581ZM760.103 192.134C760.76 191.852 761.042 191.101 760.76 190.538L753.158 172.426C752.877 171.769 752.126 171.487 751.469 171.769C750.813 172.05 750.53 172.801 750.813 173.364L758.413 191.477C758.789 192.134 759.446 192.415 760.103 192.134Z" fill="white"/>
<path d="M746.963 185.001C747.715 184.72 748.465 185.095 748.747 185.846L751.469 194.104C751.75 194.761 751.281 195.606 750.624 195.794C749.873 196.075 749.123 195.7 748.842 194.949L746.12 186.69C745.839 186.034 746.214 185.283 746.964 185.001H746.963Z" fill="#F3F3F3"/>
<path d="M746.87 184.907C747.231 184.771 747.631 184.784 747.983 184.942C748.335 185.1 748.609 185.391 748.747 185.752L751.469 194.01C751.75 194.761 751.281 195.606 750.529 195.888C750.168 196.024 749.768 196.011 749.417 195.853C749.065 195.695 748.79 195.403 748.653 195.043L745.932 186.784C745.744 186.034 746.12 185.189 746.87 184.907ZM750.53 195.699C751.187 195.512 751.562 194.761 751.375 194.104L748.653 185.846C748.466 185.189 747.715 184.907 747.058 185.095C746.401 185.283 746.026 186.034 746.214 186.691L748.935 194.949C748.983 195.108 749.064 195.256 749.172 195.382C749.281 195.508 749.415 195.61 749.565 195.68C749.716 195.751 749.879 195.79 750.046 195.793C750.212 195.796 750.377 195.765 750.53 195.7V195.699Z" fill="white"/>
<path d="M735.891 176.461C736.641 176.273 737.392 176.742 737.485 177.493L741.427 196.733C741.615 197.482 741.051 198.14 740.301 198.327C739.551 198.515 738.799 198.046 738.706 197.295L734.763 178.056C734.67 177.399 735.139 176.648 735.89 176.46L735.891 176.461Z" fill="#F3F3F3"/>
<path d="M735.891 176.366C736.734 176.179 737.485 176.742 737.673 177.493L741.615 196.732C741.803 197.482 741.239 198.327 740.488 198.421C739.643 198.609 738.893 198.046 738.706 197.295L734.763 178.056C734.576 177.305 735.046 176.554 735.89 176.367L735.891 176.366ZM740.3 198.233C740.958 198.14 741.427 197.482 741.333 196.732L737.391 177.493C737.298 176.836 736.547 176.367 735.89 176.554C735.233 176.648 734.764 177.305 734.858 178.056L738.8 197.295C738.987 197.952 739.643 198.327 740.301 198.234L740.3 198.233Z" fill="white"/>
<path d="M728.758 188.661C729.509 188.567 730.165 189.037 730.353 189.788L731.479 198.421C731.573 199.172 731.01 199.829 730.258 199.923C729.509 200.017 728.852 199.548 728.664 198.797L727.538 190.163C727.444 189.412 728.007 188.755 728.758 188.661Z" fill="#F3F3F3"/>
<path d="M728.758 188.567C729.603 188.474 730.353 189.037 730.447 189.788L731.573 198.421C731.667 199.172 731.104 199.923 730.259 200.017C729.415 200.111 728.664 199.548 728.57 198.796L727.444 190.162C727.35 189.412 727.913 188.661 728.758 188.567ZM730.166 199.829C730.822 199.736 731.386 199.078 731.292 198.421L730.166 189.788C730.072 189.131 729.415 188.661 728.758 188.755C728.101 188.849 727.537 189.506 727.631 190.162L728.758 198.797C728.852 199.454 729.509 199.923 730.166 199.829Z" fill="white"/>
<path d="M719.092 178.15C719.842 178.15 720.499 178.714 720.499 179.465V199.078C720.499 199.829 719.842 200.393 719.092 200.393C718.341 200.393 717.684 199.829 717.684 199.078V179.465C717.778 178.714 718.341 178.15 719.092 178.15Z" fill="#F3F3F3"/>
<path d="M719.092 178.056C719.937 178.056 720.593 178.713 720.593 179.464V199.078C720.593 199.829 719.937 200.485 719.092 200.485C718.247 200.485 717.59 199.829 717.59 199.078V179.465C717.59 178.714 718.341 178.056 719.092 178.056ZM719.092 200.299C719.749 200.299 720.406 199.736 720.406 199.078V179.465C720.406 178.807 719.843 178.244 719.092 178.244C718.435 178.244 717.778 178.807 717.778 179.465V199.078C717.871 199.736 718.435 200.299 719.092 200.299Z" fill="white"/>
<path d="M709.706 188.661C710.457 188.755 711.02 189.318 711.02 190.068L710.363 198.797C710.27 199.548 709.612 200.111 708.861 200.018C708.111 199.923 707.548 199.36 707.548 198.609L708.205 189.881C708.299 189.131 708.955 188.567 709.706 188.661Z" fill="#F3F3F3"/>
<path d="M709.706 188.567C710.551 188.661 711.114 189.318 711.114 190.068L710.457 198.797C710.363 199.548 709.706 200.205 708.862 200.111C708.018 200.017 707.454 199.36 707.454 198.609L708.111 189.881C708.205 189.037 708.862 188.474 709.706 188.567ZM708.862 199.923C709.519 199.923 710.176 199.454 710.176 198.797L710.833 190.068C710.833 189.412 710.363 188.849 709.612 188.755C708.956 188.755 708.299 189.224 708.299 189.882L707.642 198.609C707.642 199.266 708.205 199.83 708.863 199.923H708.862Z" fill="white"/>
<path d="M702.668 176.461C703.419 176.648 703.888 177.305 703.794 178.056L699.946 197.295C699.758 198.046 699.101 198.516 698.351 198.327C697.6 198.14 697.131 197.483 697.225 196.732L701.073 177.493C701.167 176.836 701.917 176.367 702.668 176.461Z" fill="#F3F3F3"/>
<path d="M702.669 176.367C703.512 176.554 703.982 177.306 703.888 178.056L700.04 197.295C699.852 198.046 699.102 198.609 698.258 198.421C697.413 198.233 696.943 197.482 697.037 196.732L700.885 177.493C701.073 176.742 701.824 176.273 702.668 176.367L702.669 176.367ZM698.258 198.233C698.915 198.327 699.572 197.952 699.759 197.295L703.606 178.056C703.7 177.399 703.325 176.742 702.575 176.554C701.918 176.461 701.261 176.836 701.073 177.494L697.225 196.732C697.131 197.482 697.6 198.046 698.258 198.233V198.233Z" fill="white"/>
<path d="M691.406 184.907C692.157 185.095 692.626 185.846 692.438 186.597L690.092 195.043C689.905 195.794 689.154 196.169 688.404 195.982C688.225 195.939 688.056 195.861 687.907 195.753C687.759 195.645 687.633 195.508 687.537 195.351C687.441 195.194 687.377 195.02 687.348 194.838C687.32 194.657 687.328 194.471 687.371 194.292L689.717 185.846C689.905 185.095 690.656 184.72 691.407 184.907H691.406Z" fill="#F3F3F3"/>
<path d="M691.406 184.814C692.158 185.001 692.721 185.846 692.439 186.597L690.092 195.043C689.905 195.794 689.061 196.264 688.31 196.075C687.559 195.888 686.996 195.043 687.277 194.292L689.623 185.846C689.811 185.095 690.562 184.625 691.406 184.813V184.814ZM688.31 195.794C688.967 195.982 689.717 195.606 689.905 194.949L692.251 186.503C692.439 185.846 692.064 185.189 691.313 185.001C690.656 184.813 689.905 185.189 689.717 185.846L687.371 194.292C687.277 194.949 687.652 195.606 688.31 195.794Z" fill="white"/>
<path d="M686.808 171.675C687.559 171.956 687.84 172.801 687.559 173.457L680.051 191.57C679.77 192.228 678.924 192.603 678.268 192.228C677.611 191.852 677.235 191.101 677.517 190.444L685.024 172.332C685.305 171.675 686.151 171.299 686.807 171.675H686.808Z" fill="#F3F3F3"/>
<path d="M686.808 171.581C687.169 171.718 687.46 171.993 687.619 172.345C687.777 172.697 687.789 173.097 687.653 173.458L680.145 191.57C679.863 192.321 679.019 192.603 678.174 192.321C677.813 192.183 677.522 191.909 677.364 191.557C677.206 191.205 677.193 190.805 677.329 190.444L684.837 172.332C685.213 171.581 686.057 171.206 686.808 171.581V171.581ZM678.268 192.134C678.925 192.415 679.675 192.134 679.957 191.477L687.465 173.364C687.746 172.708 687.371 172.05 686.714 171.769C686.057 171.488 685.307 171.769 685.025 172.426L677.517 190.538C677.329 191.101 677.611 191.852 678.268 192.134Z" fill="white"/>
<path d="M674.139 177.681C674.795 178.056 675.076 178.807 674.795 179.464L670.854 187.253C670.478 187.91 669.727 188.192 668.976 187.816C668.319 187.441 668.038 186.691 668.319 186.034L672.262 178.245C672.637 177.587 673.388 177.305 674.139 177.681Z" fill="#F3F3F3"/>
<path d="M674.139 177.587C674.889 177.962 675.17 178.808 674.795 179.558L670.854 187.347C670.478 188.098 669.633 188.38 668.883 188.004C668.132 187.629 667.85 186.784 668.226 186.034L672.167 178.245C672.543 177.493 673.388 177.212 674.139 177.587ZM668.977 187.817C669.634 188.098 670.385 187.91 670.666 187.253L674.607 179.465C674.888 178.901 674.607 178.15 674.045 177.775C673.388 177.494 672.637 177.681 672.355 178.338L668.413 186.127C668.132 186.691 668.413 187.441 668.977 187.816V187.817Z" fill="white"/>
<path d="M672.261 163.792C672.918 164.261 673.106 165.106 672.637 165.669L661.75 181.905C661.376 182.561 660.53 182.655 659.874 182.28C659.217 181.81 659.029 180.966 659.498 180.402L670.385 164.166C670.76 163.51 671.605 163.322 672.261 163.791V163.792Z" fill="#F3F3F3"/>
<path d="M672.261 163.697C672.918 164.167 673.106 165.106 672.73 165.763L661.844 181.999C661.375 182.655 660.531 182.843 659.78 182.374C659.123 181.904 658.935 180.966 659.31 180.308L670.197 164.073C670.666 163.416 671.604 163.228 672.261 163.697V163.697ZM659.874 182.186C660.436 182.561 661.281 182.467 661.656 181.905L672.543 165.669C672.918 165.106 672.731 164.355 672.167 163.979C671.604 163.604 670.76 163.698 670.385 164.26L659.498 180.402C659.123 180.966 659.31 181.81 659.874 182.185V182.186Z" fill="white"/>
<path d="M658.559 167.264C659.123 167.733 659.31 168.578 658.841 169.141L653.398 175.992C652.929 176.554 652.084 176.648 651.521 176.18C650.959 175.711 650.771 174.866 651.24 174.302L656.683 167.451C657.152 166.889 657.997 166.794 658.559 167.264Z" fill="#F3F3F3"/>
<path d="M658.653 167.17C659.31 167.639 659.404 168.578 658.934 169.235L653.492 176.086C653.023 176.742 652.084 176.836 651.427 176.274C650.77 175.804 650.676 174.866 651.146 174.208L656.589 167.358C657.058 166.7 657.996 166.607 658.653 167.17ZM651.615 176.086C652.177 176.555 652.929 176.462 653.398 175.898L658.841 169.047C659.217 168.485 659.122 167.733 658.56 167.264C657.996 166.794 657.246 166.888 656.777 167.452L651.333 174.302C650.958 174.866 651.052 175.71 651.614 176.086H651.615Z" fill="white"/>
<path d="M659.498 153.187C660.061 153.749 660.061 154.595 659.498 155.064L645.609 168.859C645.045 169.423 644.201 169.329 643.731 168.859C643.263 168.39 643.169 167.451 643.731 166.982L657.526 153.187C658.09 152.623 658.935 152.623 659.498 153.187V153.187Z" fill="#F3F3F3"/>
<path d="M659.592 153.093C659.862 153.369 660.014 153.739 660.014 154.125C660.014 154.511 659.862 154.881 659.592 155.157L645.702 168.954C645.427 169.224 645.056 169.375 644.67 169.375C644.284 169.375 643.914 169.224 643.639 168.954C643.368 168.678 643.216 168.307 643.216 167.921C643.216 167.535 643.368 167.164 643.639 166.888L657.528 153.093C657.803 152.823 658.174 152.671 658.56 152.671C658.946 152.671 659.317 152.823 659.592 153.093V153.093ZM643.732 168.859C644.201 169.328 645.045 169.328 645.514 168.859L659.404 155.063C659.874 154.594 659.874 153.749 659.404 153.28C658.935 152.81 658.09 152.81 657.622 153.28L643.732 167.075C643.263 167.544 643.263 168.296 643.732 168.858V168.859Z" fill="white"/>
<path d="M645.421 153.938C645.89 154.5 645.89 155.346 645.327 155.814L638.664 161.446C638.101 161.915 637.256 161.821 636.787 161.258C636.318 160.694 636.318 159.85 636.88 159.38L643.544 153.75C644.107 153.28 644.951 153.374 645.421 153.938Z" fill="#F3F3F3"/>
<path d="M645.515 153.843C646.078 154.501 645.984 155.439 645.421 155.908L638.758 161.539C638.195 162.103 637.257 162.009 636.694 161.352C636.13 160.694 636.224 159.756 636.787 159.286L643.451 153.656C644.013 153.093 644.952 153.187 645.514 153.844L645.515 153.843ZM636.881 161.258C637.351 161.821 638.101 161.821 638.663 161.446L645.327 155.814C645.796 155.346 645.89 154.594 645.421 154.032C644.951 153.468 644.201 153.468 643.639 153.844L636.975 159.474C636.412 159.943 636.412 160.695 636.881 161.257V161.258Z" fill="white"/>
<path d="M649.175 140.423C649.644 141.081 649.456 141.925 648.799 142.3L632.47 153.187C631.813 153.562 630.968 153.374 630.594 152.811C630.124 152.155 630.312 151.31 630.968 150.934L647.299 140.048C647.863 139.673 648.706 139.86 649.176 140.423H649.175Z" fill="#F3F3F3"/>
<path d="M649.269 140.423C649.738 141.081 649.55 142.019 648.893 142.488L632.564 153.374C631.907 153.844 630.968 153.655 630.5 152.905C630.03 152.249 630.219 151.31 630.874 150.841L647.205 139.954C647.861 139.485 648.799 139.673 649.268 140.423H649.269ZM630.687 152.717C631.062 153.28 631.813 153.468 632.376 153.093L648.705 142.206C649.269 141.832 649.456 141.081 648.987 140.424C648.612 139.86 647.861 139.673 647.298 140.048L630.968 150.935C630.406 151.404 630.312 152.155 630.687 152.717V152.717Z" fill="white"/>
<path d="M635.191 138.453C635.567 139.109 635.379 139.954 634.722 140.33L627.12 144.647C626.464 145.022 625.619 144.741 625.244 144.084C624.868 143.427 625.056 142.582 625.713 142.206L633.315 137.89C633.971 137.514 634.816 137.796 635.192 138.453H635.191Z" fill="#F3F3F3"/>
<path d="M635.286 138.359C635.661 139.109 635.473 139.954 634.816 140.33L627.214 144.647C626.557 145.022 625.619 144.741 625.244 144.084C624.868 143.333 625.056 142.488 625.713 142.112L633.315 137.796C633.971 137.42 634.91 137.702 635.285 138.359H635.286ZM625.337 143.99C625.713 144.647 626.464 144.835 627.026 144.459L634.628 140.142C635.191 139.766 635.379 139.015 635.098 138.453C634.722 137.796 633.971 137.608 633.408 137.984L625.807 142.3C625.244 142.581 625.056 143.333 625.338 143.99H625.337Z" fill="white"/>
<path d="M641.479 125.971C641.76 126.722 641.479 127.473 640.729 127.754L622.616 135.261C621.959 135.543 621.114 135.168 620.833 134.511C620.551 133.76 620.833 133.009 621.584 132.728L639.697 125.22C640.354 124.939 641.198 125.22 641.479 125.971V125.971Z" fill="#F3F3F3"/>
<path d="M641.573 125.877C641.854 126.628 641.573 127.473 640.823 127.848L622.71 135.355C622.349 135.491 621.949 135.479 621.597 135.321C621.245 135.162 620.971 134.871 620.833 134.511C620.551 133.76 620.833 132.915 621.584 132.54L639.697 125.032C640.058 124.896 640.458 124.909 640.81 125.067C641.161 125.226 641.436 125.517 641.573 125.877V125.877ZM621.02 134.417C621.302 135.074 622.053 135.356 622.616 135.167L640.729 127.66C641.385 127.379 641.667 126.628 641.385 125.971C641.104 125.314 640.354 125.032 639.79 125.22L621.677 132.728C621.02 133.009 620.739 133.76 621.02 134.418V134.417Z" fill="white"/>
<path d="M628.247 121.279C628.528 122.029 628.153 122.78 627.403 123.061L619.144 125.783C618.487 126.064 617.642 125.595 617.455 124.938C617.174 124.188 617.549 123.437 618.299 123.156L626.558 120.434C627.215 120.153 627.965 120.528 628.247 121.279Z" fill="#F3F3F3"/>
<path d="M628.34 121.185C628.622 121.935 628.247 122.78 627.403 123.062L619.144 125.783C618.393 126.064 617.548 125.595 617.266 124.845C616.986 124.094 617.36 123.249 618.206 122.968L626.464 120.246C627.215 120.059 628.059 120.434 628.341 121.186L628.34 121.185ZM617.455 124.752C617.643 125.408 618.394 125.784 619.051 125.596L627.31 122.874C627.966 122.687 628.248 121.936 628.06 121.28C627.872 120.623 627.122 120.247 626.465 120.435L618.206 123.157C617.549 123.438 617.267 124.095 617.455 124.752Z" fill="white"/>
<path d="M636.694 110.111C636.881 110.862 636.412 111.612 635.661 111.706L616.422 115.46C615.671 115.648 615.014 115.084 614.827 114.334C614.639 113.583 615.108 112.832 615.859 112.738L635.098 108.984C635.849 108.891 636.6 109.36 636.693 110.111H636.694Z" fill="#F3F3F3"/>
<path d="M636.881 110.111C637.069 110.956 636.506 111.706 635.755 111.893L616.516 115.647C615.765 115.835 615.014 115.272 614.827 114.428C614.639 113.583 615.202 112.832 615.953 112.645L635.192 108.891C635.942 108.703 636.694 109.266 636.881 110.111ZM615.014 114.335C615.108 114.99 615.765 115.46 616.422 115.366L635.661 111.612C636.318 111.518 636.787 110.768 636.6 110.111C636.506 109.454 635.849 108.984 635.191 109.078L615.953 112.832C615.296 113.02 614.827 113.677 615.014 114.334V114.335Z" fill="white"/>
<path d="M624.681 102.885C624.774 103.635 624.305 104.293 623.555 104.387L614.921 105.418C614.169 105.512 613.513 104.949 613.42 104.198C613.326 103.448 613.795 102.791 614.545 102.696L623.18 101.664C623.837 101.57 624.587 102.133 624.681 102.885Z" fill="#F3F3F3"/>
<path d="M624.775 102.885C624.868 103.729 624.306 104.479 623.555 104.573L614.921 105.606C614.169 105.7 613.42 105.137 613.326 104.292C613.232 103.448 613.795 102.697 614.545 102.603L623.18 101.57C623.93 101.476 624.681 102.04 624.774 102.884L624.775 102.885ZM613.419 104.198C613.513 104.855 614.17 105.419 614.827 105.324L623.461 104.292C624.118 104.198 624.587 103.542 624.493 102.885C624.399 102.227 623.743 101.664 623.086 101.758L614.451 102.791C613.795 102.885 613.326 103.542 613.419 104.198V104.198Z" fill="white"/>
<path d="M635.191 93.7806C635.191 94.5324 634.629 95.1892 633.878 95.1892H614.264C613.514 95.1892 612.951 94.5324 612.951 93.7816C612.951 93.0308 613.514 92.373 614.264 92.373H633.879C634.629 92.373 635.193 93.0308 635.193 93.7816L635.191 93.7806Z" fill="#F3F3F3"/>
<path d="M635.286 93.7806C635.286 94.6263 634.628 95.2822 633.877 95.2822H614.264C613.513 95.2822 612.856 94.6254 612.856 93.7806C612.856 92.9368 613.513 92.2791 614.264 92.2791H633.878C634.629 92.2791 635.286 92.9368 635.286 93.7806ZM613.043 93.6876C613.043 94.3444 613.606 95.0012 614.264 95.0012H633.877C634.534 95.0012 635.098 94.4384 635.098 93.6876C635.098 93.0308 634.534 92.373 633.877 92.373H614.264C613.607 92.467 613.044 93.0308 613.044 93.6876H613.043Z" fill="white"/>
<path d="M624.775 84.3023C624.68 85.0531 624.117 85.6159 623.366 85.6159L614.638 84.9591C613.888 84.8651 613.325 84.2083 613.418 83.4575C613.512 82.7068 614.076 82.1439 614.827 82.1439L623.554 82.8007C624.211 82.8947 624.775 83.5515 624.775 84.3023Z" fill="#E2E2E2"/>
<path d="M624.868 84.3024C624.774 85.1471 624.117 85.71 623.366 85.71L614.638 85.0532C613.888 84.9592 613.231 84.3024 613.325 83.4576C613.418 82.6139 614.076 82.05 614.827 82.05L623.554 82.7069C624.305 82.8008 624.868 83.5516 624.868 84.3024ZM613.418 83.4576C613.325 84.1145 613.888 84.7722 614.545 84.7722L623.273 85.4291C623.929 85.4291 624.493 84.9592 624.587 84.2084C624.681 83.5516 624.117 82.8948 623.46 82.8948L614.732 82.238C614.076 82.238 613.512 82.8008 613.418 83.4586V83.4576Z" fill="white"/>
<path d="M636.881 77.4514C636.693 78.2022 636.036 78.672 635.285 78.578L616.047 74.6362C615.296 74.4483 614.826 73.7914 615.014 73.0407C615.202 72.2899 615.859 71.82 616.61 71.915L635.849 75.7629C636.506 75.9498 636.975 76.7006 636.881 77.4514V77.4514Z" fill="#F3F3F3"/>
<path d="M636.975 77.4513C636.787 78.2961 636.036 78.7659 635.285 78.672L616.047 74.8241C615.296 74.6361 614.733 73.8854 614.921 73.0416C615.108 72.1959 615.859 71.727 616.61 71.821L635.849 75.6688C636.6 75.8568 637.069 76.6076 636.975 77.4513V77.4513ZM615.108 73.0406C615.014 73.6974 615.389 74.3542 616.047 74.5422L635.286 78.3901C635.943 78.484 636.6 78.1091 636.788 77.3574C636.881 76.7006 636.506 76.0437 635.848 75.8558L616.611 72.0089C615.86 71.9149 615.297 72.3838 615.109 73.0406H615.108Z" fill="white"/>
<path d="M628.435 66.1905C628.392 66.3693 628.314 66.5378 628.206 66.6864C628.098 66.835 627.961 66.9608 627.804 67.0566C627.648 67.1525 627.473 67.2164 627.292 67.2448C627.11 67.2732 626.924 67.2656 626.746 67.2223L618.299 64.876C617.548 64.688 617.174 63.9372 617.361 63.1864C617.404 63.0077 617.482 62.8392 617.59 62.6906C617.698 62.542 617.835 62.4162 617.991 62.3204C618.148 62.2245 618.323 62.1606 618.504 62.1322C618.686 62.1037 618.871 62.1114 619.05 62.1547L627.497 64.501C628.247 64.688 628.622 65.4388 628.435 66.1896V66.1905Z" fill="#F3F3F3"/>
<path d="M628.528 66.1905C628.341 66.9404 627.497 67.5042 626.746 67.2223L618.299 64.8759C617.548 64.688 617.079 63.8433 617.267 63.0935C617.454 62.3417 618.299 61.7789 619.05 62.0608L627.497 64.4071C628.247 64.595 628.717 65.3458 628.528 66.1896V66.1905ZM617.548 63.0915C617.361 63.7493 617.736 64.5001 618.393 64.687L626.84 67.0334C627.497 67.2213 628.153 66.8454 628.341 66.0946C628.528 65.4378 628.153 64.687 627.497 64.5001L619.05 62.1538C618.393 62.0598 617.736 62.4347 617.548 63.0925V63.0915Z" fill="white"/>
<path d="M641.667 61.6859C641.386 62.4357 640.54 62.7176 639.885 62.4357L621.771 54.9279C621.114 54.6469 620.739 53.8022 621.02 53.1454C621.302 52.3946 622.147 52.1127 622.804 52.3946L640.916 59.9024C641.667 60.1834 641.949 61.0281 641.667 61.6849V61.6859Z" fill="#F3F3F3"/>
<path d="M641.761 61.7789C641.624 62.1395 641.349 62.4309 640.997 62.5893C640.645 62.7476 640.245 62.76 639.884 62.6237L621.771 55.1159C621.02 54.8349 620.739 53.9902 621.02 53.1454C621.158 52.7848 621.433 52.4934 621.785 52.3351C622.136 52.1767 622.537 52.1643 622.898 52.3007L641.011 59.8085C641.761 60.1834 642.042 61.0291 641.761 61.7789V61.7789ZM621.208 53.2394C620.927 53.8962 621.208 54.647 621.865 54.9279L639.978 62.4357C640.635 62.7176 641.292 62.3418 641.573 61.685C641.854 61.0281 641.573 60.2774 640.917 59.9964L622.804 52.4886C622.147 52.3007 621.396 52.5826 621.208 53.2394V53.2394Z" fill="white"/>
<path d="M635.567 49.0157C635.192 49.6725 634.441 49.9544 633.785 49.6725L625.995 45.7316C625.338 45.4497 625.056 44.605 625.432 43.8542C625.807 43.1974 626.558 42.9155 627.215 43.1974L635.003 47.1392C635.661 47.5141 635.943 48.3598 635.567 49.0157Z" fill="#F3F3F3"/>
<path d="M635.661 49.1096C635.285 49.8603 634.44 50.1423 633.689 49.7664L625.901 45.8245C625.15 45.4496 624.868 44.6049 625.244 43.8541C625.619 43.1033 626.465 42.8214 627.214 43.1973L635.003 47.1391C635.755 47.4201 636.036 48.3598 635.661 49.1096V49.1096ZM625.525 43.9481C625.244 44.6049 625.432 45.3557 626.089 45.6376L633.877 49.5794C634.441 49.8603 635.192 49.5794 635.567 49.0156C635.848 48.3588 635.661 47.608 635.004 47.3261L627.119 43.3862C626.557 43.1053 625.806 43.2922 625.524 43.949L625.525 43.9481Z" fill="white"/>
<path d="M649.362 47.2321C648.893 47.8899 648.142 48.0778 647.486 47.608L631.249 36.8161C630.594 36.4402 630.5 35.5955 630.874 34.9387C631.25 34.2819 632.095 34.0939 632.752 34.5628L649.081 45.4496C649.644 45.8255 649.832 46.6702 649.362 47.2321Z" fill="#F3F3F3"/>
<path d="M649.456 47.3262C648.987 47.9839 648.048 48.1709 647.392 47.796L631.156 36.9092C630.499 36.4403 630.311 35.5956 630.78 34.8457C631.25 34.188 632.189 34 632.846 34.3759L649.081 45.2617C649.832 45.7316 649.926 46.6693 649.456 47.3262ZM630.968 34.9387C630.593 35.5016 630.687 36.3463 631.249 36.7212L647.579 47.609C648.142 47.9849 648.893 47.797 649.269 47.2341C649.644 46.6703 649.55 45.8256 648.988 45.4506L632.657 34.5638C632.094 34.188 631.343 34.3759 630.967 34.9387H630.968Z" fill="white"/>
<path d="M645.89 33.6251C645.421 34.1879 644.576 34.3758 644.013 33.906L637.162 28.5575C636.6 28.0877 636.506 27.2429 636.974 26.6801C637.443 26.1173 638.288 25.9293 638.852 26.3992L645.702 31.7476C646.266 32.2175 646.36 33.0613 645.89 33.6251V33.6251Z" fill="#F3F3F3"/>
<path d="M645.984 33.7181C645.515 34.3759 644.577 34.4699 643.92 34L637.069 28.6516C636.412 28.1827 636.318 27.244 636.788 26.5881C637.257 25.9304 638.195 25.8364 638.851 26.3062L645.702 31.6547C646.36 32.1245 646.454 33.0623 645.984 33.7201V33.7181ZM636.975 26.6802C636.506 27.243 636.6 27.9938 637.163 28.4627L644.014 33.8131C644.577 34.188 645.327 34.094 645.796 33.5312C646.266 32.9683 646.172 32.2175 645.609 31.7487L638.758 26.3983C638.195 26.0233 637.444 26.1173 636.976 26.6802H636.975Z" fill="white"/>
<path d="M659.873 34.5628C659.311 35.1267 658.465 35.1267 657.996 34.5628L644.015 20.7678C643.452 20.205 643.545 19.3602 644.015 18.8904C644.577 18.3285 645.422 18.3285 645.891 18.8904L659.781 32.6864C660.344 33.1552 660.344 34.094 659.875 34.5638L659.873 34.5628Z" fill="#F3F3F3"/>
<path d="M659.873 34.6578C659.597 34.9282 659.227 35.0797 658.841 35.0797C658.455 35.0797 658.085 34.9282 657.809 34.6578L643.918 20.8609C643.647 20.5855 643.496 20.2146 643.496 19.8282C643.496 19.4418 643.647 19.0709 643.918 18.7955C644.194 18.5248 644.564 18.3732 644.951 18.3732C645.337 18.3732 645.707 18.5248 645.983 18.7955L659.873 32.5915C660.53 33.1543 660.53 34.0931 659.873 34.6559V34.6578ZM644.108 18.9835C643.638 19.4533 643.638 20.2981 644.108 20.766L657.997 34.5619C658.467 35.0318 659.311 35.0318 659.78 34.5619C660.25 34.0931 660.25 33.2483 659.78 32.7794L645.891 18.8905C645.422 18.4216 644.67 18.4216 644.108 18.9844V18.9835Z" fill="white"/>
<path d="M659.029 20.5799C658.466 21.0498 657.622 21.0498 657.152 20.486L651.427 13.9169C650.959 13.354 651.052 12.5093 651.615 12.0404C652.177 11.5706 653.023 11.5706 653.492 12.1334L659.217 18.7035C659.686 19.1723 659.592 20.0171 659.029 20.5799Z" fill="#F3F3F3"/>
<path d="M659.123 20.5799C658.466 21.1427 657.622 21.0497 657.058 20.4859L651.333 13.9168C650.771 13.354 650.864 12.4153 651.521 11.8524C652.178 11.2886 653.023 11.3826 653.586 11.9464L659.311 18.5145C659.78 19.1723 659.78 20.111 659.123 20.5799V20.5799ZM651.615 12.0404C651.051 12.5092 651.051 13.26 651.427 13.8229L657.153 20.392C657.622 20.8618 658.372 20.9558 658.935 20.4859C659.498 20.0171 659.498 19.2653 659.123 18.7034L653.398 12.1334C652.929 11.5715 652.177 11.5715 651.615 12.0404V12.0404Z" fill="white"/>
<path d="M672.543 24.1469C671.886 24.6157 671.042 24.4278 670.666 23.771L659.686 7.53473C659.31 6.87792 659.498 6.03317 660.061 5.65826C660.718 5.18939 661.562 5.37732 661.938 6.03414L672.824 22.2694C673.294 22.9262 673.106 23.771 672.543 24.1459V24.1469Z" fill="#F3F3F3"/>
<path d="M672.543 24.2398C671.886 24.7097 670.948 24.5208 670.478 23.8649L659.592 7.62868C659.123 6.97187 659.311 6.03412 660.061 5.56525C660.718 5.0954 661.656 5.28334 662.126 5.94015L673.012 22.1754C673.481 22.9262 673.293 23.771 672.543 24.2398ZM660.154 5.75221C659.591 6.12712 659.403 6.8779 659.779 7.44171L670.665 23.677C671.041 24.2398 671.791 24.3338 672.447 23.9579C673.011 23.583 673.199 22.8322 672.823 22.2694L661.938 6.12712C661.562 5.56525 660.718 5.37634 660.156 5.75221H660.154Z" fill="white"/>
<path d="M674.513 10.2569C673.857 10.6318 673.012 10.4448 672.637 9.78803L668.319 2.18625C667.944 1.52944 668.225 0.684692 668.883 0.308817C669.54 -0.0660894 670.385 0.12088 670.76 0.778661L675.076 8.37947C675.358 9.03628 675.17 9.88103 674.514 10.2569H674.513Z" fill="#F3F3F3"/>
<path d="M674.514 10.3509C673.763 10.7258 672.918 10.5388 672.543 9.88104L668.225 2.28022C667.85 1.62244 668.038 0.684692 668.789 0.308817C669.54 -0.0660894 670.385 0.12088 670.76 0.778661L675.076 8.37947C675.452 9.03628 675.264 9.88103 674.514 10.3509H674.514ZM668.883 0.402786C668.319 0.777692 668.038 1.52847 668.413 2.09229L672.731 9.69407C673.106 10.2559 673.857 10.4448 674.42 10.1629C674.983 9.78803 675.264 9.03628 674.889 8.47344L670.572 0.87166C670.291 0.309785 669.446 0.0269107 668.883 0.402786V0.402786Z" fill="white"/>
<path d="M686.995 16.4511C686.245 16.7321 685.494 16.4511 685.213 15.7943L677.611 -2.31938C677.33 -2.97619 677.705 -3.82094 678.362 -4.10285C679.112 -4.38379 679.863 -4.10285 680.144 -3.44604L687.746 14.6667C688.028 15.3235 687.653 16.1682 686.995 16.4492V16.4511Z" fill="#F3F3F3"/>
<path d="M686.995 16.545C686.245 16.826 685.4 16.545 685.024 15.7933L677.423 -2.31846C677.286 -2.67949 677.299 -3.07983 677.457 -3.43176C677.615 -3.78368 677.907 -4.05847 678.267 -4.1959C679.018 -4.47684 679.863 -4.1959 680.239 -3.44512L687.84 14.6676C688.121 15.3244 687.747 16.1692 686.996 16.545H686.995ZM678.455 -4.00796C677.798 -3.72702 677.517 -2.97527 677.798 -2.41243L685.399 15.6993C685.68 16.3561 686.431 16.6371 687.088 16.3561C687.745 16.0752 688.028 15.3234 687.745 14.7606L680.144 -3.35212C679.768 -4.00893 679.111 -4.29084 678.454 -4.00893L678.455 -4.00796Z" fill="white"/>
<path d="M691.594 3.12499C690.843 3.40593 690.092 3.03005 689.811 2.28024L687.089 -5.97932C686.808 -6.63614 687.277 -7.48089 687.934 -7.66785C688.591 -7.85579 689.435 -7.57389 689.716 -6.8231L692.438 1.43549C692.719 2.0923 692.344 2.84308 691.594 3.12402V3.12499Z" fill="#F3F3F3"/>
<path d="M691.688 3.21791C691.327 3.35394 690.927 3.34142 690.575 3.18309C690.223 3.02476 689.949 2.73353 689.811 2.37316L687.089 -5.88543C686.808 -6.63622 687.277 -7.48 688.029 -7.7619C688.39 -7.89793 688.79 -7.88541 689.142 -7.72708C689.493 -7.56876 689.768 -7.27753 689.905 -6.91715L692.627 1.34144C692.814 2.09222 692.439 2.93697 691.688 3.21791V3.21791ZM688.028 -7.57397C687.371 -7.387 686.995 -6.63622 687.183 -5.9794L689.905 2.28016C690.092 2.93697 690.843 3.21791 691.501 3.02997C692.158 2.843 692.533 2.09222 692.345 1.43541L689.623 -6.82415C689.576 -6.98347 689.495 -7.13092 689.386 -7.25692C689.278 -7.38292 689.144 -7.48464 688.993 -7.55546C688.843 -7.62628 688.679 -7.66462 688.513 -7.66798C688.346 -7.67133 688.181 -7.63963 688.028 -7.57494V-7.57397Z" fill="white"/>
<path d="M702.669 11.6645C701.918 11.8524 701.167 11.3835 701.073 10.6318L697.131 -8.60662C696.943 -9.3574 697.507 -10.0142 698.257 -10.2022C699.009 -10.3901 699.758 -9.92122 699.852 -9.16947L703.795 10.0699C703.888 10.7258 703.419 11.4765 702.669 11.6645V11.6645Z" fill="#F3F3F3"/>
<path d="M702.668 11.7585C701.824 11.9464 701.073 11.3826 700.885 10.6318L696.943 -8.60659C696.755 -9.35737 697.319 -10.2021 698.07 -10.2961C698.915 -10.484 699.665 -9.92022 699.852 -9.16944L703.795 10.0699C703.982 10.8198 703.513 11.5715 702.668 11.7585V11.7585ZM698.258 -10.1082C697.6 -10.0142 697.131 -9.35737 697.225 -8.60659L701.167 10.6328C701.261 11.2886 702.011 11.7585 702.668 11.5705C703.325 11.4766 703.794 10.8197 703.7 10.069L699.758 -9.1704C699.571 -9.82625 698.915 -10.2021 698.257 -10.1082H698.258Z" fill="white"/>
<path d="M719.936 205.084C781.304 205.084 831.052 155.336 831.052 93.9685C831.052 32.6011 781.304 -17.1471 719.936 -17.1471C658.569 -17.1471 608.821 32.6011 608.821 93.9685C608.821 155.336 658.569 205.084 719.936 205.084Z" fill="url(#paint19_linear_175_114)" fill-opacity="0.2"/>
<g filter="url(#filter1_d_175_114)">
<path d="M796.891 23.489L707.266 80.9243H707.172V81.0173L707.078 81.1112L651.146 173.364L733.357 107.202L733.451 107.109V107.015L796.892 23.49L796.891 23.489Z" fill="black" fill-opacity="0.05"/>
</g>
<path d="M795.202 18.1396L706.609 81.1113L732.887 107.201L795.202 18.1396" fill="#CD151E"/>
<path d="M706.704 80.9243L719.937 93.9686L795.202 18.1396L706.704 80.9243V80.9243Z" fill="#FA5153"/>
<path d="M706.704 80.9243L732.981 107.013L644.389 169.985L706.704 80.9233V80.9243Z" fill="#ACACAC"/>
<path d="M644.389 169.985L719.936 93.9685L706.703 80.9233L644.389 169.985Z" fill="#EEEEEE"/>
</g>
<g clip-path="url(#clip5_175_114)">
<path d="M1035.21 101.504C1035.21 81.5878 1030.06 62.8781 1021.03 46.6188C1059.52 -40.488 979.79 -27.7301 975.351 -26.8612C958.46 -23.5556 942.832 -18.2493 928.418 -11.522C926.292 -11.642 924.153 -11.708 921.999 -11.708C868.203 -11.708 823.172 25.8139 811.647 76.1143C840.001 44.3051 859.844 31.4705 871.727 26.3354C869.843 28.0209 867.983 29.7328 866.147 31.4705C865.539 32.0442 864.953 32.6268 864.354 33.2035C863.15 34.3557 861.957 35.5186 860.774 36.6921C860.075 37.3879 859.396 38.0895 858.707 38.7912C857.668 39.8448 856.636 40.906 855.612 41.9748C854.89 42.7325 854.185 43.4913 853.477 44.25C852.529 45.2613 851.589 46.2795 850.657 47.3047C849.939 48.0989 849.23 48.892 848.524 49.6882C846.93 51.4809 845.356 53.2917 843.804 55.1204C842.995 56.0759 842.191 57.0361 841.393 58.0009C840.69 58.8512 839.989 59.6994 839.302 60.5487C838.564 61.4614 837.831 62.3779 837.103 63.2983C836.398 64.186 835.695 65.0717 835.007 65.9583C834.351 66.8017 833.716 67.6421 833.075 68.4835C832.352 69.4352 831.623 70.3858 830.919 71.3315C830.415 72.0086 829.932 72.6798 829.437 73.3539C825.171 79.1732 821.085 85.1226 817.186 91.1937C817.176 91.2074 817.166 91.2212 817.159 91.236C816.205 92.7239 815.262 94.2188 814.33 95.7205C814.281 95.8003 814.23 95.8809 814.18 95.9626C813.278 97.4185 812.386 98.881 811.505 100.35L811.412 100.502C809.202 104.183 807.057 107.903 804.979 111.66C794.783 130.138 789.819 143.047 789.604 143.814C757.407 258.924 857.897 210.314 871.92 203.058C887.019 210.517 904.016 214.715 921.999 214.715C971.224 214.715 1013.11 183.293 1028.7 139.413H969.212C960.41 154.282 943.465 164.355 923.997 164.355C895.474 164.355 872.353 142.744 872.353 116.085H1034.28C1034.89 111.311 1035.21 106.444 1035.21 101.504ZM1014.06 -9.90314C1023.81 -3.32245 1031.63 7.01062 1018.2 41.8114C1005.32 21.098 985.944 4.84954 962.913 -4.08119C973.389 -9.14046 999.334 -19.8426 1014.06 -9.90314V-9.90314ZM806.877 202.826C798.936 194.683 797.532 174.849 815.055 138.708C823.897 164.132 841.543 185.435 864.351 198.955C853.008 205.199 822.895 219.256 806.877 202.826V202.826ZM872.103 85.1267C873.008 59.2163 895.558 38.4704 923.263 38.4704C950.969 38.4704 973.519 59.2163 974.425 85.1267H872.103Z" fill="#1EBBEE"/>
</g>
<circle cx="1009" cy="174" r="23.5" fill="#E25858" stroke="#AC2626" stroke-width="5"/>
<path d="M1017 167.611L1015.39 166L1009 172.389L1002.61 166L1001 167.611L1007.39 174L1001 180.389L1002.61 182L1009 175.611L1015.39 182L1017 180.389L1010.61 174L1017 167.611Z" fill="#E4C1C1"/>
<circle cx="1009" cy="174" r="23.5" fill="#81B354" stroke="#446525" stroke-width="5"/>
<path d="M1005 179.56L999.44 174L997.547 175.88L1005 183.333L1021 167.333L1019.12 165.453L1005 179.56Z" fill="#C0EA9B"/>
<circle cx="261" cy="174" r="23.5" fill="#7BAA50" stroke="#446525" stroke-width="5"/>
<path d="M257 179.56L251.44 174L249.547 175.88L257 183.333L273 167.333L271.12 165.453L257 179.56Z" fill="#C0EA9B"/>
<circle cx="441" cy="174" r="23.5" fill="#81B354" stroke="#446525" stroke-width="5"/>
<path d="M437 179.56L431.44 174L429.547 175.88L437 183.333L453 167.333L451.12 165.453L437 179.56Z" fill="#C0EA9B"/>
<circle cx="813" cy="174" r="23.5" fill="#81B354" stroke="#446525" stroke-width="5"/>
<path d="M809 179.56L803.44 174L801.547 175.88L809 183.333L825 167.333L823.12 165.453L809 179.56Z" fill="#C0EA9B"/>
<circle cx="629" cy="174" r="23.5" fill="#81B354" stroke="#446525" stroke-width="5"/>
<path d="M625 179.56L619.44 174L617.547 175.88L625 183.333L641 167.333L639.12 165.453L625 179.56Z" fill="#C0EA9B"/>
</g>
<defs>
<filter id="filter0_d_175_114" x="560.091" y="-45.5938" width="318.375" height="318.375" filterUnits="userSpaceOnUse" color-interpolation-filters="sRGB">
<feFlood flood-opacity="0" result="BackgroundImageFix"/>
<feColorMatrix in="SourceAlpha" type="matrix" values="0 0 0 0 0 0 0 0 0 0 0 0 0 0 0 0 0 0 127 0" result="hardAlpha"/>
<feOffset dy="19.5312"/>
<feGaussianBlur stdDeviation="19.5312"/>
<feColorMatrix type="matrix" values="0 0 0 0 0 0 0 0 0 0 0 0 0 0 0 0 0 0 0.266007 0"/>
<feBlend mode="normal" in2="BackgroundImageFix" result="effect1_dropShadow_175_114"/>
<feBlend mode="normal" in="SourceGraphic" in2="effect1_dropShadow_175_114" result="shape"/>
</filter>
<filter id="filter1_d_175_114" x="612.084" y="-5.80786" width="223.871" height="228" filterUnits="userSpaceOnUse" color-interpolation-filters="sRGB">
<feFlood flood-opacity="0" result="BackgroundImageFix"/>
<feColorMatrix in="SourceAlpha" type="matrix" values="0 0 0 0 0 0 0 0 0 0 0 0 0 0 0 0 0 0 127 0" result="hardAlpha"/>
<feOffset dy="9.76562"/>
<feGaussianBlur stdDeviation="19.5312"/>
<feColorMatrix type="matrix" values="0 0 0 0 0 0 0 0 0 0 0 0 0 0 0 0 0 0 1 0"/>
<feBlend mode="normal" in2="BackgroundImageFix" result="effect1_dropShadow_175_114"/>
<feBlend mode="normal" in="SourceGraphic" in2="effect1_dropShadow_175_114" result="shape"/>
</filter>
<linearGradient id="paint0_linear_175_114" x1="162.873" y1="51.5356" x2="162.873" y2="139.916" gradientUnits="userSpaceOnUse">
<stop stop-color="#A2C0E6"/>
<stop offset="1" stop-color="#406CB1"/>
</linearGradient>
<radialGradient id="paint1_radial_175_114" cx="0" cy="0" r="1" gradientUnits="userSpaceOnUse" gradientTransform="translate(455.933 34.0121) rotate(2.55486) scale(86.6728 127.397)">
<stop offset="0.045" stop-color="#FFEA00"/>
<stop offset="0.12" stop-color="#FFDE00"/>
<stop offset="0.254" stop-color="#FFBF00"/>
<stop offset="0.429" stop-color="#FF8E00"/>
<stop offset="0.769" stop-color="#FF272D"/>
<stop offset="0.872" stop-color="#E0255A"/>
<stop offset="0.953" stop-color="#CC2477"/>
<stop offset="1" stop-color="#C42482"/>
</radialGradient>
<radialGradient id="paint2_radial_175_114" cx="0" cy="0" r="1" gradientUnits="userSpaceOnUse" gradientTransform="translate(394.125 20.6704) scale(244.281 244.281)">
<stop stop-color="#00CCDA"/>
<stop offset="0.22" stop-color="#0083FF"/>
<stop offset="0.261" stop-color="#007AF9"/>
<stop offset="0.33" stop-color="#0060E8"/>
<stop offset="0.333" stop-color="#005FE7"/>
<stop offset="0.438" stop-color="#2639AD"/>
<stop offset="0.522" stop-color="#401E84"/>
<stop offset="0.566" stop-color="#4A1475"/>
</radialGradient>
<linearGradient id="paint3_linear_175_114" x1="363.26" y1="155.774" x2="315.012" y2="-2.05424" gradientUnits="userSpaceOnUse">
<stop stop-color="#000F43" stop-opacity="0.4"/>
<stop offset="0.485" stop-color="#001962" stop-opacity="0.173"/>
<stop offset="1" stop-color="#002079" stop-opacity="0"/>
</linearGradient>
<radialGradient id="paint4_radial_175_114" cx="0" cy="0" r="1" gradientUnits="userSpaceOnUse" gradientTransform="translate(430.692 99.4895) rotate(5.66973) scale(82.3957 82.3957)">
<stop offset="0.003" stop-color="#FFEA00"/>
<stop offset="0.497" stop-color="#FF272D"/>
<stop offset="1" stop-color="#C42482"/>
</radialGradient>
<radialGradient id="paint5_radial_175_114" cx="0" cy="0" r="1" gradientUnits="userSpaceOnUse" gradientTransform="translate(431.079 20.1322) rotate(5.66973) scale(137.594 137.594)">
<stop offset="0.003" stop-color="#FFE900"/>
<stop offset="0.157" stop-color="#FFAF0E"/>
<stop offset="0.316" stop-color="#FF7A1B"/>
<stop offset="0.472" stop-color="#FF4E26"/>
<stop offset="0.621" stop-color="#FF2C2E"/>
<stop offset="0.762" stop-color="#FF1434"/>
<stop offset="0.892" stop-color="#FF0538"/>
<stop offset="1" stop-color="#FF0039"/>
</radialGradient>
<radialGradient id="paint6_radial_175_114" cx="0" cy="0" r="1" gradientUnits="userSpaceOnUse" gradientTransform="translate(437.844 148.978) rotate(5.66973) scale(126.258 126.258)">
<stop offset="0.003" stop-color="#FF272D"/>
<stop offset="0.497" stop-color="#C42482"/>
<stop offset="0.986" stop-color="#620700"/>
</radialGradient>
<radialGradient id="paint7_radial_175_114" cx="0" cy="0" r="1" gradientUnits="userSpaceOnUse" gradientTransform="translate(407.249 71.3052) scale(197.132 197.132)">
<stop offset="0.156" stop-color="#FFEA00"/>
<stop offset="0.231" stop-color="#FFDE00"/>
<stop offset="0.365" stop-color="#FFBF00"/>
<stop offset="0.541" stop-color="#FF8E00"/>
<stop offset="0.763" stop-color="#FF272D"/>
<stop offset="0.796" stop-color="#F92433"/>
<stop offset="0.841" stop-color="#E91C45"/>
<stop offset="0.893" stop-color="#CF0E62"/>
<stop offset="0.935" stop-color="#B5007F"/>
</radialGradient>
<radialGradient id="paint8_radial_175_114" cx="0" cy="0" r="1" gradientUnits="userSpaceOnUse" gradientTransform="translate(392.417 -27.6799) scale(232.778 232.778)">
<stop offset="0.279" stop-color="#FFEA00"/>
<stop offset="0.402" stop-color="#FFDD00"/>
<stop offset="0.63" stop-color="#FFBA00"/>
<stop offset="0.856" stop-color="#FF9100"/>
<stop offset="0.933" stop-color="#FF6711"/>
<stop offset="0.994" stop-color="#FF4A1D"/>
</radialGradient>
<linearGradient id="paint9_linear_175_114" x1="231.619" y1="69.0409" x2="321.191" y2="55.4455" gradientUnits="userSpaceOnUse">
<stop stop-color="#C42482" stop-opacity="0.5"/>
<stop offset="0.474" stop-color="#FF272D" stop-opacity="0.5"/>
<stop offset="0.486" stop-color="#FF2C2C" stop-opacity="0.513"/>
<stop offset="0.675" stop-color="#FF7A1A" stop-opacity="0.72"/>
<stop offset="0.829" stop-color="#FFB20D" stop-opacity="0.871"/>
<stop offset="0.942" stop-color="#FFD605" stop-opacity="0.964"/>
<stop offset="1" stop-color="#FFE302"/>
</linearGradient>
<linearGradient id="paint10_linear_175_114" x1="263.095" y1="36.9805" x2="252.93" y2="0.537407" gradientUnits="userSpaceOnUse">
<stop stop-color="#891551" stop-opacity="0.6"/>
<stop offset="1" stop-color="#C42482" stop-opacity="0"/>
</linearGradient>
<linearGradient id="paint11_linear_175_114" x1="282.577" y1="90.2218" x2="303.487" y2="119.394" gradientUnits="userSpaceOnUse">
<stop offset="0.005" stop-color="#891551" stop-opacity="0.5"/>
<stop offset="0.484" stop-color="#FF272D" stop-opacity="0.5"/>
<stop offset="1" stop-color="#FF272D" stop-opacity="0"/>
</linearGradient>
<linearGradient id="paint12_linear_175_114" x1="322.516" y1="141.366" x2="324.415" y2="122.615" gradientUnits="userSpaceOnUse">
<stop stop-color="#C42482"/>
<stop offset="0.083" stop-color="#C42482" stop-opacity="0.81"/>
<stop offset="0.206" stop-color="#C42482" stop-opacity="0.565"/>
<stop offset="0.328" stop-color="#C42482" stop-opacity="0.362"/>
<stop offset="0.447" stop-color="#C42482" stop-opacity="0.204"/>
<stop offset="0.562" stop-color="#C42482" stop-opacity="0.091"/>
<stop offset="0.673" stop-color="#C42482" stop-opacity="0.023"/>
<stop offset="0.773" stop-color="#C42482" stop-opacity="0"/>
</linearGradient>
<linearGradient id="paint13_linear_175_114" x1="383.392" y1="-18.9015" x2="460.426" y2="153.359" gradientUnits="userSpaceOnUse">
<stop stop-color="#FFF14F"/>
<stop offset="0.268" stop-color="#FFEE4C"/>
<stop offset="0.452" stop-color="#FFE643"/>
<stop offset="0.612" stop-color="#FFD834"/>
<stop offset="0.757" stop-color="#FFC41E"/>
<stop offset="0.892" stop-color="#FFAB02"/>
<stop offset="0.902" stop-color="#FFA900"/>
<stop offset="0.949" stop-color="#FFA000"/>
<stop offset="1" stop-color="#FF9100"/>
</linearGradient>
<linearGradient id="paint14_linear_175_114" x1="398.603" y1="80.1688" x2="362.113" y2="178.145" gradientUnits="userSpaceOnUse">
<stop stop-color="#FF8E00"/>
<stop offset="0.04" stop-color="#FF8E00" stop-opacity="0.858"/>
<stop offset="0.084" stop-color="#FF8E00" stop-opacity="0.729"/>
<stop offset="0.13" stop-color="#FF8E00" stop-opacity="0.628"/>
<stop offset="0.178" stop-color="#FF8E00" stop-opacity="0.557"/>
<stop offset="0.227" stop-color="#FF8E00" stop-opacity="0.514"/>
<stop offset="0.282" stop-color="#FF8E00" stop-opacity="0.5"/>
<stop offset="0.389" stop-color="#FF8E00" stop-opacity="0.478"/>
<stop offset="0.524" stop-color="#FF8E00" stop-opacity="0.416"/>
<stop offset="0.676" stop-color="#FF8E00" stop-opacity="0.314"/>
<stop offset="0.838" stop-color="#FF8E00" stop-opacity="0.172"/>
<stop offset="1" stop-color="#FF8E00" stop-opacity="0"/>
</linearGradient>
<linearGradient id="paint15_linear_175_114" x1="510.602" y1="-23.9576" x2="510.602" y2="216.392" gradientUnits="userSpaceOnUse">
<stop offset="0.3" stop-color="#FF1B2D"/>
<stop offset="0.4381" stop-color="#FA1A2C"/>
<stop offset="0.5939" stop-color="#ED1528"/>
<stop offset="0.7581" stop-color="#D60E21"/>
<stop offset="0.9272" stop-color="#B70519"/>
<stop offset="1" stop-color="#A70014"/>
</linearGradient>
<linearGradient id="paint16_linear_175_114" x1="572.87" y1="-9.79039" x2="572.87" y2="202.786" gradientUnits="userSpaceOnUse">
<stop stop-color="#9C0000"/>
<stop offset="0.7" stop-color="#FF4B4B"/>
</linearGradient>
<linearGradient id="paint17_linear_175_114" x1="719.279" y1="214.188" x2="719.279" y2="-26.0625" gradientUnits="userSpaceOnUse">
<stop offset="0.25" stop-color="#DBDBDA"/>
<stop offset="1" stop-color="white"/>
</linearGradient>
<radialGradient id="paint18_radial_175_114" cx="0" cy="0" r="1" gradientUnits="userSpaceOnUse" gradientTransform="translate(734.89 69.6549) scale(135.632)">
<stop stop-color="#2ABCE1"/>
<stop offset="0.11363" stop-color="#2ABBE1"/>
<stop offset="1" stop-color="#3375F8"/>
</radialGradient>
<linearGradient id="paint19_linear_175_114" x1="717.825" y1="62.1961" x2="665.963" y2="155.242" gradientUnits="userSpaceOnUse">
<stop stop-opacity="0"/>
<stop offset="1"/>
</linearGradient>
<clipPath id="clip0_175_114">
<path d="M0 8C0 3.58173 3.58172 0 8 0H1067C1071.42 0 1075 3.58172 1075 8V183C1075 187.418 1071.42 191 1067 191H8.00002C3.58174 191 0 187.418 0 183V8Z" fill="white"/>
</clipPath>
<clipPath id="clip1_175_114">
<rect width="247" height="248" fill="white" transform="translate(40 -28)"/>
</clipPath>
<clipPath id="clip2_175_114">
<rect width="240.279" height="248" fill="white" transform="translate(227 -28)"/>
</clipPath>
<clipPath id="clip3_175_114">
<rect width="248" height="248" fill="white" transform="translate(407.279 -28)"/>
</clipPath>
<clipPath id="clip4_175_114">
<rect width="248" height="248" fill="white" transform="translate(595.279 -28)"/>
</clipPath>
<clipPath id="clip5_175_114">
<rect width="251.93" height="248" fill="white" transform="translate(783.279 -28)"/>
</clipPath>
</defs>
</svg>
