<svg width="194" height="50" viewBox="0 0 194 50" fill="none" xmlns="http://www.w3.org/2000/svg">
<path d="M5.508 16.608C5.812 16.56 6.176 16.524 6.6 16.5C7.032 16.476 7.408 16.464 7.728 16.464C8.032 16.464 8.4 16.476 8.832 16.5C9.272 16.524 9.644 16.568 9.948 16.632L15.108 32.748C14.844 32.9 14.5 33.016 14.076 33.096C13.66 33.176 13.272 33.216 12.912 33.216C12.304 33.216 11.828 33.076 11.484 32.796C11.14 32.508 10.852 31.952 10.62 31.128L8.904 25.044C8.72 24.372 8.504 23.58 8.256 22.668C8.016 21.756 7.792 20.904 7.584 20.112H7.44C7.36 20.552 7.252 21.044 7.116 21.588C6.98 22.132 6.836 22.676 6.684 23.22C6.54 23.756 6.404 24.244 6.276 24.684L3.828 33.024C3.588 33.08 3.332 33.116 3.06 33.132C2.788 33.156 2.5 33.168 2.196 33.168C1.908 33.168 1.58 33.144 1.212 33.096C0.852 33.048 0.564 32.984 0.348 32.904L0.204 32.7L5.508 16.608ZM5.796 29.568C5.684 29.568 5.552 29.568 5.4 29.568C5.256 29.56 5.112 29.556 4.968 29.556C4.824 29.548 4.692 29.544 4.572 29.544H2.556L3.72 26.556H5.496C5.608 26.556 5.736 26.556 5.88 26.556C6.024 26.548 6.168 26.544 6.312 26.544C6.456 26.536 6.584 26.532 6.696 26.532H8.448C8.568 26.532 8.696 26.536 8.832 26.544C8.976 26.544 9.12 26.548 9.264 26.556C9.416 26.556 9.548 26.556 9.66 26.556H11.496L12.468 29.544H10.44C10.328 29.544 10.196 29.548 10.044 29.556C9.9 29.556 9.752 29.56 9.6 29.568C9.456 29.568 9.328 29.568 9.216 29.568H5.796ZM17.8967 20.856C18.6567 20.856 19.2647 21.14 19.7207 21.708C20.1847 22.268 20.4167 23.04 20.4167 24.024V35.928C20.4167 36.76 20.2567 37.344 19.9367 37.68C19.6247 38.016 19.1007 38.184 18.3647 38.184H16.9007L16.7327 38.016V21.024L16.9007 20.856H17.8967ZM27.4487 26.868C27.4487 28.244 27.2287 29.408 26.7887 30.36C26.3567 31.304 25.7767 32.02 25.0487 32.508C24.3207 32.996 23.5167 33.24 22.6367 33.24C21.8047 33.24 21.0647 33.068 20.4167 32.724C19.7767 32.372 19.1927 32.036 18.6647 31.716L19.2647 29.064C19.7367 29.44 20.2087 29.764 20.6807 30.036C21.1607 30.308 21.5927 30.444 21.9767 30.444C22.3687 30.444 22.6807 30.3 22.9127 30.012C23.1527 29.716 23.3287 29.3 23.4407 28.764C23.5527 28.22 23.6087 27.58 23.6087 26.844C23.6087 26.1 23.5447 25.496 23.4167 25.032C23.2967 24.56 23.1247 24.216 22.9007 24C22.6847 23.784 22.4367 23.676 22.1567 23.676C21.9087 23.676 21.6127 23.752 21.2687 23.904C20.9327 24.056 20.6007 24.352 20.2727 24.792C19.9527 25.224 19.6847 25.864 19.4687 26.712L18.6287 24.588C18.7087 23.94 18.9567 23.316 19.3727 22.716C19.7887 22.116 20.3207 21.624 20.9687 21.24C21.6247 20.856 22.3447 20.664 23.1287 20.664C24.1047 20.664 24.9127 20.928 25.5527 21.456C26.1927 21.984 26.6687 22.716 26.9807 23.652C27.2927 24.58 27.4487 25.652 27.4487 26.868ZM37.7348 21.06C37.7348 21.5 37.6548 22.064 37.4948 22.752C37.3348 23.432 37.1028 24.036 36.7988 24.564C36.5908 24.484 36.3828 24.428 36.1748 24.396C35.9748 24.364 35.7708 24.336 35.5628 24.312C35.2428 24.312 34.9548 24.372 34.6988 24.492C34.4428 24.604 34.2108 24.772 34.0028 24.996C33.7948 25.22 33.5988 25.496 33.4148 25.824C33.2308 26.152 33.0548 26.528 32.8868 26.952L32.4668 26.388C32.5068 25.724 32.5908 25.068 32.7188 24.42C32.8468 23.764 33.0428 23.168 33.3068 22.632C33.5708 22.096 33.9308 21.668 34.3867 21.348C34.8508 21.02 35.4348 20.856 36.1388 20.856C36.5068 20.856 36.8028 20.876 37.0268 20.916C37.2588 20.948 37.4948 20.996 37.7348 21.06ZM28.9388 22.764C29.0028 22.428 29.1508 22.068 29.3828 21.684C29.6148 21.292 29.8468 21.008 30.0788 20.832C31.1908 20.912 32.0268 21.324 32.5868 22.068C33.1548 22.804 33.4908 23.772 33.5948 24.972V33C33.3308 33.048 33.0348 33.084 32.7068 33.108C32.3788 33.132 32.0508 33.144 31.7228 33.144C31.4108 33.144 31.0868 33.132 30.7508 33.108C30.4228 33.084 30.1188 33.048 29.8388 33V25.248C29.8388 24.536 29.7348 23.98 29.5268 23.58C29.3268 23.172 29.1308 22.9 28.9388 22.764ZM40.5263 28.224V25.644H45.0503V25.368C45.0503 25 44.9983 24.664 44.8943 24.36C44.7903 24.048 44.6223 23.8 44.3903 23.616C44.1663 23.424 43.8623 23.328 43.4783 23.328C42.8943 23.328 42.4823 23.568 42.2423 24.048C42.0103 24.528 41.8943 25.268 41.8943 26.268V27.396C41.8943 27.94 41.9423 28.448 42.0383 28.92C42.1343 29.392 42.3383 29.772 42.6503 30.06C42.9623 30.348 43.4383 30.492 44.0783 30.492C44.6223 30.492 45.1543 30.424 45.6743 30.288C46.2023 30.144 46.7063 29.972 47.1863 29.772C47.4663 30.044 47.6903 30.388 47.8583 30.804C48.0263 31.22 48.1383 31.616 48.1943 31.992C47.5863 32.432 46.8583 32.768 46.0103 33C45.1703 33.24 44.3223 33.36 43.4662 33.36C42.4103 33.36 41.5383 33.188 40.8503 32.844C40.1623 32.492 39.6183 32.02 39.2183 31.428C38.8183 30.828 38.5343 30.156 38.3663 29.412C38.2063 28.66 38.1263 27.888 38.1263 27.096C38.1263 25.888 38.3063 24.8 38.6663 23.832C39.0343 22.856 39.6143 22.084 40.4062 21.516C41.1983 20.948 42.2303 20.664 43.5023 20.664C44.5583 20.664 45.4583 20.888 46.2023 21.336C46.9463 21.784 47.5143 22.392 47.9063 23.16C48.3063 23.92 48.5063 24.784 48.5063 25.752C48.5063 26.288 48.4783 26.736 48.4223 27.096C48.3743 27.448 48.2943 27.824 48.1823 28.224H40.5263ZM52.3245 20.856C53.0445 20.856 53.5845 21.104 53.9445 21.6C54.3125 22.088 54.4965 22.748 54.4965 23.58V33C54.2325 33.048 53.9325 33.084 53.5965 33.108C53.2685 33.132 52.9445 33.144 52.6245 33.144C52.3125 33.144 51.9885 33.132 51.6525 33.108C51.3245 33.084 51.0205 33.048 50.7405 33V21.024L50.9085 20.856H52.3245ZM61.0605 30C61.0605 30.464 61.1045 30.904 61.1925 31.32C61.2805 31.728 61.4365 32.084 61.6605 32.388C61.3885 32.612 61.0485 32.804 60.6405 32.964C60.2325 33.116 59.7925 33.192 59.3205 33.192C58.5685 33.192 58.0445 32.992 57.7485 32.592C57.4525 32.192 57.3045 31.616 57.3045 30.864V25.764C57.3045 25.22 57.2325 24.82 57.0885 24.564C56.9525 24.3 56.6845 24.168 56.2845 24.168C56.0365 24.168 55.7485 24.236 55.4205 24.372C55.1005 24.5 54.7765 24.716 54.4485 25.02C54.1285 25.324 53.8445 25.728 53.5965 26.232V22.944C54.1645 22.4 54.7765 21.908 55.4325 21.468C56.0965 21.028 56.8525 20.808 57.7005 20.808C58.4365 20.808 59.0525 20.992 59.5485 21.36C60.0445 21.72 60.4205 22.22 60.6765 22.86C60.9325 23.5 61.0605 24.24 61.0605 25.08V30ZM73.8855 29.532C73.8855 29.916 73.9455 30.264 74.0655 30.576C74.1935 30.888 74.3575 31.12 74.5575 31.272C74.4855 31.6 74.3335 31.956 74.1015 32.34C73.8775 32.724 73.6495 33.008 73.4175 33.192C72.3615 33.176 71.5655 32.82 71.0295 32.124C70.4935 31.428 70.2255 30.58 70.2255 29.58V15.504L70.3935 15.336H71.8575C72.5935 15.336 73.1135 15.504 73.4175 15.84C73.7295 16.176 73.8855 16.76 73.8855 17.592V29.532ZM63.2055 27.156C63.2055 25.78 63.4215 24.62 63.8535 23.676C64.2935 22.724 64.8775 22.004 65.6055 21.516C66.3335 21.028 67.1375 20.784 68.0175 20.784C68.8495 20.784 69.5855 20.956 70.2255 21.3C70.8735 21.636 71.4615 21.968 71.9895 22.296L71.3895 24.96C70.9255 24.584 70.4535 24.26 69.9735 23.988C69.4935 23.708 69.0575 23.568 68.6655 23.568C68.2815 23.568 67.9695 23.716 67.7295 24.012C67.4975 24.3 67.3255 24.716 67.2135 25.26C67.1015 25.796 67.0455 26.436 67.0455 27.18C67.0455 27.916 67.1055 28.52 67.2255 28.992C67.3535 29.456 67.5255 29.8 67.7415 30.024C67.9655 30.24 68.2135 30.348 68.4855 30.348C68.7415 30.348 69.0375 30.272 69.3735 30.12C69.7175 29.96 70.0495 29.664 70.3695 29.232C70.6975 28.792 70.9655 28.152 71.1735 27.312L72.0135 29.436C71.9415 30.084 71.6975 30.708 71.2815 31.308C70.8655 31.908 70.3295 32.4 69.6735 32.784C69.0255 33.168 68.3055 33.36 67.5135 33.36C66.5455 33.36 65.7415 33.096 65.1015 32.568C64.4615 32.04 63.9855 31.308 63.6735 30.372C63.3615 29.436 63.2055 28.364 63.2055 27.156ZM78.4716 28.224V25.644H82.9956V25.368C82.9956 25 82.9436 24.664 82.8396 24.36C82.7356 24.048 82.5676 23.8 82.3356 23.616C82.1116 23.424 81.8076 23.328 81.4236 23.328C80.8396 23.328 80.4276 23.568 80.1876 24.048C79.9556 24.528 79.8396 25.268 79.8396 26.268V27.396C79.8396 27.94 79.8876 28.448 79.9836 28.92C80.0796 29.392 80.2836 29.772 80.5956 30.06C80.9076 30.348 81.3836 30.492 82.0236 30.492C82.5676 30.492 83.0996 30.424 83.6196 30.288C84.1476 30.144 84.6516 29.972 85.1316 29.772C85.4116 30.044 85.6356 30.388 85.8036 30.804C85.9716 31.22 86.0836 31.616 86.1396 31.992C85.5316 32.432 84.8036 32.768 83.9556 33C83.1156 33.24 82.2676 33.36 81.4116 33.36C80.3556 33.36 79.4836 33.188 78.7956 32.844C78.1076 32.492 77.5636 32.02 77.1636 31.428C76.7636 30.828 76.4796 30.156 76.3116 29.412C76.1516 28.66 76.0716 27.888 76.0716 27.096C76.0716 25.888 76.2516 24.8 76.6116 23.832C76.9796 22.856 77.5596 22.084 78.3516 21.516C79.1436 20.948 80.1756 20.664 81.4476 20.664C82.5036 20.664 83.4036 20.888 84.1476 21.336C84.8916 21.784 85.4596 22.392 85.8516 23.16C86.2516 23.92 86.4516 24.784 86.4516 25.752C86.4516 26.288 86.4236 26.736 86.3676 27.096C86.3196 27.448 86.2396 27.824 86.1276 28.224H78.4716ZM96.7738 21.06C96.7738 21.5 96.6938 22.064 96.5338 22.752C96.3738 23.432 96.1418 24.036 95.8378 24.564C95.6298 24.484 95.4218 24.428 95.2138 24.396C95.0138 24.364 94.8098 24.336 94.6018 24.312C94.2818 24.312 93.9938 24.372 93.7378 24.492C93.4818 24.604 93.2498 24.772 93.0418 24.996C92.8338 25.22 92.6378 25.496 92.4538 25.824C92.2698 26.152 92.0938 26.528 91.9258 26.952L91.5058 26.388C91.5458 25.724 91.6298 25.068 91.7578 24.42C91.8858 23.764 92.0818 23.168 92.3458 22.632C92.6098 22.096 92.9698 21.668 93.4258 21.348C93.8898 21.02 94.4738 20.856 95.1778 20.856C95.5458 20.856 95.8418 20.876 96.0658 20.916C96.2978 20.948 96.5338 20.996 96.7738 21.06ZM87.9778 22.764C88.0418 22.428 88.1898 22.068 88.4218 21.684C88.6538 21.292 88.8858 21.008 89.1178 20.832C90.2298 20.912 91.0658 21.324 91.6258 22.068C92.1938 22.804 92.5298 23.772 92.6338 24.972V33C92.3698 33.048 92.0738 33.084 91.7458 33.108C91.4178 33.132 91.0898 33.144 90.7618 33.144C90.4498 33.144 90.1258 33.132 89.7898 33.108C89.4618 33.084 89.1578 33.048 88.8778 33V25.248C88.8778 24.536 88.7738 23.98 88.5658 23.58C88.3658 23.172 88.1698 22.9 87.9778 22.764ZM105.07 20.856C105.782 20.856 106.322 21.104 106.69 21.6C107.066 22.088 107.254 22.748 107.254 23.58V33C106.99 33.048 106.69 33.084 106.354 33.108C106.026 33.132 105.702 33.144 105.382 33.144C105.07 33.144 104.746 33.132 104.41 33.108C104.082 33.084 103.778 33.048 103.498 33V21.024L103.666 20.856H105.07ZM109.918 25.776C109.918 25.136 109.802 24.708 109.57 24.492C109.338 24.276 109.094 24.168 108.838 24.168C108.494 24.176 108.13 24.312 107.746 24.576C107.37 24.84 107.026 25.164 106.714 25.548C106.402 25.924 106.178 26.3 106.042 26.676V23.436C106.418 23.012 106.83 22.6 107.278 22.2C107.734 21.792 108.222 21.46 108.742 21.204C109.262 20.94 109.81 20.808 110.386 20.808C111.082 20.808 111.674 20.972 112.162 21.3C112.658 21.62 113.034 22.064 113.29 22.632C113.546 23.2 113.674 23.852 113.674 24.588V33C113.41 33.048 113.11 33.084 112.774 33.108C112.446 33.132 112.122 33.144 111.802 33.144C111.49 33.144 111.166 33.132 110.83 33.108C110.502 33.084 110.198 33.048 109.918 33V25.776ZM116.338 25.752C116.338 25.112 116.214 24.688 115.966 24.48C115.726 24.272 115.478 24.168 115.222 24.168C114.91 24.168 114.566 24.304 114.19 24.576C113.822 24.84 113.474 25.176 113.146 25.584C112.818 25.984 112.558 26.392 112.366 26.808V23.34C112.726 22.908 113.15 22.5 113.638 22.116C114.126 21.724 114.65 21.408 115.21 21.168C115.778 20.928 116.342 20.808 116.902 20.808C117.606 20.808 118.194 20.976 118.666 21.312C119.138 21.64 119.494 22.092 119.734 22.668C119.974 23.244 120.094 23.9 120.094 24.636V30C120.094 30.464 120.138 30.904 120.226 31.32C120.314 31.728 120.47 32.084 120.694 32.388C120.422 32.612 120.082 32.804 119.674 32.964C119.266 33.116 118.826 33.192 118.354 33.192C117.602 33.192 117.078 32.992 116.782 32.592C116.486 32.192 116.338 31.616 116.338 30.864V25.752ZM122.197 29.724C122.197 28.756 122.421 27.968 122.869 27.36C123.317 26.744 123.901 26.288 124.621 25.992C125.349 25.696 126.125 25.548 126.949 25.548C127.309 25.548 127.761 25.556 128.305 25.572C128.857 25.588 129.353 25.64 129.793 25.728V28.104C129.449 28.024 129.033 27.98 128.545 27.972C128.065 27.956 127.665 27.948 127.345 27.948C126.809 27.948 126.425 28.092 126.193 28.38C125.961 28.66 125.845 29.024 125.845 29.472C125.845 29.792 125.945 30.06 126.145 30.276C126.345 30.484 126.613 30.588 126.949 30.588C127.429 30.588 127.917 30.416 128.413 30.072C128.909 29.728 129.329 29.256 129.673 28.656L130.201 31.032C129.889 31.4 129.533 31.764 129.133 32.124C128.733 32.484 128.265 32.78 127.729 33.012C127.193 33.244 126.565 33.36 125.845 33.36C125.021 33.36 124.337 33.176 123.793 32.808C123.257 32.44 122.857 31.976 122.593 31.416C122.329 30.856 122.197 30.292 122.197 29.724ZM133.081 31.272C133.017 31.6 132.869 31.956 132.637 32.34C132.405 32.724 132.173 33.008 131.941 33.192C131.237 33.176 130.653 33.016 130.189 32.712C129.733 32.408 129.381 32.036 129.133 31.596C128.893 31.148 128.737 30.712 128.665 30.288V25.152C128.665 24.648 128.537 24.268 128.281 24.012C128.033 23.756 127.637 23.628 127.093 23.628C126.581 23.628 126.021 23.712 125.413 23.88C124.805 24.04 124.185 24.212 123.553 24.396C123.289 24.092 123.081 23.7 122.929 23.22C122.785 22.732 122.693 22.256 122.653 21.792C123.189 21.568 123.785 21.38 124.441 21.228C125.097 21.068 125.749 20.948 126.397 20.868C127.053 20.78 127.637 20.736 128.149 20.736C128.853 20.736 129.529 20.868 130.177 21.132C130.825 21.388 131.357 21.816 131.773 22.416C132.197 23.008 132.409 23.812 132.409 24.828V29.712C132.409 30.056 132.461 30.36 132.565 30.624C132.677 30.888 132.849 31.104 133.081 31.272ZM139.646 33C139.382 33.048 139.082 33.084 138.746 33.108C138.418 33.132 138.094 33.144 137.774 33.144C137.462 33.144 137.138 33.132 136.802 33.108C136.474 33.084 136.17 33.048 135.89 33V25.056C135.89 24.656 135.806 24.324 135.638 24.06C135.478 23.796 135.186 23.664 134.762 23.664H134.402C134.298 23.256 134.246 22.832 134.246 22.392C134.246 22.184 134.258 21.964 134.282 21.732C134.306 21.492 134.346 21.264 134.402 21.048C134.77 21.008 135.146 20.98 135.53 20.964C135.922 20.94 136.25 20.928 136.514 20.928H137.03C137.838 20.928 138.474 21.188 138.938 21.708C139.41 22.22 139.646 22.916 139.646 23.796V33ZM135.17 17.652C135.17 17.428 135.194 17.196 135.242 16.956C135.29 16.708 135.358 16.472 135.446 16.248C135.654 16.144 135.922 16.056 136.25 15.984C136.586 15.912 136.914 15.876 137.234 15.876C137.562 15.876 137.894 15.912 138.23 15.984C138.574 16.056 138.838 16.144 139.022 16.248C139.11 16.472 139.178 16.712 139.226 16.968C139.274 17.216 139.298 17.444 139.298 17.652C139.298 17.868 139.274 18.1 139.226 18.348C139.178 18.596 139.11 18.828 139.022 19.044C138.838 19.148 138.574 19.236 138.23 19.308C137.894 19.38 137.562 19.416 137.234 19.416C136.914 19.416 136.582 19.384 136.238 19.32C135.894 19.248 135.63 19.156 135.446 19.044C135.358 18.828 135.29 18.596 135.242 18.348C135.194 18.1 135.17 17.868 135.17 17.652ZM141.515 32.172C141.531 31.772 141.639 31.324 141.839 30.828C142.047 30.332 142.287 29.94 142.559 29.652C143.087 29.924 143.631 30.16 144.191 30.36C144.759 30.552 145.323 30.648 145.883 30.648C146.347 30.648 146.695 30.568 146.927 30.408C147.167 30.248 147.287 30.048 147.287 29.808C147.287 29.576 147.203 29.372 147.035 29.196C146.867 29.012 146.587 28.852 146.195 28.716L144.863 28.236C144.303 28.028 143.795 27.768 143.339 27.456C142.883 27.136 142.523 26.748 142.259 26.292C141.995 25.828 141.863 25.276 141.863 24.636C141.863 23.82 142.055 23.116 142.439 22.524C142.823 21.932 143.363 21.476 144.059 21.156C144.755 20.828 145.571 20.664 146.507 20.664C147.267 20.664 148.063 20.768 148.895 20.976C149.727 21.184 150.403 21.416 150.923 21.672C150.939 21.96 150.903 22.28 150.815 22.632C150.727 22.984 150.599 23.308 150.431 23.604C150.271 23.9 150.091 24.124 149.891 24.276C149.395 24.052 148.855 23.848 148.271 23.664C147.687 23.472 147.111 23.376 146.543 23.376C146.223 23.376 145.979 23.452 145.811 23.604C145.643 23.756 145.559 23.936 145.559 24.144C145.559 24.352 145.631 24.528 145.775 24.672C145.919 24.816 146.151 24.944 146.471 25.056L147.959 25.584C148.871 25.904 149.631 26.372 150.239 26.988C150.847 27.604 151.151 28.424 151.151 29.448C151.151 30.64 150.691 31.592 149.771 32.304C148.859 33.008 147.591 33.36 145.967 33.36C145.111 33.36 144.295 33.24 143.519 33C142.751 32.768 142.083 32.492 141.515 32.172Z" fill="white"/>
<path d="M178 14.3333L176.12 16.2133L183.56 23.6667H167.333V26.3333H183.56L176.12 33.7867L178 35.6667L188.667 25L178 14.3333Z" fill="white"/>
</svg>
