<svg width="148" height="169" viewBox="0 0 148 169" fill="none" xmlns="http://www.w3.org/2000/svg">
<g clip-path="url(#clip0_9_919)">
<path d="M12.9348 150.901L0.651199 0.78186L147.349 1.08354L134.36 150.901L74.5537 168.218L12.9348 150.901Z" fill="#1B73BA"/>
<path d="M74.5536 153.72V15.0789L134.965 15.28L124.192 139.322L74.5536 153.72Z" fill="#1C88C7"/>
<path d="M119.962 32.7997H27.0307L29.5483 50.9216H73.6474L30.2533 69.5486L32.7697 87.0671H96.705L94.3886 111.533L72.7412 115.762L53.1086 110.728L51.5978 96.8332H33.5753L35.9911 125.73L74.6542 136.503L111.707 124.723L116.439 68.239H77.2711L119.961 50.5193L119.962 32.7997Z" fill="white"/>
</g>
<defs>
<clipPath id="clip0_9_919">
<rect width="146.698" height="168" fill="white" transform="translate(0.651199 0.5)"/>
</clipPath>
</defs>
</svg>
