<svg width="922" height="1259" viewBox="0 0 922 1259" fill="none" xmlns="http://www.w3.org/2000/svg">
<g clip-path="url(#clip0_9_736)">
<path fill-rule="evenodd" clip-rule="evenodd" d="M549.483 499.225C560.492 518.293 584.874 524.827 603.942 513.818C623.011 502.809 629.544 478.426 618.535 459.358C607.526 440.29 583.143 433.757 564.075 444.766C545.007 455.775 538.474 480.157 549.483 499.225ZM562.863 807.166C573.872 826.234 598.255 832.767 617.323 821.758C636.391 810.749 642.924 786.367 631.915 767.298C620.906 748.23 596.524 741.697 577.456 752.706C558.388 763.715 551.854 788.097 562.863 807.166ZM474.94 575.144C479.659 583.316 490.108 586.116 498.28 581.398C506.452 576.68 509.252 566.231 504.534 558.058C499.816 549.886 489.366 547.086 481.194 551.805C473.022 556.523 470.222 566.972 474.94 575.144ZM501.442 974.154C506.16 982.327 516.609 985.126 524.782 980.408C532.954 975.69 535.754 965.241 531.035 957.069C526.317 948.897 515.868 946.097 507.696 950.815C499.524 955.533 496.724 965.982 501.442 974.154ZM259.855 817.698C264.574 825.87 275.023 828.67 283.195 823.952C291.367 819.234 294.167 808.784 289.449 800.612C284.731 792.44 274.281 789.64 266.109 794.358C257.937 799.077 255.137 809.526 259.855 817.698ZM794.176 877.484C798.894 885.656 809.344 888.456 817.516 883.738C825.688 879.02 828.488 868.57 823.77 860.398C819.052 852.226 808.602 849.426 800.43 854.144C792.258 858.863 789.458 869.312 794.176 877.484ZM216.936 697.798C223.227 708.694 237.16 712.427 248.056 706.136C258.952 699.845 262.685 685.913 256.394 675.016C250.104 664.12 236.171 660.387 225.275 666.678C214.379 672.969 210.645 686.902 216.936 697.798ZM617.268 650.804C623.559 661.7 637.492 665.433 648.388 659.143C659.284 652.852 663.017 638.919 656.726 628.023C650.435 617.127 636.503 613.394 625.606 619.684C614.71 625.975 610.977 639.908 617.268 650.804ZM737.019 732.922C744.882 746.542 762.298 751.209 775.918 743.345C789.539 735.482 794.205 718.066 786.342 704.446C778.478 690.826 761.062 686.159 747.442 694.023C733.822 701.886 729.155 719.302 737.019 732.922ZM423.997 874.187C430.288 885.084 444.22 888.817 455.116 882.526C466.012 876.235 469.746 862.302 463.455 851.406C457.164 840.51 443.231 836.777 432.335 843.068C421.439 849.359 417.706 863.291 423.997 874.187ZM398.069 1079.87C405.932 1093.49 423.348 1098.16 436.968 1090.29C450.588 1082.43 455.255 1065.02 447.391 1051.4C439.528 1037.77 422.112 1033.11 408.492 1040.97C394.872 1048.84 390.205 1066.25 398.069 1079.87ZM387.331 730.947C395.195 744.567 412.611 749.234 426.231 741.37C439.851 733.507 444.518 716.091 436.654 702.471C428.791 688.851 411.375 684.184 397.755 692.048C384.134 699.911 379.468 717.327 387.331 730.947ZM613.767 975.067C621.63 988.687 639.046 993.354 652.666 985.49C666.287 977.627 670.953 960.211 663.09 946.591C655.226 932.971 637.81 928.304 624.19 936.168C610.57 944.031 605.903 961.447 613.767 975.067ZM691.716 870.876C694.861 876.324 701.828 878.191 707.276 875.045C712.724 871.9 714.59 864.934 711.445 859.486C708.299 854.037 701.333 852.171 695.885 855.316C690.437 858.462 688.57 865.428 691.716 870.876ZM328.962 948.785C332.107 954.233 339.074 956.1 344.522 952.954C349.97 949.809 351.836 942.842 348.691 937.394C345.546 931.946 338.579 930.08 333.131 933.225C327.683 936.37 325.817 943.337 328.962 948.785ZM504.384 683.096C507.53 688.544 514.496 690.41 519.944 687.265C525.392 684.12 527.259 677.153 524.113 671.705C520.968 666.257 514.002 664.39 508.554 667.536C503.106 670.681 501.239 677.648 504.384 683.096ZM345.175 623.759C348.321 629.207 355.287 631.073 360.735 627.928C366.183 624.783 368.05 617.816 364.904 612.368C361.759 606.92 354.793 605.054 349.345 608.199C343.896 611.344 342.03 618.311 345.175 623.759Z" fill="#5A189A"/>
</g>
<g clip-path="url(#clip1_9_736)">
<path fill-rule="evenodd" clip-rule="evenodd" d="M378.421 320.711C395.021 313.102 402.311 293.477 394.703 276.876C387.095 260.275 367.469 252.985 350.868 260.594C334.267 268.202 326.978 287.828 334.586 304.428C342.194 321.029 361.82 328.319 378.421 320.711ZM633.737 333.598C650.338 325.989 657.628 306.364 650.019 289.763C642.411 273.162 622.785 265.872 606.185 273.481C589.584 281.089 582.294 300.715 589.902 317.315C597.511 333.916 617.136 341.206 633.737 333.598ZM435.315 388.164C442.43 384.903 445.554 376.492 442.293 369.378C439.033 362.263 430.622 359.139 423.507 362.4C416.393 365.66 413.268 374.071 416.529 381.186C419.79 388.301 428.201 391.425 435.315 388.164ZM766.851 397.295C773.966 394.035 777.09 385.624 773.829 378.509C770.568 371.394 762.157 368.27 755.043 371.531C747.928 374.792 744.804 383.202 748.065 390.317C751.325 397.432 759.736 400.556 766.851 397.295ZM618.882 584.62C625.996 581.359 629.121 572.948 625.86 565.834C622.599 558.719 614.188 555.595 607.074 558.856C599.959 562.116 596.835 570.527 600.096 577.642C603.356 584.756 611.767 587.881 618.882 584.62ZM709.781 148.061C716.895 144.8 720.02 136.389 716.759 129.275C713.498 122.16 705.087 119.036 697.973 122.296C690.858 125.557 687.734 133.968 690.994 141.083C694.255 148.197 702.666 151.322 709.781 148.061ZM516.54 610.74C526.026 606.392 530.192 595.178 525.844 585.692C521.497 576.206 510.282 572.04 500.796 576.388C491.31 580.735 487.144 591.95 491.492 601.436C495.839 610.922 507.054 615.088 516.54 610.74ZM508.853 276.52C518.339 272.173 522.505 260.958 518.157 251.472C513.809 241.986 502.595 237.82 493.109 242.168C483.623 246.515 479.457 257.73 483.805 267.216C488.152 276.702 499.367 280.868 508.853 276.52ZM585.968 184.021C597.826 178.587 603.033 164.568 597.599 152.711C592.164 140.853 578.146 135.646 566.288 141.08C554.431 146.515 549.223 160.533 554.658 172.391C560.093 184.249 574.111 189.456 585.968 184.021ZM678.285 453.474C687.771 449.126 691.937 437.912 687.589 428.426C683.242 418.939 672.027 414.774 662.541 419.121C653.055 423.469 648.889 434.684 653.237 444.17C657.584 453.656 668.799 457.822 678.285 453.474ZM846.11 490.871C857.968 485.437 863.175 471.418 857.74 459.561C852.306 447.703 838.288 442.496 826.43 447.93C814.572 453.365 809.365 467.383 814.799 479.241C820.234 491.099 834.252 496.306 846.11 490.871ZM557.157 472.616C569.015 467.181 574.222 453.163 568.787 441.305C563.353 429.448 549.335 424.241 537.477 429.675C525.619 435.11 520.412 449.128 525.847 460.986C531.281 472.843 545.299 478.05 557.157 472.616ZM776.335 304.616C788.193 299.181 793.4 285.163 787.966 273.305C782.531 261.447 768.513 256.24 756.655 261.675C744.797 267.11 739.59 281.128 745.025 292.985C750.459 304.843 764.478 310.05 776.335 304.616ZM696.36 232.152C701.103 229.978 703.186 224.371 701.012 219.628C698.839 214.885 693.231 212.802 688.488 214.976C683.745 217.15 681.662 222.757 683.836 227.5C686.01 232.243 691.617 234.326 696.36 232.152ZM732.496 537.746C737.239 535.572 739.322 529.964 737.148 525.221C734.974 520.478 729.367 518.395 724.624 520.569C719.881 522.743 717.798 528.35 719.972 533.093C722.145 537.837 727.753 539.919 732.496 537.746ZM526.743 372.242C531.486 370.068 533.569 364.461 531.395 359.718C529.221 354.975 523.614 352.892 518.871 355.066C514.128 357.24 512.045 362.847 514.219 367.59C516.393 372.333 522 374.416 526.743 372.242ZM465.371 499.094C470.115 496.92 472.197 491.313 470.024 486.57C467.85 481.827 462.243 479.744 457.499 481.918C452.756 484.092 450.673 489.699 452.847 494.442C455.021 499.185 460.628 501.268 465.371 499.094Z" fill="#5A189A"/>
</g>
<g clip-path="url(#clip2_9_736)">
<path fill-rule="evenodd" clip-rule="evenodd" d="M-143.465 145.641C-129.126 140.679 -121.525 125.032 -126.488 110.693C-131.451 96.3539 -147.098 88.7532 -161.437 93.716C-175.776 98.6789 -183.376 114.326 -178.414 128.665C-173.451 143.004 -157.804 150.604 -143.465 145.641ZM66.658 176.747C80.9968 171.784 88.5976 156.137 83.6347 141.799C78.6719 127.46 63.0248 119.859 48.686 124.822C34.3472 129.785 26.7465 145.432 31.7093 159.771C36.6721 174.109 52.3192 181.71 66.658 176.747ZM-101.813 205.984C-95.6681 203.857 -92.4106 197.151 -94.5375 191.006C-96.6645 184.861 -103.37 181.604 -109.516 183.73C-115.661 185.857 -118.918 192.563 -116.791 198.708C-114.664 204.854 -107.958 208.111 -101.813 205.984ZM171.646 240.088C177.792 237.961 181.049 231.255 178.922 225.11C176.795 218.965 170.089 215.707 163.944 217.834C157.799 219.961 154.541 226.667 156.668 232.812C158.795 238.958 165.501 242.215 171.646 240.088ZM34.2685 383.161C40.4137 381.034 43.6712 374.328 41.5443 368.183C39.4173 362.038 32.7114 358.781 26.5662 360.907C20.421 363.034 17.1636 369.74 19.2905 375.885C21.4174 382.031 28.1233 385.288 34.2685 383.161ZM144.408 29.3923C150.553 27.2654 153.811 20.5595 151.684 14.4143C149.557 8.26906 142.851 5.0116 136.706 7.13853C130.561 9.26546 127.303 15.9713 129.43 22.1165C131.557 28.2618 138.263 31.5192 144.408 29.3923ZM-52.4635 396.567C-44.2698 393.731 -39.9266 384.79 -42.7625 376.596C-45.5984 368.403 -54.5396 364.06 -62.7332 366.895C-70.9268 369.731 -75.27 378.672 -72.4341 386.866C-69.5982 395.06 -60.6571 399.403 -52.4635 396.567ZM-32.0539 119.541C-23.8603 116.705 -19.517 107.764 -22.3529 99.57C-25.1889 91.3764 -34.13 87.0331 -42.3236 89.869C-50.5172 92.7049 -54.8605 101.646 -52.0246 109.84C-49.1887 118.033 -40.2475 122.377 -32.0539 119.541ZM39.1313 49.2167C49.3733 45.6718 54.8024 34.4953 51.2575 24.2533C47.7127 14.0113 36.5362 8.58222 26.2942 12.1271C16.0522 15.672 10.6231 26.8485 14.1679 37.0905C17.7128 47.3325 28.8893 52.7616 39.1313 49.2167ZM93.9003 279.457C102.094 276.621 106.437 267.68 103.601 259.486C100.765 251.292 91.8243 246.949 83.6306 249.785C75.437 252.621 71.0937 261.562 73.9296 269.756C76.7655 277.949 85.7067 282.293 93.9003 279.457ZM229.702 323.826C239.944 320.281 245.373 309.105 241.828 298.863C238.283 288.621 227.107 283.192 216.865 286.736C206.623 290.281 201.194 301.458 204.739 311.7C208.283 321.942 219.46 327.371 229.702 323.826ZM-7.80966 285.587C2.43235 282.042 7.86145 270.865 4.31657 260.623C0.771699 250.381 -10.4048 244.952 -20.6468 248.497C-30.8888 252.042 -36.3179 263.218 -32.773 273.46C-29.2281 283.703 -18.0517 289.132 -7.80966 285.587ZM186.913 164.199C197.155 160.654 202.584 149.477 199.039 139.235C195.494 128.993 184.318 123.564 174.076 127.109C163.834 130.654 158.405 141.83 161.949 152.072C165.494 162.314 176.671 167.743 186.913 164.199ZM126.574 97.8638C130.671 96.4459 132.843 91.9753 131.425 87.8785C130.007 83.7817 125.536 81.61 121.439 83.028C117.343 84.4459 115.171 88.9165 116.589 93.0133C118.007 97.1101 122.477 99.2818 126.574 97.8638ZM131.985 353.494C136.082 352.076 138.254 347.605 136.836 343.508C135.418 339.411 130.947 337.24 126.85 338.658C122.754 340.076 120.582 344.546 122 348.643C123.418 352.74 127.888 354.912 131.985 353.494ZM-24.9245 200.138C-20.8277 198.721 -18.656 194.25 -20.074 190.153C-21.4919 186.056 -25.9625 183.885 -30.0593 185.303C-34.1561 186.721 -36.3278 191.191 -34.9098 195.288C-33.4919 199.385 -29.0213 201.556 -24.9245 200.138ZM-85.84 300.134C-81.7432 298.716 -79.5716 294.246 -80.9895 290.149C-82.4075 286.052 -86.8781 283.88 -90.9749 285.298C-95.0717 286.716 -97.2433 291.187 -95.8253 295.284C-94.4074 299.38 -89.9368 301.552 -85.84 300.134Z" fill="#5A189A"/>
</g>
<circle cx="252" cy="540" r="541" fill="url(#paint0_linear_9_736)"/>
<g clip-path="url(#clip3_9_736)">
<path fill-rule="evenodd" clip-rule="evenodd" d="M-53.9184 836.709C-44.777 846.637 -29.3375 847.291 -19.4334 838.171C-9.52938 829.051 -8.91117 813.61 -18.0526 803.682C-27.1941 793.755 -42.6336 793.101 -52.5376 802.221C-62.4417 811.341 -63.0599 826.782 -53.9184 836.709ZM-4.46444 1018.94C4.67703 1028.87 20.1165 1029.52 30.0206 1020.4C39.9246 1011.28 40.5428 995.843 31.4014 985.915C22.2599 975.988 6.82044 975.334 -3.08363 984.454C-12.9877 993.574 -13.6059 1009.01 -4.46444 1018.94ZM-88.2087 892.012C-84.2909 896.266 -77.674 896.547 -73.4294 892.638C-69.1848 888.729 -68.9199 882.112 -72.8376 877.857C-76.7554 873.603 -83.3723 873.322 -87.6169 877.231C-91.8615 881.14 -92.1265 887.757 -88.2087 892.012ZM-18.657 1126.92C-14.7392 1131.17 -8.12228 1131.45 -3.87768 1127.54C0.366918 1123.63 0.631864 1117.02 -3.28591 1112.76C-7.20368 1108.51 -13.8206 1108.23 -18.0652 1112.14C-22.3098 1116.04 -22.5747 1122.66 -18.657 1126.92ZM-183.986 1065.62C-180.068 1069.88 -173.451 1070.16 -169.206 1066.25C-164.962 1062.34 -164.697 1055.72 -168.615 1051.47C-172.532 1047.21 -179.149 1046.93 -183.394 1050.84C-187.639 1054.75 -187.903 1061.37 -183.986 1065.62ZM143.131 1030.13C147.049 1034.39 153.666 1034.67 157.91 1030.76C162.155 1026.85 162.42 1020.23 158.502 1015.98C154.584 1011.72 147.968 1011.44 143.723 1015.35C139.478 1019.26 139.213 1025.88 143.131 1030.13ZM-225.759 999.693C-220.535 1005.37 -211.713 1005.74 -206.053 1000.53C-200.394 995.317 -200.041 986.494 -205.264 980.821C-210.488 975.148 -219.311 974.774 -224.97 979.986C-230.63 985.197 -230.983 994.021 -225.759 999.693ZM6.969 918.254C12.1927 923.927 21.0152 924.301 26.6747 919.089C32.3342 913.878 32.6874 905.054 27.4637 899.381C22.24 893.709 13.4175 893.335 7.75803 898.546C2.09856 903.758 1.7453 912.581 6.969 918.254ZM89.5347 951.365C96.0643 958.455 107.093 958.923 114.167 952.408C121.241 945.894 121.683 934.865 115.153 927.774C108.624 920.683 97.5953 920.216 90.521 926.73C83.4467 933.244 83.0051 944.274 89.5347 951.365ZM-78.3634 1077.5C-73.1397 1083.17 -64.3171 1083.55 -58.6576 1078.34C-52.9982 1073.12 -52.6449 1064.3 -57.8686 1058.63C-63.0923 1052.96 -71.9149 1052.58 -77.5743 1057.79C-83.2338 1063.01 -83.5871 1071.83 -78.3634 1077.5ZM-66.1509 1203.87C-59.6213 1210.96 -48.5931 1211.43 -41.5188 1204.91C-34.4445 1198.4 -34.0029 1187.37 -40.5325 1180.28C-47.0621 1173.19 -58.0903 1172.72 -65.1647 1179.23C-72.239 1185.75 -72.6806 1196.78 -66.1509 1203.87ZM-119.545 996.792C-113.015 1003.88 -101.987 1004.35 -94.913 997.836C-87.8386 991.321 -87.397 980.292 -93.9267 973.201C-100.456 966.11 -111.484 965.643 -118.559 972.157C-125.633 978.672 -126.075 989.701 -119.545 996.792ZM48.5402 1112.49C55.0698 1119.58 66.098 1120.05 73.1723 1113.53C80.2467 1107.02 80.6883 1095.99 74.1586 1088.9C67.629 1081.81 56.6008 1081.34 49.5265 1087.86C42.4522 1094.37 42.0106 1105.4 48.5402 1112.49ZM81.0576 1039.84C83.6695 1042.68 88.0808 1042.86 90.9105 1040.26C93.7402 1037.65 93.9169 1033.24 91.305 1030.4C88.6932 1027.57 84.2819 1027.38 81.4522 1029.99C78.6224 1032.59 78.4458 1037 81.0576 1039.84ZM-125.068 1134.75C-122.456 1137.58 -118.045 1137.77 -115.215 1135.16C-112.386 1132.56 -112.209 1128.15 -114.821 1125.31C-117.433 1122.47 -121.844 1122.29 -124.674 1124.89C-127.504 1127.5 -127.68 1131.91 -125.068 1134.75ZM-56.0908 952.596C-53.4789 955.432 -49.0677 955.619 -46.2379 953.014C-43.4082 950.408 -43.2316 945.996 -45.8434 943.16C-48.4553 940.323 -52.8665 940.136 -55.6963 942.742C-58.526 945.348 -58.7026 949.76 -56.0908 952.596ZM-159.151 938.358C-156.539 941.194 -152.128 941.381 -149.298 938.775C-146.469 936.17 -146.292 931.758 -148.904 928.922C-151.516 926.085 -155.927 925.898 -158.757 928.504C-161.586 931.11 -161.763 935.521 -159.151 938.358Z" fill="#5A189A"/>
</g>
<defs>
<linearGradient id="paint0_linear_9_736" x1="252" y1="-1" x2="252" y2="1081" gradientUnits="userSpaceOnUse">
<stop stop-color="#3C096C"/>
<stop offset="1" stop-color="#390967"/>
</linearGradient>
<clipPath id="clip0_9_736">
<rect width="569.529" height="569.529" fill="white" transform="translate(606.94 393.713) rotate(60)"/>
</clipPath>
<clipPath id="clip1_9_736">
<rect width="472.358" height="472.358" fill="white" transform="translate(295.761 265.066) rotate(-24.6225)"/>
</clipPath>
<clipPath id="clip2_9_736">
<rect width="392.483" height="392.483" fill="white" transform="translate(-207.37 93.001) rotate(-19.0913)"/>
</clipPath>
<clipPath id="clip3_9_736">
<rect width="349.071" height="348.256" fill="white" transform="translate(-33.8157 766) rotate(47.3597)"/>
</clipPath>
</defs>
</svg>
