<svg width="114" height="168" viewBox="0 0 114 168" fill="none" xmlns="http://www.w3.org/2000/svg">
<g clip-path="url(#clip0_9_898)">
<path d="M28.9545 168C44.4356 168 57 155.456 57 140V112H28.9545C13.4734 112 0.909058 124.544 0.909058 140C0.909058 155.456 13.4734 168 28.9545 168Z" fill="#0ACF83"/>
<path d="M0.909058 84C0.909058 68.544 13.4734 56 28.9545 56H57V112H28.9545C13.4734 112 0.909058 99.456 0.909058 84Z" fill="#A259FF"/>
<path d="M0.909058 28C0.909058 12.544 13.4734 0 28.9545 0H57V56H28.9545C13.4734 56 0.909058 43.456 0.909058 28Z" fill="#F24E1E"/>
<path d="M57 0H85.0455C100.527 0 113.091 12.544 113.091 28C113.091 43.456 100.527 56 85.0455 56H57V0Z" fill="#FF7262"/>
<path d="M113.091 84C113.091 99.456 100.527 112 85.0455 112C69.5644 112 57 99.456 57 84C57 68.544 69.5644 56 85.0455 56C100.527 56 113.091 68.544 113.091 84Z" fill="#1ABCFE"/>
</g>
<defs>
<clipPath id="clip0_9_898">
<rect width="112.204" height="168" fill="white" transform="translate(0.897827)"/>
</clipPath>
</defs>
</svg>
