<svg width="42" height="40" viewBox="0 0 42 40" fill="none" xmlns="http://www.w3.org/2000/svg">
<g clip-path="url(#clip0_27_113)">
<path d="M20.9206 0C9.61145 0 0.440918 9.16893 0.440918 20.4797C0.440918 29.5283 6.30897 37.2049 14.4462 39.913C15.4697 40.1025 15.8455 39.4687 15.8455 38.9277C15.8455 38.4395 15.8264 36.826 15.8178 35.1148C10.1201 36.3537 8.9179 32.6985 8.9179 32.6985C7.98631 30.3313 6.64402 29.702 6.64402 29.702C4.78598 28.4308 6.78408 28.4568 6.78408 28.4568C8.84064 28.6014 9.92353 30.5674 9.92353 30.5674C11.7501 33.6983 14.7145 32.7931 15.8831 32.2699C16.0669 30.9461 16.5977 30.0428 17.1833 29.5314C12.6346 29.0134 7.85267 27.2573 7.85267 19.4101C7.85267 17.1743 8.65272 15.3473 9.96288 13.9131C9.75023 13.3972 9.04928 11.3143 10.1612 8.49336C10.1612 8.49336 11.881 7.94292 15.7946 10.5927C17.4281 10.1387 19.1802 9.91131 20.9206 9.9036C22.6611 9.91131 24.4144 10.1387 26.0511 10.5927C29.9601 7.94292 31.6774 8.49336 31.6774 8.49336C32.7921 11.3143 32.0909 13.3972 31.8782 13.9131C33.1913 15.3473 33.9858 17.1742 33.9858 19.4101C33.9858 27.276 29.1949 29.0081 24.6346 29.515C25.3691 30.1506 26.0236 31.397 26.0236 33.3075C26.0236 36.0477 25.9999 38.2531 25.9999 38.9277C25.9999 39.4727 26.3685 40.1113 27.4067 39.9102C35.5395 37.1992 41.4002 29.5253 41.4002 20.4797C41.4002 9.16893 32.2309 0 20.9206 0Z" fill="white"/>
<path d="M8.11151 29.1739C8.06654 29.2755 7.90624 29.306 7.76056 29.2363C7.61199 29.1695 7.52846 29.0307 7.57665 28.9286C7.62082 28.8239 7.78112 28.7946 7.92937 28.865C8.07826 28.9316 8.16307 29.0717 8.11151 29.1739ZM9.11891 30.0727C9.02126 30.1633 8.83028 30.1212 8.70066 29.9781C8.5667 29.8353 8.54165 29.6445 8.64075 29.5524C8.74146 29.462 8.92665 29.5042 9.06093 29.6472C9.19488 29.7916 9.2209 29.9813 9.11875 30.0728M9.81005 31.2227C9.68445 31.3099 9.47918 31.2282 9.35245 31.046C9.22701 30.864 9.22701 30.6456 9.35518 30.5581C9.48239 30.4705 9.68445 30.5492 9.81295 30.7299C9.93823 30.9151 9.93823 31.1336 9.80989 31.2229M10.9787 32.5547C10.8664 32.6784 10.6274 32.6453 10.4524 32.4763C10.2734 32.3112 10.2235 32.0769 10.3361 31.953C10.4496 31.829 10.6901 31.8639 10.8664 32.0314C11.0442 32.1962 11.0985 32.4323 10.9789 32.5547M12.4892 33.0044C12.4399 33.1647 12.2095 33.2377 11.9776 33.1696C11.746 33.0994 11.5944 32.9115 11.6411 32.7494C11.6893 32.588 11.9206 32.512 12.1543 32.5849C12.3856 32.6548 12.5375 32.8413 12.4893 33.0044M14.2084 33.1951C14.2142 33.3641 14.0175 33.5041 13.774 33.5072C13.529 33.5125 13.331 33.3758 13.3284 33.2097C13.3284 33.0391 13.5207 32.9004 13.7655 32.8964C14.009 32.8915 14.2084 33.0273 14.2084 33.1951ZM15.8972 33.1304C15.9264 33.2952 15.7571 33.4645 15.5154 33.5094C15.2777 33.5528 15.0576 33.4511 15.0273 33.2878C14.9977 33.1188 15.1702 32.9497 15.4075 32.9058C15.6497 32.8637 15.8663 32.9628 15.8972 33.1304Z" fill="white"/>
</g>
<defs>
<clipPath id="clip0_27_113">
<rect width="41.1184" height="40" fill="white" transform="translate(0.440918)"/>
</clipPath>
</defs>
</svg>
