<svg width="41" height="40" viewBox="0 0 41 40" fill="none" xmlns="http://www.w3.org/2000/svg">
<g clip-path="url(#clip0_20_943)">
<path d="M20.4409 3.05176e-05C9.39513 3.05176e-05 0.440918 8.95424 0.440918 20C0.440918 31.0457 9.39513 39.9999 20.4409 39.9999C31.4866 39.9999 40.4409 31.0457 40.4409 20C40.4408 8.95424 31.4865 3.05176e-05 20.4409 3.05176e-05ZM15.1049 29.6691H10.7137V15.4824H15.1049V29.6691ZM12.8883 13.6245C11.4542 13.6245 10.2916 12.4524 10.2916 11.0068C10.2916 9.56105 11.4544 8.38905 12.8883 8.38905C14.3223 8.38905 15.4849 9.56105 15.4849 11.0068C15.485 12.4525 14.3224 13.6245 12.8883 13.6245ZM31.5608 29.6691H27.1909V22.2222C27.1909 20.1798 26.4151 19.0397 24.8001 19.0397C23.0424 19.0397 22.1242 20.2271 22.1242 22.2222V29.6691H17.9125V15.4824H22.1242V17.3931C22.1242 17.3931 23.391 15.0496 26.3992 15.0496C29.4075 15.0496 31.5609 16.8864 31.5609 20.6862L31.5608 29.6691Z" fill="white"/>
</g>
<defs>
<clipPath id="clip0_20_943">
<rect width="40" height="40" fill="white" transform="translate(0.440918)"/>
</clipPath>
</defs>
</svg>
