<svg width="156" height="55" viewBox="0 0 156 55" fill="none" xmlns="http://www.w3.org/2000/svg">
<path d="M27.6629 55C26.3752 55.0029 25.1386 54.4929 24.2223 53.5812L1.41354 30.882C0.965767 30.4363 0.610243 29.9055 0.36759 29.3203C0.124937 28.7351 0 28.1072 0 27.473C0 26.8388 0.124937 26.2109 0.36759 25.6257C0.610243 25.0405 0.965767 24.5097 1.41354 24.064L24.1301 1.4564C25.0765 0.519127 26.3514 -0.00418922 27.6783 2.52595e-05C29.0051 0.00423974 30.2768 0.535645 31.2173 1.47891C32.1587 2.42981 32.6874 3.71821 32.6875 5.06148C32.6875 6.40474 32.1588 7.69316 31.2174 8.64409L14.3371 25.6566C13.8112 26.1878 13.5158 26.9076 13.5158 27.6581C13.5158 28.4085 13.8112 29.1283 14.3371 29.6596L31.1258 46.5797C31.8114 47.2693 32.2785 48.1484 32.4678 49.1058C32.6572 50.0631 32.5602 51.0555 32.1894 51.9573C31.8185 52.8591 31.1904 53.6297 30.3845 54.1713C29.5787 54.713 28.6315 55.0014 27.6629 55Z" fill="#FF9E00"/>
<path d="M68.3514 16.364V39.5H64.5594V24.556C64.5594 23.9587 64.5914 23.3133 64.6554 22.62L57.6634 35.756C57.3328 36.3853 56.8261 36.7 56.1434 36.7H55.5354C54.8528 36.7 54.3461 36.3853 54.0154 35.756L46.9434 22.572C46.9754 22.924 47.0021 23.2707 47.0234 23.612C47.0448 23.9533 47.0554 24.268 47.0554 24.556V39.5H43.2634V16.364H46.5114C46.7034 16.364 46.8688 16.3693 47.0074 16.38C47.1461 16.3907 47.2688 16.4173 47.3754 16.46C47.4928 16.5027 47.5941 16.572 47.6794 16.668C47.7754 16.764 47.8661 16.892 47.9514 17.052L54.8794 29.9C55.0608 30.2413 55.2261 30.5933 55.3754 30.956C55.5354 31.3187 55.6901 31.692 55.8394 32.076C55.9888 31.6813 56.1434 31.3027 56.3034 30.94C56.4634 30.5667 56.6341 30.2093 56.8154 29.868L63.6474 17.052C63.7328 16.892 63.8234 16.764 63.9194 16.668C64.0154 16.572 64.1168 16.5027 64.2234 16.46C64.3408 16.4173 64.4688 16.3907 64.6074 16.38C64.7461 16.3693 64.9114 16.364 65.1034 16.364H68.3514ZM93.0174 16.364V39.5H88.6974V29.388H77.8334V39.5H73.5134V16.364H77.8334V26.316H88.6974V16.364H93.0174ZM102.09 24.764C102.602 24.6573 103.092 24.5827 103.562 24.54C104.031 24.4867 104.484 24.46 104.922 24.46C106.138 24.46 107.21 24.6413 108.138 25.004C109.066 25.3667 109.844 25.868 110.474 26.508C111.103 27.148 111.578 27.9 111.898 28.764C112.218 29.6173 112.378 30.54 112.378 31.532C112.378 32.7587 112.159 33.8787 111.722 34.892C111.295 35.9053 110.698 36.7747 109.93 37.5C109.162 38.2147 108.25 38.7693 107.194 39.164C106.148 39.5587 105.007 39.756 103.77 39.756C103.044 39.756 102.356 39.6813 101.706 39.532C101.055 39.3827 100.442 39.1853 99.8657 38.94C99.3004 38.684 98.7724 38.396 98.2817 38.076C97.8017 37.7453 97.3697 37.3987 96.9857 37.036L98.2017 35.356C98.4577 34.9933 98.7937 34.812 99.2097 34.812C99.4764 34.812 99.7484 34.8973 100.026 35.068C100.303 35.2387 100.618 35.4253 100.97 35.628C101.332 35.8307 101.754 36.0173 102.234 36.188C102.724 36.3587 103.311 36.444 103.994 36.444C104.719 36.444 105.359 36.3267 105.914 36.092C106.468 35.8573 106.927 35.532 107.29 35.116C107.663 34.6893 107.94 34.188 108.122 33.612C108.314 33.0253 108.41 32.3907 108.41 31.708C108.41 30.4493 108.042 29.468 107.306 28.764C106.58 28.0493 105.503 27.692 104.074 27.692C102.975 27.692 101.85 27.8947 100.698 28.3L98.2337 27.596L100.154 16.364H111.578V18.044C111.578 18.6093 111.402 19.068 111.05 19.42C110.698 19.772 110.1 19.948 109.258 19.948H102.906L102.09 24.764Z" fill="white"/>
<path d="M127.714 55C126.746 55.0014 125.799 54.713 124.993 54.1713C124.187 53.6297 123.559 52.8591 123.188 51.9573C122.817 51.0556 122.72 50.0631 122.91 49.1058C123.099 48.1484 123.566 47.2693 124.251 46.5797L141.04 29.6597C141.566 29.1284 141.861 28.4086 141.861 27.6581C141.861 26.9077 141.566 26.1879 141.04 25.6566L124.16 8.6441C123.693 8.17363 123.323 7.61509 123.07 7.00039C122.817 6.38568 122.687 5.72684 122.687 5.06149C122.687 4.39614 122.817 3.73731 123.07 3.12261C123.323 2.50791 123.693 1.94939 124.16 1.47893C125.1 0.53566 126.372 0.00423974 127.699 2.52588e-05C129.026 -0.00418922 130.301 0.519142 131.247 1.45642L153.964 24.064C154.412 24.5097 154.767 25.0405 155.01 25.6257C155.252 26.2109 155.377 26.8388 155.377 27.473C155.377 28.1072 155.252 28.7352 155.01 29.3203C154.767 29.9055 154.412 30.4363 153.964 30.882L131.155 53.5812C130.239 54.4929 129.002 55.0028 127.714 55Z" fill="#FF9E00"/>
</svg>
