<svg width="156" height="55" viewBox="0 0 156 55" fill="none" xmlns="http://www.w3.org/2000/svg">
<path d="M27.6629 55C26.3752 55.003 25.1386 54.493 24.2223 53.5812L1.41354 30.882C0.965767 30.4364 0.610243 29.9056 0.36759 29.3204C0.124937 28.7352 0 28.1073 0 27.4731C0 26.8388 0.124937 26.2109 0.36759 25.6257C0.610243 25.0406 0.965767 24.5097 1.41354 24.0641L24.1301 1.45646C25.0765 0.519188 26.3514 -0.00412818 27.6783 8.62947e-05C29.0051 0.00430077 30.2768 0.535706 31.2173 1.47897C32.1587 2.42987 32.6874 3.71827 32.6875 5.06154C32.6875 6.4048 32.1588 7.69322 31.2174 8.64415L14.3371 25.6566C13.8112 26.1879 13.5158 26.9077 13.5158 27.6582C13.5158 28.4086 13.8112 29.1284 14.3371 29.6597L31.1258 46.5798C31.8114 47.2693 32.2785 48.1485 32.4678 49.1058C32.6572 50.0632 32.5602 51.0556 32.1894 51.9574C31.8185 52.8592 31.1904 53.6297 30.3845 54.1714C29.5787 54.713 28.6315 55.0014 27.6629 55Z" fill="#FF9E00"/>
<path d="M50.2554 27.372C51.0661 27.372 51.7701 27.2707 52.3674 27.068C52.9754 26.8653 53.4714 26.588 53.8554 26.236C54.2501 25.8733 54.5434 25.4467 54.7354 24.956C54.9274 24.4653 55.0234 23.9267 55.0234 23.34C55.0234 22.1667 54.6341 21.2653 53.8554 20.636C53.0874 20.0067 51.9088 19.692 50.3194 19.692H47.5674V27.372H50.2554ZM61.3274 39.5H57.4394C56.7034 39.5 56.1701 39.212 55.8394 38.636L50.9754 31.228C50.7941 30.9507 50.5914 30.7533 50.3674 30.636C50.1541 30.5187 49.8341 30.46 49.4074 30.46H47.5674V39.5H43.2634V16.364H50.3194C51.8874 16.364 53.2314 16.5293 54.3514 16.86C55.4821 17.18 56.4048 17.6333 57.1194 18.22C57.8448 18.8067 58.3781 19.5107 58.7194 20.332C59.0608 21.1427 59.2314 22.0387 59.2314 23.02C59.2314 23.7987 59.1141 24.5347 58.8794 25.228C58.6554 25.9213 58.3248 26.5507 57.8874 27.116C57.4608 27.6813 56.9274 28.1773 56.2874 28.604C55.6581 29.0307 54.9381 29.3667 54.1274 29.612C54.4048 29.772 54.6608 29.964 54.8954 30.188C55.1301 30.4013 55.3434 30.6573 55.5354 30.956L61.3274 39.5ZM83.3299 16.364V39.5H79.0099V29.388H68.1459V39.5H63.8259V16.364H68.1459V26.316H79.0099V16.364H83.3299ZM92.4022 24.764C92.9142 24.6573 93.4049 24.5827 93.8742 24.54C94.3435 24.4867 94.7969 24.46 95.2342 24.46C96.4502 24.46 97.5222 24.6413 98.4502 25.004C99.3782 25.3667 100.157 25.868 100.786 26.508C101.416 27.148 101.89 27.9 102.21 28.764C102.53 29.6173 102.69 30.54 102.69 31.532C102.69 32.7587 102.472 33.8787 102.034 34.892C101.608 35.9053 101.01 36.7747 100.242 37.5C99.4742 38.2147 98.5622 38.7693 97.5062 39.164C96.4609 39.5587 95.3195 39.756 94.0822 39.756C93.3569 39.756 92.6689 39.6813 92.0182 39.532C91.3675 39.3827 90.7542 39.1853 90.1782 38.94C89.6129 38.684 89.0849 38.396 88.5942 38.076C88.1142 37.7453 87.6822 37.3987 87.2982 37.036L88.5142 35.356C88.7702 34.9933 89.1062 34.812 89.5222 34.812C89.7889 34.812 90.0609 34.8973 90.3382 35.068C90.6155 35.2387 90.9302 35.4253 91.2822 35.628C91.6449 35.8307 92.0662 36.0173 92.5462 36.188C93.0369 36.3587 93.6235 36.444 94.3062 36.444C95.0315 36.444 95.6715 36.3267 96.2262 36.092C96.7809 35.8573 97.2395 35.532 97.6022 35.116C97.9755 34.6893 98.2529 34.188 98.4342 33.612C98.6262 33.0253 98.7222 32.3907 98.7222 31.708C98.7222 30.4493 98.3542 29.468 97.6182 28.764C96.8929 28.0493 95.8155 27.692 94.3862 27.692C93.2875 27.692 92.1622 27.8947 91.0102 28.3L88.5462 27.596L90.4662 16.364H101.89V18.044C101.89 18.6093 101.714 19.068 101.362 19.42C101.01 19.772 100.413 19.948 99.5702 19.948H93.2182L92.4022 24.764Z" fill="white"/>
<path d="M127.714 55C126.746 55.0014 125.799 54.713 124.993 54.1713C124.187 53.6297 123.559 52.8591 123.188 51.9573C122.817 51.0556 122.72 50.0631 122.91 49.1058C123.099 48.1484 123.566 47.2693 124.251 46.5797L141.04 29.6597C141.566 29.1284 141.861 28.4086 141.861 27.6581C141.861 26.9077 141.566 26.1879 141.04 25.6566L124.16 8.6441C123.693 8.17363 123.323 7.61509 123.07 7.00039C122.817 6.38568 122.687 5.72684 122.687 5.06149C122.687 4.39614 122.817 3.73731 123.07 3.12261C123.323 2.50791 123.693 1.94939 124.16 1.47893V1.47893C125.1 0.53566 126.372 0.00423974 127.699 2.52588e-05C129.026 -0.00418922 130.301 0.519142 131.247 1.45642L153.964 24.064C154.412 24.5097 154.767 25.0405 155.01 25.6257C155.252 26.2109 155.377 26.8388 155.377 27.473C155.377 28.1072 155.252 28.7352 155.01 29.3203C154.767 29.9055 154.412 30.4363 153.964 30.882L131.155 53.5812C130.239 54.4929 129.002 55.0028 127.714 55Z" fill="#FF9E00"/>
</svg>
