<svg width="755" height="494" viewBox="0 0 755 494" fill="none" xmlns="http://www.w3.org/2000/svg">
<path d="M373.618 83.9805C386.268 83.9805 396.522 73.7328 396.522 61.0917C396.522 48.4506 386.268 38.2029 373.618 38.2029C360.969 38.2029 350.715 48.4506 350.715 61.0917C350.715 73.7328 360.969 83.9805 373.618 83.9805Z" fill="#FF9E00"/>
<path d="M424.879 50.2535C424.233 48.1369 422.982 46.2553 421.279 44.8404C419.577 43.4254 417.497 42.5388 415.297 42.2898C415.246 42.2855 415.194 42.2855 415.143 42.2898C415.081 42.2705 415.018 42.2562 414.954 42.2469C407.285 41.2525 398.759 43.6699 393.02 48.9334C390.89 50.8565 389.186 53.2043 388.019 55.8255C386.955 54.3734 385.553 53.2023 383.935 52.4137C382.316 51.625 380.529 51.2425 378.729 51.2993C376.408 51.4527 374.19 52.3178 372.379 53.7767C370.567 55.2356 369.25 57.2173 368.607 59.4516C368.536 59.7246 368.556 60.0131 368.663 60.2741C368.769 60.5352 368.957 60.7548 369.199 60.9003C369.889 61.49 370.709 61.9072 371.592 62.1176C373.488 62.5205 375.401 62.8891 377.314 63.2234C381.054 63.8749 384.814 64.4036 388.594 64.8093C391.09 65.0751 393.592 65.2865 396.1 65.4437C401.281 65.7694 406.488 65.8466 411.677 65.6837C414.251 65.598 416.721 65.5122 419.072 64.3807C420.784 63.539 422.248 62.2655 423.318 60.686C424.325 59.1667 424.987 57.4453 425.256 55.6428C425.526 53.8404 425.397 52.0008 424.879 50.2535Z" fill="#E6E6E6"/>
<path d="M377.76 83.5999C377.716 82.6408 377.555 81.6907 377.28 80.771C376.631 78.6546 375.377 76.7736 373.674 75.3589C371.97 73.9443 369.89 73.0574 367.689 72.8073C367.641 72.803 367.592 72.803 367.544 72.8073C367.479 72.7889 367.413 72.7746 367.346 72.7645C363.102 72.2449 358.795 72.6873 354.745 74.0589C348.518 76.142 343.053 80.3424 340.42 86.3431C339.355 84.89 337.952 83.7184 336.331 82.9297C334.711 82.141 332.923 81.759 331.121 81.8169C328.8 81.9702 326.582 82.8353 324.771 84.2942C322.96 85.7531 321.643 87.7348 320.999 89.9692C320.933 90.2422 320.954 90.5293 321.06 90.7894C321.167 91.0496 321.352 91.2695 321.591 91.4179C322.282 92.0059 323.102 92.4229 323.985 92.6351C325.889 93.038 327.793 93.4067 329.715 93.741C333.455 94.3925 337.212 94.9211 340.986 95.3269C348.654 96.1495 356.37 96.4416 364.078 96.2012C366.643 96.1155 369.122 96.0298 371.472 94.8983C373.182 94.0562 374.643 92.7826 375.71 91.2036C377.213 88.9643 377.934 86.291 377.76 83.5999Z" fill="#E6E6E6"/>
<path d="M676.059 361.334C676.388 376.94 674.233 392.499 669.675 407.43C669.515 407.972 669.323 408.514 669.132 409.057H575.156C576.499 402.446 578.632 396.019 581.508 389.916C589.329 373.328 602.097 359.133 614.706 345.033C632.071 325.606 649.021 306.338 651.703 281.073C658.586 291.559 664.08 302.893 668.047 314.792C663.19 316.589 658.733 319.32 654.927 322.83C653.874 323.819 652.756 325.255 653.299 326.626C653.81 327.775 655.214 328.158 656.459 328.413C659.46 328.987 662.46 329.561 665.461 330.104C667.823 330.582 670.217 331.029 672.611 331.475C674.716 341.295 675.87 351.294 676.059 361.334Z" fill="#F2F2F2"/>
<path d="M755 350.998C739.933 360.154 730.357 374.317 722.536 390.172C715.73 391.722 709.448 395.021 704.309 399.742C703.224 400.731 702.107 402.166 702.681 403.538C703.16 404.686 704.596 405.069 705.841 405.324C708.81 405.899 711.842 406.473 714.811 407.015C714.524 407.685 714.236 408.387 713.949 409.057H614.355C618.876 402.963 623.883 397.245 629.326 391.958C630.507 390.778 631.72 389.661 632.965 388.513C645.661 377.047 660.239 367.853 676.059 361.334C700.981 350.922 728.235 347.354 755 350.998Z" fill="#F2F2F2"/>
<path d="M630.954 409.057H542.277C541.793 401.96 541.835 394.838 542.405 387.747C545.948 343.948 569.793 302.223 605.768 276.958C601.172 293.323 603.534 309.592 608.322 325.925C607.652 326.148 606.981 326.339 606.375 326.594C601.518 328.392 597.061 331.123 593.255 334.633C592.202 335.622 591.085 337.058 591.627 338.43C592.106 339.578 593.542 339.961 594.787 340.216C597.788 340.79 600.789 341.364 603.757 341.907C606.151 342.385 608.545 342.832 610.939 343.31C612.057 343.502 613.174 343.725 614.291 343.948C614.451 344.331 614.547 344.682 614.706 345.033C620.324 360.504 626.453 376.104 629.326 391.958C630.037 395.937 630.528 399.952 630.795 403.984C630.89 405.675 630.954 407.366 630.954 409.057Z" fill="#F2F2F2"/>
<path d="M147.655 361.334C147.984 376.94 145.829 392.499 141.271 407.43C141.111 407.972 140.919 408.514 140.728 409.057H46.7518C48.0952 402.446 50.2279 396.019 53.1043 389.916C60.9248 373.328 73.6933 359.133 86.3023 345.033C103.667 325.606 120.618 306.338 123.299 281.073C130.182 291.559 135.676 302.893 139.643 314.792C134.786 316.589 130.329 319.32 126.523 322.83C125.47 323.819 124.352 325.255 124.895 326.626C125.406 327.775 126.81 328.158 128.055 328.413C131.056 328.987 134.056 329.561 137.057 330.104C139.419 330.582 141.813 331.029 144.207 331.475C146.312 341.295 147.466 351.294 147.655 361.334Z" fill="#F2F2F2"/>
<path d="M226.596 350.998C211.529 360.154 201.953 374.317 194.132 390.172C187.327 391.722 181.044 395.021 175.905 399.742C174.82 400.731 173.703 402.166 174.277 403.538C174.756 404.686 176.193 405.069 177.437 405.324C180.406 405.899 183.439 406.473 186.407 407.015C186.12 407.685 185.833 408.387 185.546 409.057H85.9512C90.4723 402.963 95.4789 397.245 100.922 391.958C102.103 390.778 103.316 389.661 104.561 388.513C117.257 377.047 131.835 367.853 147.655 361.334C172.577 350.922 199.831 347.354 226.596 350.998Z" fill="#F2F2F2"/>
<path d="M102.55 409.057H13.873C13.3887 401.96 13.4314 394.838 14.0008 387.747C17.544 343.948 41.3891 302.223 77.3644 276.958C72.7677 293.323 75.1298 309.592 79.918 325.925C79.2478 326.148 78.5774 326.339 77.9709 326.594C73.1144 328.392 68.6573 331.123 64.8513 334.633C63.7979 335.622 62.6807 337.058 63.2233 338.43C63.702 339.578 65.1385 339.961 66.3834 340.216C69.384 340.79 72.3846 341.364 75.3533 341.907C77.7474 342.385 80.1415 342.832 82.5356 343.31C83.6527 343.502 84.7701 343.725 85.8873 343.948C86.0468 344.331 86.1427 344.682 86.3023 345.033C91.9204 360.504 98.0492 376.104 100.922 391.958C101.633 395.937 102.124 399.952 102.391 403.984C102.486 405.675 102.55 407.366 102.55 409.057Z" fill="#F2F2F2"/>
<path d="M432.682 371.851L511.917 378.88L512.766 378.957V41.0872C512.483 40.8901 512.2 40.6929 511.917 40.4958C495.404 28.9528 477.54 19.4701 458.725 12.2585L454.676 68.0644L454.307 73.1735L450.301 128.516L449.066 145.541L432.828 369.879L432.682 371.851Z" fill="#E6E6E6"/>
<path d="M236.735 34.7951C236.169 35.1552 235.603 35.5152 235.037 35.8924V378.957L236.735 378.803L315.112 371.851L314.966 369.879L298.728 145.541L297.493 128.516L293.487 73.1735L293.118 68.0644L288.872 9.54105C270.561 15.884 253.062 24.3605 236.735 34.7951Z" fill="#E6E6E6"/>
<path d="M235.037 35.8924C233.896 36.6296 232.755 37.384 231.631 38.1469V383.638C231.631 392.27 236.752 399.505 243.598 401.348C244.716 401.651 245.87 401.804 247.029 401.802H501.623C502.779 401.804 503.931 401.651 505.046 401.348C507.591 400.643 509.897 399.262 511.72 397.353C515.197 393.64 517.097 388.723 517.021 383.638V44.1561C515.614 43.1188 514.199 42.0902 512.766 41.0872C512.483 40.89 512.2 40.6929 511.917 40.4957V383.638C511.919 384.75 511.786 385.858 511.522 386.938C510.313 392.039 506.324 395.776 501.623 395.776H247.029C241.35 395.776 236.735 390.333 236.735 383.638V34.7951C236.169 35.1552 235.603 35.5152 235.037 35.8924Z" fill="#E6E6E6"/>
<path d="M514.469 68.0678H234.181V73.176H514.469V68.0678Z" fill="#E6E6E6"/>
<path d="M428.625 2.90604C426.926 2.486 425.228 2.09166 423.512 1.72305V140.432H428.625V2.90604Z" fill="#E6E6E6"/>
<path d="M325.14 0C323.433 0.317176 321.726 0.642928 320.028 0.994394V140.432H325.14V0Z" fill="#E6E6E6"/>
<path d="M179.228 392.862C179.227 395.793 179.789 398.697 180.884 401.417C181.304 402.471 181.806 403.492 182.385 404.468C183.133 405.742 184 406.942 184.976 408.052C187.131 410.506 189.785 412.472 192.761 413.819C195.738 415.166 198.967 415.862 202.235 415.861H537.9C544.001 415.861 549.853 413.439 554.167 409.127C558.482 404.816 560.906 398.968 560.906 392.87C560.906 386.773 558.482 380.925 554.167 376.613C549.853 372.301 544.001 369.879 537.9 369.879H202.235C196.136 369.885 190.289 372.308 185.976 376.617C181.663 380.925 179.237 386.767 179.228 392.862Z" fill="#E6E6E6"/>
<path d="M234.181 145.543L512.765 145.543V128.516L234.181 128.516V145.543Z" fill="#E6E6E6"/>
<path d="M385.4 132.772H361.546C361.546 130.289 362.533 127.907 364.291 126.15C366.048 124.394 368.432 123.407 370.917 123.407H376.029C377.259 123.407 378.478 123.65 379.615 124.12C380.752 124.591 381.785 125.281 382.655 126.15C383.526 127.02 384.216 128.052 384.687 129.189C385.158 130.325 385.4 131.543 385.4 132.772H385.4Z" fill="#E6E6E6"/>
<path d="M0 405.994C7.45191 414.818 15.512 423.111 24.1213 430.811H716.004C724.614 423.111 732.674 414.818 740.126 405.994H0Z" fill="#13096c"/>
<path d="M340.28 323.006V410.923H401.913V323.006C401.914 322.373 401.712 321.757 401.337 321.248C400.962 320.739 400.433 320.363 399.828 320.177C399.543 320.083 399.245 320.036 398.945 320.04H343.257C342.866 320.039 342.479 320.115 342.119 320.264C341.758 320.412 341.43 320.631 341.153 320.906C340.877 321.182 340.657 321.509 340.508 321.869C340.358 322.229 340.28 322.615 340.28 323.006ZM364.333 353.215C364.349 351.481 365.049 349.825 366.281 348.605C367.514 347.385 369.178 346.701 370.912 346.701C372.646 346.701 374.31 347.385 375.543 348.605C376.775 349.825 377.475 351.481 377.491 353.215V363.416C377.482 365.154 376.785 366.817 375.552 368.043C374.32 369.269 372.651 369.957 370.912 369.957C369.173 369.957 367.504 369.269 366.272 368.043C365.039 366.817 364.342 365.154 364.333 363.416V353.215Z" fill="#0b0541"/>
<path d="M340.091 408.112V416.59C340.093 417.029 340.267 417.45 340.577 417.761C340.887 418.073 341.308 418.249 341.747 418.253H400.446C400.886 418.251 401.307 418.074 401.617 417.763C401.928 417.451 402.102 417.029 402.102 416.59V408.112H340.091Z" fill="#3F3D56"/>
<path d="M243.323 190.546V351.071C243.325 353.117 244.139 355.079 245.586 356.525C247.034 357.972 248.996 358.785 251.043 358.787H489.082C491.129 358.785 493.092 357.972 494.54 356.525C495.987 355.079 496.801 353.117 496.803 351.071V190.546C496.798 188.502 495.982 186.543 494.535 185.099C493.088 183.654 491.128 182.842 489.082 182.839H251.043C248.998 182.842 247.037 183.654 245.59 185.099C244.143 186.543 243.328 188.502 243.323 190.546Z" fill="#0b0541"/>
<path d="M248.907 192.543V349.091C248.909 350.184 249.345 351.232 250.118 352.005C250.891 352.778 251.94 353.213 253.033 353.215H487.101C488.195 353.213 489.243 352.778 490.016 352.005C490.79 351.232 491.225 350.184 491.227 349.091V192.543C491.227 191.449 490.792 190.399 490.019 189.625C489.245 188.85 488.196 188.414 487.101 188.411H253.033C251.938 188.414 250.889 188.85 250.115 189.625C249.342 190.399 248.907 191.449 248.907 192.543Z" fill="#25189b"/>
<path d="M296.635 420.25C296.874 420.549 297.176 420.789 297.521 420.954C297.866 421.119 298.243 421.204 298.625 421.202H437.88C438.261 421.201 438.637 421.116 438.981 420.952C439.325 420.788 439.627 420.55 439.867 420.254C440.107 419.959 440.278 419.613 440.368 419.243C440.457 418.873 440.463 418.488 440.385 418.116L438.224 407.855C438.134 407.436 437.941 407.047 437.662 406.722C437.384 406.397 437.028 406.147 436.628 405.994C436.338 405.881 436.03 405.823 435.719 405.823H300.779C300.467 405.823 300.159 405.881 299.869 405.994C299.469 406.147 299.114 406.397 298.835 406.722C298.556 407.047 298.363 407.436 298.274 407.855L296.112 418.116C296.035 418.488 296.042 418.873 296.133 419.242C296.223 419.611 296.395 419.956 296.635 420.25Z" fill="#0b0541"/>
<path d="M430.859 410.243H434.311C434.542 410.243 434.73 410.055 434.73 409.824V408.089C434.73 407.858 434.542 407.671 434.311 407.671H430.859C430.628 407.671 430.441 407.858 430.441 408.089V409.824C430.441 410.055 430.628 410.243 430.859 410.243Z" fill="#3F3D56"/>
<path d="M422.281 410.243H425.733C425.964 410.243 426.152 410.055 426.152 409.824V408.089C426.152 407.858 425.964 407.671 425.733 407.671H422.281C422.05 407.671 421.863 407.858 421.863 408.089V409.824C421.863 410.055 422.05 410.243 422.281 410.243Z" fill="#3F3D56"/>
<path d="M413.703 410.243H417.155C417.386 410.243 417.574 410.055 417.574 409.824V408.089C417.574 407.858 417.386 407.671 417.155 407.671H413.703C413.472 407.671 413.285 407.858 413.285 408.089V409.824C413.285 410.055 413.472 410.243 413.703 410.243Z" fill="#3F3D56"/>
<path d="M405.125 410.243H408.577C408.808 410.243 408.996 410.055 408.996 409.824V408.089C408.996 407.858 408.808 407.671 408.577 407.671H405.125C404.894 407.671 404.707 407.858 404.707 408.089V409.824C404.707 410.055 404.894 410.243 405.125 410.243Z" fill="#3F3D56"/>
<path d="M396.547 410.243H399.999C400.23 410.243 400.418 410.055 400.418 409.824V408.089C400.418 407.858 400.23 407.671 399.999 407.671H396.547C396.316 407.671 396.129 407.858 396.129 408.089V409.824C396.129 410.055 396.316 410.243 396.547 410.243Z" fill="#3F3D56"/>
<path d="M387.97 410.243H391.421C391.652 410.243 391.84 410.055 391.84 409.824V408.089C391.84 407.858 391.652 407.671 391.421 407.671H387.97C387.738 407.671 387.551 407.858 387.551 408.089V409.824C387.551 410.055 387.738 410.243 387.97 410.243Z" fill="#3F3D56"/>
<path d="M379.392 410.243H382.843C383.074 410.243 383.262 410.055 383.262 409.824V408.089C383.262 407.858 383.074 407.671 382.843 407.671H379.392C379.16 407.671 378.973 407.858 378.973 408.089V409.824C378.973 410.055 379.16 410.243 379.392 410.243Z" fill="#3F3D56"/>
<path d="M370.814 410.243H374.265C374.496 410.243 374.684 410.055 374.684 409.824V408.089C374.684 407.858 374.496 407.671 374.265 407.671H370.814C370.582 407.671 370.395 407.858 370.395 408.089V409.824C370.395 410.055 370.582 410.243 370.814 410.243Z" fill="#3F3D56"/>
<path d="M362.236 410.243H365.687C365.918 410.243 366.106 410.055 366.106 409.824V408.089C366.106 407.858 365.918 407.671 365.687 407.671H362.236C362.004 407.671 361.817 407.858 361.817 408.089V409.824C361.817 410.055 362.004 410.243 362.236 410.243Z" fill="#3F3D56"/>
<path d="M353.658 410.243H357.109C357.34 410.243 357.528 410.055 357.528 409.824V408.089C357.528 407.858 357.34 407.671 357.109 407.671H353.658C353.426 407.671 353.239 407.858 353.239 408.089V409.824C353.239 410.055 353.426 410.243 353.658 410.243Z" fill="#3F3D56"/>
<path d="M345.08 410.243H348.531C348.762 410.243 348.95 410.055 348.95 409.824V408.089C348.95 407.858 348.762 407.671 348.531 407.671H345.08C344.848 407.671 344.661 407.858 344.661 408.089V409.824C344.661 410.055 344.848 410.243 345.08 410.243Z" fill="#3F3D56"/>
<path d="M336.502 410.243H339.953C340.184 410.243 340.372 410.055 340.372 409.824V408.089C340.372 407.858 340.184 407.671 339.953 407.671H336.502C336.27 407.671 336.083 407.858 336.083 408.089V409.824C336.083 410.055 336.27 410.243 336.502 410.243Z" fill="#3F3D56"/>
<path d="M327.924 410.243H331.375C331.606 410.243 331.794 410.055 331.794 409.824V408.089C331.794 407.858 331.606 407.671 331.375 407.671H327.924C327.692 407.671 327.505 407.858 327.505 408.089V409.824C327.505 410.055 327.692 410.243 327.924 410.243Z" fill="#3F3D56"/>
<path d="M319.346 410.243H322.797C323.028 410.243 323.216 410.055 323.216 409.824V408.089C323.216 407.858 323.028 407.671 322.797 407.671H319.346C319.114 407.671 318.927 407.858 318.927 408.089V409.824C318.927 410.055 319.114 410.243 319.346 410.243Z" fill="#3F3D56"/>
<path d="M310.768 410.243H314.219C314.45 410.243 314.638 410.055 314.638 409.824V408.089C314.638 407.858 314.45 407.671 314.219 407.671H310.768C310.536 407.671 310.349 407.858 310.349 408.089V409.824C310.349 410.055 310.536 410.243 310.768 410.243Z" fill="#3F3D56"/>
<path d="M302.19 410.243H305.641C305.872 410.243 306.06 410.055 306.06 409.824V408.089C306.06 407.858 305.872 407.671 305.641 407.671H302.19C301.958 407.671 301.771 407.858 301.771 408.089V409.824C301.771 410.055 301.958 410.243 302.19 410.243Z" fill="#3F3D56"/>
<path d="M430.961 414.529H434.412C434.644 414.529 434.831 414.341 434.831 414.11V412.376C434.831 412.145 434.644 411.957 434.412 411.957H430.961C430.73 411.957 430.542 412.145 430.542 412.376V414.11C430.542 414.341 430.73 414.529 430.961 414.529Z" fill="#3F3D56"/>
<path d="M422.383 414.529H425.834C426.066 414.529 426.253 414.341 426.253 414.11V412.376C426.253 412.145 426.066 411.957 425.834 411.957H422.383C422.152 411.957 421.964 412.145 421.964 412.376V414.11C421.964 414.341 422.152 414.529 422.383 414.529Z" fill="#3F3D56"/>
<path d="M413.805 414.529H417.256C417.488 414.529 417.675 414.341 417.675 414.11V412.376C417.675 412.145 417.488 411.957 417.256 411.957H413.805C413.574 411.957 413.386 412.145 413.386 412.376V414.11C413.386 414.341 413.574 414.529 413.805 414.529Z" fill="#3F3D56"/>
<path d="M405.227 414.529H408.678C408.91 414.529 409.097 414.341 409.097 414.11V412.376C409.097 412.145 408.91 411.957 408.678 411.957H405.227C404.996 411.957 404.808 412.145 404.808 412.376V414.11C404.808 414.341 404.996 414.529 405.227 414.529Z" fill="#3F3D56"/>
<path d="M396.649 414.529H400.1C400.332 414.529 400.519 414.341 400.519 414.11V412.376C400.519 412.145 400.332 411.957 400.1 411.957H396.649C396.418 411.957 396.23 412.145 396.23 412.376V414.11C396.23 414.341 396.418 414.529 396.649 414.529Z" fill="#3F3D56"/>
<path d="M388.071 414.529H391.522C391.754 414.529 391.941 414.341 391.941 414.11V412.376C391.941 412.145 391.754 411.957 391.522 411.957H388.071C387.84 411.957 387.652 412.145 387.652 412.376V414.11C387.652 414.341 387.84 414.529 388.071 414.529Z" fill="#3F3D56"/>
<path d="M379.493 414.529H382.944C383.176 414.529 383.363 414.341 383.363 414.11V412.376C383.363 412.145 383.176 411.957 382.944 411.957H379.493C379.262 411.957 379.074 412.145 379.074 412.376V414.11C379.074 414.341 379.262 414.529 379.493 414.529Z" fill="#3F3D56"/>
<path d="M370.915 414.529H374.366C374.598 414.529 374.785 414.341 374.785 414.11V412.376C374.785 412.145 374.598 411.957 374.366 411.957H370.915C370.684 411.957 370.496 412.145 370.496 412.376V414.11C370.496 414.341 370.684 414.529 370.915 414.529Z" fill="#3F3D56"/>
<path d="M362.337 414.529H365.788C366.02 414.529 366.207 414.341 366.207 414.11V412.376C366.207 412.145 366.02 411.957 365.788 411.957H362.337C362.106 411.957 361.918 412.145 361.918 412.376V414.11C361.918 414.341 362.106 414.529 362.337 414.529Z" fill="#3F3D56"/>
<path d="M353.759 414.529H357.21C357.442 414.529 357.629 414.341 357.629 414.11V412.376C357.629 412.145 357.442 411.957 357.21 411.957H353.759C353.528 411.957 353.34 412.145 353.34 412.376V414.11C353.34 414.341 353.528 414.529 353.759 414.529Z" fill="#3F3D56"/>
<path d="M345.181 414.529H348.632C348.864 414.529 349.051 414.341 349.051 414.11V412.376C349.051 412.145 348.864 411.957 348.632 411.957H345.181C344.95 411.957 344.762 412.145 344.762 412.376V414.11C344.762 414.341 344.95 414.529 345.181 414.529Z" fill="#3F3D56"/>
<path d="M336.603 414.529H340.054C340.286 414.529 340.473 414.341 340.473 414.11V412.376C340.473 412.145 340.286 411.957 340.054 411.957H336.603C336.372 411.957 336.184 412.145 336.184 412.376V414.11C336.184 414.341 336.372 414.529 336.603 414.529Z" fill="#3F3D56"/>
<path d="M328.025 414.529H331.476C331.708 414.529 331.895 414.341 331.895 414.11V412.376C331.895 412.145 331.708 411.957 331.476 411.957H328.025C327.794 411.957 327.606 412.145 327.606 412.376V414.11C327.606 414.341 327.794 414.529 328.025 414.529Z" fill="#3F3D56"/>
<path d="M319.447 414.529H322.898C323.13 414.529 323.317 414.341 323.317 414.11V412.376C323.317 412.145 323.13 411.957 322.898 411.957H319.447C319.216 411.957 319.028 412.145 319.028 412.376V414.11C319.028 414.341 319.216 414.529 319.447 414.529Z" fill="#3F3D56"/>
<path d="M310.869 414.529H314.32C314.552 414.529 314.739 414.341 314.739 414.11V412.376C314.739 412.145 314.552 411.957 314.32 411.957H310.869C310.638 411.957 310.45 412.145 310.45 412.376V414.11C310.45 414.341 310.638 414.529 310.869 414.529Z" fill="#3F3D56"/>
<path d="M302.291 414.529H305.742C305.974 414.529 306.161 414.341 306.161 414.11V412.376C306.161 412.145 305.974 411.957 305.742 411.957H302.291C302.06 411.957 301.872 412.145 301.872 412.376V414.11C301.872 414.341 302.06 414.529 302.291 414.529Z" fill="#3F3D56"/>
<path d="M359.764 419.672H393.238C393.469 419.672 393.657 419.485 393.657 419.254V417.519C393.657 417.288 393.469 417.101 393.238 417.101H359.764C359.532 417.101 359.345 417.288 359.345 417.519V419.254C359.345 419.485 359.532 419.672 359.764 419.672Z" fill="#3F3D56"/>
<path d="M264.795 209.977H483.811C484.039 209.972 484.256 209.878 484.415 209.715C484.574 209.552 484.663 209.334 484.663 209.106C484.663 208.879 484.574 208.66 484.415 208.497C484.256 208.335 484.039 208.241 483.811 208.236H264.795C264.568 208.241 264.351 208.335 264.192 208.497C264.033 208.66 263.943 208.879 263.943 209.106C263.943 209.334 264.033 209.552 264.192 209.715C264.351 209.878 264.568 209.972 264.795 209.977Z" fill="#0b0541"/>
<path d="M468.903 203.792C471.722 203.792 474.007 201.457 474.007 198.577C474.007 195.697 471.722 193.363 468.903 193.363C466.084 193.363 463.798 195.697 463.798 198.577C463.798 201.457 466.084 203.792 468.903 203.792Z" fill="#0b0541"/>
<path d="M451.27 203.792C454.089 203.792 456.374 201.457 456.374 198.577C456.374 195.697 454.089 193.363 451.27 193.363C448.451 193.363 446.166 195.697 446.166 198.577C446.166 201.457 448.451 203.792 451.27 203.792Z" fill="#0b0541"/>
<path d="M433.637 203.792C436.456 203.792 438.741 201.457 438.741 198.577C438.741 195.697 436.456 193.363 433.637 193.363C430.818 193.363 428.533 195.697 428.533 198.577C428.533 201.457 430.818 203.792 433.637 203.792Z" fill="#0b0541"/>
<path d="M274.478 195.604C274.478 195.727 274.501 195.849 274.548 195.963C274.595 196.077 274.664 196.181 274.75 196.269C274.837 196.356 274.94 196.426 275.054 196.473C275.168 196.521 275.29 196.546 275.413 196.547H287.937C288.185 196.541 288.42 196.438 288.593 196.261C288.766 196.084 288.863 195.847 288.863 195.599C288.863 195.352 288.766 195.114 288.593 194.937C288.42 194.76 288.185 194.658 287.937 194.652H275.413C275.163 194.655 274.925 194.757 274.75 194.935C274.574 195.113 274.477 195.354 274.478 195.604Z" fill="#0b0541"/>
<path d="M274.478 199.161C274.478 199.284 274.501 199.407 274.548 199.521C274.595 199.635 274.664 199.739 274.75 199.826C274.837 199.914 274.94 199.983 275.054 200.031C275.168 200.079 275.29 200.104 275.413 200.104H287.937C288.185 200.099 288.421 199.996 288.594 199.819C288.767 199.642 288.864 199.404 288.864 199.157C288.864 198.909 288.767 198.671 288.594 198.494C288.421 198.317 288.185 198.215 287.937 198.21H275.413C275.163 198.213 274.925 198.314 274.75 198.493C274.574 198.671 274.477 198.911 274.478 199.161Z" fill="#0b0541"/>
<path d="M274.478 202.71C274.477 202.96 274.574 203.2 274.75 203.379C274.925 203.557 275.163 203.659 275.413 203.662H287.937C288.185 203.656 288.42 203.553 288.593 203.376C288.766 203.199 288.863 202.962 288.863 202.714C288.863 202.467 288.766 202.229 288.593 202.052C288.42 201.875 288.185 201.773 287.937 201.767H275.413C275.29 201.768 275.168 201.792 275.054 201.84C274.94 201.888 274.837 201.957 274.75 202.045C274.664 202.133 274.595 202.236 274.548 202.35C274.501 202.465 274.478 202.587 274.478 202.71Z" fill="#0b0541"/>
<path d="M278.349 230.204H273.849C272.484 230.204 271.378 231.31 271.378 232.673C271.378 234.037 272.484 235.142 273.849 235.142H278.349C279.713 235.142 280.819 234.037 280.819 232.673C280.819 231.31 279.713 230.204 278.349 230.204Z" fill="#E6E6E6"/>
<path d="M329.817 230.204H325.317C323.952 230.204 322.846 231.31 322.846 232.673C322.846 234.037 323.952 235.142 325.317 235.142H329.817C331.181 235.142 332.287 234.037 332.287 232.673C332.287 231.31 331.181 230.204 329.817 230.204Z" fill="#E6E6E6"/>
<path d="M344.399 230.204H339.899C338.535 230.204 337.429 231.31 337.429 232.673C337.429 234.037 338.535 235.142 339.899 235.142H344.399C345.764 235.142 346.87 234.037 346.87 232.673C346.87 231.31 345.764 230.204 344.399 230.204Z" fill="#E6E6E6"/>
<path d="M315.817 229.793H287.848C286.484 229.793 285.378 230.898 285.378 232.262C285.378 233.625 286.484 234.73 287.848 234.73H315.817C317.182 234.73 318.288 233.625 318.288 232.262C318.288 230.898 317.182 229.793 315.817 229.793Z" fill="#E6E6E6"/>
<path d="M384.441 229.793H356.472C355.108 229.793 354.002 230.898 354.002 232.262C354.002 233.625 355.108 234.73 356.472 234.73H384.441C385.806 234.73 386.912 233.625 386.912 232.262C386.912 230.898 385.806 229.793 384.441 229.793Z" fill="#E6E6E6"/>
<path d="M292.074 241.348H287.573C286.209 241.348 285.103 242.454 285.103 243.817C285.103 245.181 286.209 246.286 287.573 246.286H292.074C293.438 246.286 294.544 245.181 294.544 243.817C294.544 242.454 293.438 241.348 292.074 241.348Z" fill="#E6E6E6"/>
<path d="M343.542 241.348H339.041C337.677 241.348 336.571 242.454 336.571 243.817C336.571 245.181 337.677 246.286 339.041 246.286H343.542C344.906 246.286 346.012 245.181 346.012 243.817C346.012 242.454 344.906 241.348 343.542 241.348Z" fill="#E6E6E6"/>
<path d="M358.124 241.348H353.624C352.26 241.348 351.154 242.454 351.154 243.817C351.154 245.181 352.26 246.286 353.624 246.286H358.124C359.488 246.286 360.594 245.181 360.594 243.817C360.594 242.454 359.488 241.348 358.124 241.348Z" fill="#E6E6E6"/>
<path d="M329.542 240.937H301.573C300.208 240.937 299.102 242.042 299.102 243.406C299.102 244.769 300.208 245.874 301.573 245.874H329.542C330.906 245.874 332.012 244.769 332.012 243.406C332.012 242.042 330.906 240.937 329.542 240.937Z" fill="#E6E6E6"/>
<path d="M398.166 240.937H370.197C368.832 240.937 367.726 242.042 367.726 243.406C367.726 244.769 368.832 245.874 370.197 245.874H398.166C399.53 245.874 400.636 244.769 400.636 243.406C400.636 242.042 399.53 240.937 398.166 240.937Z" fill="#E6E6E6"/>
<path d="M305.798 252.492H301.298C299.934 252.492 298.828 253.598 298.828 254.961C298.828 256.325 299.934 257.43 301.298 257.43H305.798C307.163 257.43 308.269 256.325 308.269 254.961C308.269 253.598 307.163 252.492 305.798 252.492Z" fill="#E6E6E6"/>
<path d="M357.266 252.492H352.766C351.402 252.492 350.296 253.598 350.296 254.961C350.296 256.325 351.402 257.43 352.766 257.43H357.266C358.631 257.43 359.737 256.325 359.737 254.961C359.737 253.598 358.631 252.492 357.266 252.492Z" fill="#E6E6E6"/>
<path d="M371.849 252.492H367.349C365.984 252.492 364.878 253.598 364.878 254.961C364.878 256.325 365.984 257.43 367.349 257.43H371.849C373.213 257.43 374.319 256.325 374.319 254.961C374.319 253.598 373.213 252.492 371.849 252.492Z" fill="#E6E6E6"/>
<path d="M343.267 252.081H315.298C313.933 252.081 312.827 253.186 312.827 254.55C312.827 255.913 313.933 257.018 315.298 257.018H343.267C344.631 257.018 345.737 255.913 345.737 254.55C345.737 253.186 344.631 252.081 343.267 252.081Z" fill="#E6E6E6"/>
<path d="M411.891 252.081H383.922C382.557 252.081 381.451 253.186 381.451 254.55C381.451 255.913 382.557 257.018 383.922 257.018H411.891C413.255 257.018 414.361 255.913 414.361 254.55C414.361 253.186 413.255 252.081 411.891 252.081Z" fill="#E6E6E6"/>
<path d="M319.523 263.636H315.023C313.659 263.636 312.553 264.742 312.553 266.105C312.553 267.469 313.659 268.574 315.023 268.574H319.523C320.888 268.574 321.994 267.469 321.994 266.105C321.994 264.742 320.888 263.636 319.523 263.636Z" fill="#E6E6E6"/>
<path d="M370.991 263.636H366.491C365.127 263.636 364.021 264.742 364.021 266.105C364.021 267.469 365.127 268.574 366.491 268.574H370.991C372.355 268.574 373.462 267.469 373.462 266.105C373.462 264.742 372.355 263.636 370.991 263.636Z" fill="#E6E6E6"/>
<path d="M385.574 263.636H381.073C379.709 263.636 378.603 264.742 378.603 266.105C378.603 267.469 379.709 268.574 381.073 268.574H385.574C386.938 268.574 388.044 267.469 388.044 266.105C388.044 264.742 386.938 263.636 385.574 263.636Z" fill="#E6E6E6"/>
<path d="M356.992 263.225H329.022C327.658 263.225 326.552 264.33 326.552 265.694C326.552 267.057 327.658 268.162 329.022 268.162H356.992C358.356 268.162 359.462 267.057 359.462 265.694C359.462 264.33 358.356 263.225 356.992 263.225Z" fill="#E6E6E6"/>
<path d="M329.817 307.95H325.317C323.952 307.95 322.846 309.055 322.846 310.419C322.846 311.782 323.952 312.887 325.317 312.887H329.817C331.181 312.887 332.287 311.782 332.287 310.419C332.287 309.055 331.181 307.95 329.817 307.95Z" fill="#E6E6E6"/>
<path d="M344.399 307.95H339.899C338.535 307.95 337.429 309.055 337.429 310.419C337.429 311.782 338.535 312.887 339.899 312.887H344.399C345.764 312.887 346.87 311.782 346.87 310.419C346.87 309.055 345.764 307.95 344.399 307.95Z" fill="#E6E6E6"/>
<path d="M384.441 308.361H356.472C355.108 308.361 354.002 309.467 354.002 310.83C354.002 312.194 355.108 313.299 356.472 313.299H384.441C385.806 313.299 386.912 312.194 386.912 310.83C386.912 309.467 385.806 308.361 384.441 308.361Z" fill="#E6E6E6"/>
<path d="M278.349 307.95H273.849C272.484 307.95 271.378 309.055 271.378 310.419C271.378 311.782 272.484 312.887 273.849 312.887H278.349C279.713 312.887 280.819 311.782 280.819 310.419C280.819 309.055 279.713 307.95 278.349 307.95Z" fill="#E6E6E6"/>
<path d="M315.817 308.361H287.848C286.484 308.361 285.378 309.467 285.378 310.83C285.378 312.194 286.484 313.299 287.848 313.299H315.817C317.182 313.299 318.288 312.194 318.288 310.83C318.288 309.467 317.182 308.361 315.817 308.361Z" fill="#E6E6E6"/>
<path d="M292.074 296.806H287.573C286.209 296.806 285.103 297.911 285.103 299.275C285.103 300.638 286.209 301.743 287.573 301.743H292.074C293.438 301.743 294.544 300.638 294.544 299.275C294.544 297.911 293.438 296.806 292.074 296.806Z" fill="#E6E6E6"/>
<path d="M343.542 296.806H339.041C337.677 296.806 336.571 297.911 336.571 299.275C336.571 300.638 337.677 301.743 339.041 301.743H343.542C344.906 301.743 346.012 300.638 346.012 299.275C346.012 297.911 344.906 296.806 343.542 296.806Z" fill="#E6E6E6"/>
<path d="M358.124 296.806H353.624C352.26 296.806 351.154 297.911 351.154 299.275C351.154 300.638 352.26 301.743 353.624 301.743H358.124C359.488 301.743 360.594 300.638 360.594 299.275C360.594 297.911 359.488 296.806 358.124 296.806Z" fill="#E6E6E6"/>
<path d="M329.542 297.217H301.573C300.208 297.217 299.102 298.323 299.102 299.686C299.102 301.05 300.208 302.155 301.573 302.155H329.542C330.906 302.155 332.012 301.05 332.012 299.686C332.012 298.323 330.906 297.217 329.542 297.217Z" fill="#E6E6E6"/>
<path d="M305.798 285.662H301.298C299.934 285.662 298.828 286.767 298.828 288.131C298.828 289.494 299.934 290.599 301.298 290.599H305.798C307.163 290.599 308.269 289.494 308.269 288.131C308.269 286.767 307.163 285.662 305.798 285.662Z" fill="#E6E6E6"/>
<path d="M357.266 285.662H352.766C351.402 285.662 350.296 286.767 350.296 288.131C350.296 289.494 351.402 290.599 352.766 290.599H357.266C358.631 290.599 359.737 289.494 359.737 288.131C359.737 286.767 358.631 285.662 357.266 285.662Z" fill="#E6E6E6"/>
<path d="M371.849 285.662H367.349C365.984 285.662 364.878 286.767 364.878 288.131C364.878 289.494 365.984 290.599 367.349 290.599H371.849C373.213 290.599 374.319 289.494 374.319 288.131C374.319 286.767 373.213 285.662 371.849 285.662Z" fill="#E6E6E6"/>
<path d="M343.267 286.073H315.298C313.933 286.073 312.827 287.179 312.827 288.542C312.827 289.906 313.933 291.011 315.298 291.011H343.267C344.631 291.011 345.737 289.906 345.737 288.542C345.737 287.179 344.631 286.073 343.267 286.073Z" fill="#E6E6E6"/>
<path d="M319.523 274.518H315.023C313.659 274.518 312.553 275.623 312.553 276.987C312.553 278.35 313.659 279.455 315.023 279.455H319.523C320.888 279.455 321.994 278.35 321.994 276.987C321.994 275.623 320.888 274.518 319.523 274.518Z" fill="#E6E6E6"/>
<path d="M370.991 274.518H366.491C365.127 274.518 364.021 275.623 364.021 276.987C364.021 278.35 365.127 279.455 366.491 279.455H370.991C372.355 279.455 373.462 278.35 373.462 276.987C373.462 275.623 372.355 274.518 370.991 274.518Z" fill="#E6E6E6"/>
<path d="M385.574 274.518H381.073C379.709 274.518 378.603 275.623 378.603 276.987C378.603 278.35 379.709 279.455 381.073 279.455H385.574C386.938 279.455 388.044 278.35 388.044 276.987C388.044 275.623 386.938 274.518 385.574 274.518Z" fill="#E6E6E6"/>
<path d="M356.992 274.929H329.022C327.658 274.929 326.552 276.035 326.552 277.398C326.552 278.762 327.658 279.867 329.022 279.867H356.992C358.356 279.867 359.462 278.762 359.462 277.398C359.462 276.035 358.356 274.929 356.992 274.929Z" fill="#E6E6E6"/>
<path d="M300.154 468.009C299.965 468.103 299.776 468.197 299.588 468.283C298.395 468.874 297.195 469.457 295.985 470.032C292.365 471.755 288.699 473.392 284.988 474.944C275.222 479.025 265.202 482.47 254.991 485.256C253.275 474.566 251.611 449.355 250.016 430.813C249.715 427.324 249.415 424.075 249.115 421.204C248.83 417.434 248.288 413.687 247.494 409.991C247.416 409.701 247.304 409.422 247.159 409.159C247.322 410.642 247.494 415.066 247.657 421.204C247.742 424.075 247.82 427.324 247.905 430.813C248.309 448.661 248.729 472.946 249.149 486.773C247.957 487.065 246.756 487.356 245.555 487.631C244.8 487.811 244.037 487.982 243.273 488.145C242.347 488.351 241.42 488.556 240.494 488.745C239.525 488.951 238.555 489.148 237.586 489.336C221.746 492.446 205.641 494.008 189.498 494C188.426 494 187.362 493.991 186.29 493.983C185.964 493.983 185.638 493.974 185.303 493.966C184.36 493.948 183.382 493.931 182.387 493.906C163.31 493.378 144.358 490.649 125.909 485.77L126.656 430.813L126.784 421.204L126.836 417.56C126.411 418.732 126.157 419.959 126.081 421.204C125.781 423.544 125.472 426.861 125.163 430.813C123.988 446.038 122.778 470.597 121.526 484.57C106.695 480.353 95.8521 476.504 82.2988 469.732C81.7755 469.474 81.2437 469.209 80.7205 468.943C80.8148 468.283 80.9178 467.623 81.0122 466.946C82.5476 456.282 80.7377 442.403 82.4361 430.813C83.7314 421.872 85.0695 413.283 86.4163 405.996C88.0461 397.227 89.7016 390.335 91.34 386.983C93.2272 383.117 95.1144 379.311 96.9415 375.667C97.7307 374.099 98.5056 372.558 99.2661 371.047C99.6778 370.232 100.09 369.427 100.493 368.638C102.328 365.046 104.061 361.729 105.648 358.788C106.763 356.722 107.793 354.854 108.736 353.216C109.843 351.288 110.821 349.693 111.627 348.484C117.583 339.463 126.444 332.745 136.743 329.445L137.001 329.377L137.249 329.48L137.532 329.608L153.882 323.633L161.182 306.069L198.676 303.763L204.732 308.366L207.829 310.723L211.132 313.235L217.205 317.855L218.929 318.387L221.494 319.176L239.036 324.559L239.216 324.482L239.473 324.55C248.845 327.548 257.049 333.392 262.943 341.267C263.526 342.021 264.066 342.801 264.59 343.59C266.014 345.698 267.935 349.033 270.2 353.216C271.135 354.939 272.121 356.808 273.159 358.788C273.785 359.98 279.189 376.833 284.448 394.046C289.363 410.162 294.149 426.596 294.775 430.813C294.887 431.593 295.007 432.382 295.119 433.162C295.831 438.04 296.534 442.952 297.212 447.743C298.215 454.85 299.193 461.708 300.128 467.837C300.137 467.897 300.145 467.949 300.154 468.009Z" fill="#25189b"/>
<path opacity="0.2" d="M260.419 405.957L253.13 377.846L246.694 402.103L260.419 405.957Z" fill="black"/>
<path d="M22.4064 416.465C22.847 417.748 23.6828 418.858 24.7937 419.636C25.9046 420.414 27.2335 420.82 28.5896 420.796L55.0814 420.114C56.4474 420.087 57.7681 419.619 58.8462 418.78C59.9242 417.941 60.7016 416.775 61.0622 415.457L64.8111 375.37C66.1412 375.972 67.5891 376.27 69.049 376.241C71.6106 376.176 74.0416 375.097 75.8075 373.24C77.5733 371.384 78.5292 368.901 78.4649 366.34C78.4006 363.778 77.3213 361.347 75.4646 359.581C73.6078 357.816 71.1257 356.86 68.5641 356.924C67.9806 356.922 67.3986 356.983 66.828 357.105C66.2074 356.433 65.4531 355.899 64.6136 355.537C63.7741 355.175 62.8681 354.992 61.9539 355.002L21.2034 356.054C20.8653 356.066 20.529 356.108 20.1982 356.179C19.3045 356.345 18.4569 356.701 17.7124 357.223C16.9679 357.745 16.3438 358.42 15.8821 359.203C15.4204 359.986 15.1318 360.859 15.0357 361.763C14.9396 362.667 15.0382 363.581 15.325 364.443L22.4064 416.465ZM65.5799 372.648L68.2475 363.095C68.551 361.992 68.558 360.828 68.2679 359.721C68.3973 359.72 68.5115 359.659 68.641 359.659C70.4701 359.621 72.2396 360.31 73.5614 361.575C74.8833 362.839 75.6496 364.577 75.6925 366.406C75.7353 368.235 75.0511 370.006 73.7899 371.332C72.5287 372.657 70.7934 373.428 68.9645 373.476C67.782 373.513 66.6118 373.226 65.5799 372.648Z" fill="#FF9E00"/>
<path d="M20.1982 356.179C21.0664 361.143 30.8273 364.632 42.5641 364.026C53.3568 363.529 62.1816 359.739 63.7983 355.247C63.2 355.07 62.5778 354.987 61.9539 355.002L21.2034 356.054C20.8654 356.066 20.5291 356.108 20.1982 356.179Z" fill="#FF6D00"/>
<path d="M44.7151 394.437C44.7687 394.423 44.8198 394.4 44.866 394.37L50.6192 390.604C50.6887 390.559 50.7459 390.497 50.7854 390.424C50.825 390.351 50.8457 390.269 50.8457 390.186C50.8458 390.103 50.8251 390.022 50.7856 389.949C50.7461 389.876 50.689 389.814 50.6195 389.768L44.6397 385.852C44.5848 385.815 44.5233 385.79 44.4587 385.778C44.3941 385.765 44.3276 385.766 44.2632 385.779C44.1987 385.792 44.1375 385.818 44.0831 385.855C44.0287 385.892 43.9821 385.939 43.946 385.994C43.9099 386.049 43.8851 386.111 43.8729 386.176C43.8607 386.24 43.8613 386.307 43.8749 386.371C43.8884 386.436 43.9146 386.497 43.9518 386.551C43.989 386.605 44.0366 386.652 44.0918 386.687L49.4327 390.186L44.3187 393.533C44.2197 393.598 44.1468 393.696 44.1131 393.809C44.0794 393.923 44.087 394.044 44.1345 394.153C44.1821 394.261 44.2665 394.349 44.3728 394.401C44.4791 394.453 44.6004 394.466 44.715 394.437H44.7151Z" fill="#0b0541"/>
<path d="M35.6283 394.856C35.7249 394.831 35.8119 394.778 35.8783 394.704C35.9447 394.63 35.9874 394.538 36.001 394.439C36.0145 394.34 35.9983 394.24 35.9543 394.15C35.9104 394.061 35.8408 393.987 35.7544 393.937L30.4513 390.897L35.5769 387.09C35.6296 387.05 35.674 387.001 35.7077 386.945C35.7414 386.889 35.7637 386.826 35.7732 386.761C35.7828 386.696 35.7795 386.63 35.7635 386.567C35.7475 386.503 35.7191 386.443 35.68 386.391C35.6408 386.338 35.5917 386.293 35.5354 386.26C35.4791 386.226 35.4167 386.204 35.3518 386.194C35.2869 386.185 35.2207 386.188 35.1571 386.204C35.0935 386.22 35.0336 386.248 34.9809 386.287L29.2423 390.55C29.1756 390.6 29.1223 390.665 29.0872 390.74C29.0521 390.815 29.0362 390.898 29.0411 390.981C29.046 391.064 29.0714 391.144 29.1151 391.215C29.1589 391.285 29.2195 391.344 29.2915 391.385L35.2567 394.805C35.3693 394.869 35.5025 394.887 35.6283 394.856Z" fill="#0b0541"/>
<path d="M44.1429 397.737C44.1913 397.724 44.2375 397.705 44.2799 397.679C44.336 397.645 44.3849 397.6 44.4237 397.547C44.4625 397.494 44.4905 397.434 44.5061 397.37C44.5216 397.306 44.5245 397.24 44.5144 397.175C44.5043 397.11 44.4815 397.048 44.4474 396.992L36.2919 383.583C36.2226 383.471 36.1114 383.39 35.9828 383.359C35.8542 383.328 35.7185 383.349 35.6056 383.418C35.4926 383.487 35.4115 383.598 35.38 383.726C35.3485 383.855 35.3692 383.99 35.4375 384.104L43.5929 397.512C43.6486 397.603 43.732 397.674 43.831 397.715C43.93 397.755 44.0393 397.763 44.1429 397.737Z" fill="#0b0541"/>
<path d="M673.5 468.941C672.976 469.207 672.445 469.473 671.921 469.73C658.368 476.502 647.526 480.351 632.694 484.568C631.442 470.595 630.232 446.036 629.057 430.811C628.748 426.859 628.44 423.542 628.139 421.202C628.064 419.957 627.809 418.73 627.385 417.558L627.436 421.202L627.565 430.811L628.311 485.769C609.862 490.647 590.91 493.377 571.833 493.904C570.838 493.929 569.861 493.947 568.917 493.964C568.582 493.972 568.256 493.981 567.93 493.981C566.858 493.989 565.795 493.998 564.722 493.998C544.619 494.013 524.588 491.586 505.071 486.771C505.491 472.944 505.912 448.659 506.315 430.811C506.401 427.322 506.478 424.073 506.564 421.202C506.726 415.064 506.898 410.641 507.061 409.158C506.917 409.42 506.804 409.7 506.726 409.989C505.932 413.686 505.39 417.432 505.105 421.202C504.805 424.073 504.505 427.322 504.205 430.811C502.609 449.353 500.945 474.565 499.229 485.254C489.018 482.468 478.998 479.023 469.232 474.942C464.085 472.799 459.03 470.487 454.066 468.007C455.01 461.835 455.996 454.917 457.009 447.742C457.798 442.178 458.613 436.46 459.445 430.811C460.731 422.085 504.445 327.849 514.747 324.549L515.004 324.48L515.184 324.557L532.726 319.174L535.291 318.385L537.015 317.854L543.089 313.233L546.391 310.721L549.488 308.364L555.544 303.761L593.038 306.067L600.338 323.631L616.688 329.606L616.971 329.478L617.22 329.375L617.477 329.443C627.776 332.743 636.637 339.461 642.593 348.483C643.4 349.691 644.377 351.286 645.484 353.215C646.428 354.852 647.457 356.721 648.572 358.787C650.159 361.727 651.892 365.044 653.727 368.636C654.131 369.425 654.542 370.231 654.954 371.045C655.718 372.554 656.492 374.094 657.279 375.665C659.106 379.309 660.993 383.115 662.88 386.981C664.519 390.333 666.174 397.225 667.804 405.994C669.151 413.281 670.489 421.87 671.784 430.811C673.483 442.401 671.673 456.28 673.208 466.944C673.302 467.621 673.405 468.281 673.5 468.941Z" fill="#25189b"/>
<path d="M563.534 297.456C587.618 297.456 607.142 277.945 607.142 253.877C607.142 229.809 587.618 210.298 563.534 210.298C539.451 210.298 519.927 229.809 519.927 253.877C519.927 277.945 539.451 297.456 563.534 297.456Z" fill="#FFB6B6"/>
<path opacity="0.2" d="M493.799 405.957L501.088 377.846L507.524 402.103L493.799 405.957Z" fill="black"/>
<path d="M687.756 387.641C685.149 423.542 687.851 439.349 673.457 468.95C660.36 475.355 646.719 480.582 632.694 484.568C631.236 484.98 629.775 485.38 628.311 485.769C609.862 490.647 590.91 493.377 571.833 493.904C570.838 493.929 569.86 493.947 568.917 493.964C568.582 493.972 568.256 493.981 567.93 493.981C566.858 493.989 565.794 493.998 564.722 493.998C544.619 494.013 524.588 491.586 505.071 486.772C503.115 486.291 501.168 485.786 499.229 485.254C489.018 482.468 478.998 479.023 469.232 474.942C464.085 472.799 459.03 470.487 454.066 468.007C452.942 467.441 451.819 466.875 450.712 466.292C445.025 456.297 441.791 444.141 441.723 429.534C445.66 404.366 679.058 365.936 687.756 387.641Z" fill="#0b0541"/>
<path opacity="0.2" d="M687.75 393.789C687.883 391.567 688.032 389.271 688.205 386.88C679.507 365.175 446.109 403.605 442.172 428.773C442.182 431.081 442.281 433.32 442.447 435.506C451.982 410.665 673.714 374.14 687.75 393.789Z" fill="black"/>
<path d="M435.918 389.334L455.076 379.762L439.111 336.685L434.904 314.961C434.357 312.139 433.079 309.509 431.197 307.335C429.314 305.161 426.894 303.519 424.178 302.572C421.462 301.626 418.545 301.408 415.718 301.942C412.891 302.475 410.254 303.74 408.07 305.611C404.833 308.383 402.801 312.304 402.402 316.545C402.003 320.786 403.269 325.017 405.932 328.343L421.55 347.853L435.918 389.334Z" fill="#FFB6B6"/>
<path d="M455.076 371.785L429.532 384.548L448.917 445.248C450.309 449.607 452.805 453.532 456.161 456.644C459.518 459.755 463.623 461.947 468.077 463.007C473.569 464.313 479.334 463.838 484.538 461.65C489.741 459.462 494.112 455.674 497.017 450.836L548.42 362.787C552.063 356.719 553.187 349.469 551.553 342.585C549.919 335.7 545.656 329.727 539.674 325.941C536.457 323.905 532.847 322.569 529.079 322.019C525.311 321.469 521.469 321.719 517.804 322.751C514.139 323.783 510.732 325.575 507.806 328.01C504.88 330.445 502.499 333.469 500.819 336.884L469.444 403.693L455.076 371.785Z" fill="#25189b"/>
<path d="M179.715 294.448C206.215 294.448 227.696 272.981 227.696 246.499C227.696 220.017 206.215 198.55 179.715 198.55C153.216 198.55 131.734 220.017 131.734 246.499C131.734 272.981 153.216 294.448 179.715 294.448Z" fill="#A0616A"/>
<path d="M132.311 213.456C136.212 208.202 141.819 204.466 146.108 199.522C148.461 196.81 150.415 193.736 153.061 191.308C157.977 186.796 164.851 184.947 171.521 184.717C178.831 184.53 186.083 186.065 192.689 189.198C199.296 192.331 205.071 196.974 209.548 202.752C213.035 200.709 216.521 198.667 220.008 196.624C221.385 200.247 222.763 203.87 224.14 207.493C225.271 206.511 226.713 205.961 228.21 205.94C229.708 205.919 231.165 206.428 232.322 207.378C233.48 208.328 234.264 209.657 234.534 211.129C234.805 212.601 234.546 214.121 233.802 215.421C234.632 212.858 238.434 212.315 240.53 214.008C242.625 215.7 243.187 218.712 242.845 221.383C242.416 224.314 241.119 227.049 239.122 229.238C237.125 231.426 234.519 232.968 231.638 233.664C227.088 234.677 221.793 233.613 218.151 236.521C215.231 238.852 214.35 243.097 211.371 245.351C207.699 248.129 202.51 246.844 197.946 247.458C189.962 248.532 183.64 256.693 184.599 264.687C183.877 262.165 183.118 259.569 181.478 257.52C179.839 255.471 177.077 254.086 174.562 254.839C170.406 256.084 169.726 261.746 170.733 265.964C173.405 277.151 183.531 295.234 183.531 295.234C170.383 300.417 154.718 295.516 144.574 285.681C134.429 275.846 129.146 261.919 126.844 247.983C124.892 236.165 125.169 223.076 132.311 213.456Z" fill="#0b0541"/>
<path d="M618.183 277.9C627.311 256.985 622.14 237.739 611.012 227.529V227.52C606.637 217.722 600.821 210.161 594.164 208.387C590.948 206.321 587.825 203.895 584.36 202.661C582.746 202.057 581.026 201.786 579.304 201.864C577.582 201.942 575.894 202.367 574.341 203.115L572.574 202.643C571.072 198.812 569.314 198.734 567.358 201.255C559.827 197.749 553.042 196.18 547.003 196.18C527.308 196.18 515.659 212.844 512.571 232.989L529.032 237.37L534.753 228.258L532.111 238.193L541.195 240.602C555.023 258.595 538.476 300.102 517.503 323.196C522.495 321.816 527.468 320.65 532.42 319.699L550.417 293.33L539.265 317.333C545.055 316.484 552.441 317.298 560.513 318.936C563.232 315.387 564.665 310.655 563.258 306.437C565.558 310.885 567.144 315.667 567.959 320.607C584.995 324.765 608.232 326.899 620.756 328.477C630.875 325.176 630.902 287.895 618.183 277.9Z" fill="#FF9E00"/>
<path d="M624.122 206.757C630.808 221.718 617.317 228.153 604.957 227.972C593.79 227.808 584.298 219.967 583.728 208.82C583.454 203.467 585.32 198.225 588.914 194.246C592.508 190.267 597.536 187.878 602.893 187.605C614.047 187.035 619.567 196.565 624.122 206.757Z" fill="#FF9E00"/>
<path d="M313.939 450.313L302.925 431.954L339.545 404.19L354.771 388.125C356.75 386.038 359.241 384.506 361.997 383.683C364.753 382.859 367.677 382.773 370.477 383.433C373.277 384.093 375.855 385.475 377.952 387.442C380.05 389.41 381.594 391.892 382.431 394.643C383.671 398.719 383.277 403.116 381.334 406.908C379.391 410.7 376.05 413.589 372.015 414.965L348.355 423.037L313.939 450.313Z" fill="#A0616A"/>
<path d="M321.899 449.707L304.752 463.988L300.128 467.837L299.588 468.283C298.396 468.874 297.195 469.457 295.985 470.032C292.365 471.755 288.7 473.392 284.988 474.944C275.223 479.025 265.203 482.47 254.991 485.256C253.052 485.788 251.105 486.293 249.149 486.773C247.957 487.065 246.756 487.356 245.555 487.631C244.8 487.811 244.037 487.982 243.273 488.145C242.347 488.351 241.421 488.557 240.494 488.745C239.525 488.951 238.555 489.148 237.586 489.337C234.978 486.856 232.901 483.872 231.483 480.566C230.064 477.259 229.333 473.698 229.334 470.1C229.334 469.869 229.334 469.629 229.343 469.389L232.096 398.813L233.314 367.532C233.502 360.458 236.451 353.738 241.53 348.808C246.609 343.878 253.417 341.128 260.498 341.147C261.322 341.147 262.136 341.189 262.943 341.267C263.526 342.021 264.066 342.801 264.59 343.59C266.014 345.699 267.935 349.033 270.2 353.216C271.135 354.939 272.121 356.808 273.159 358.788C273.785 359.98 279.189 376.833 284.448 394.046L282.132 412.023L277.946 444.426L295.119 433.162L307.214 425.224L308.646 427.616L312.378 433.839L319.583 445.841L321.899 449.707Z" fill="#25189b"/>
<path d="M312.498 429.536C312.489 430.993 312.455 432.425 312.378 433.839C312.199 437.741 311.746 441.625 311.022 445.463C309.838 451.909 307.726 458.148 304.752 463.988C304.357 464.768 303.937 465.54 303.508 466.294C302.401 466.877 301.278 467.443 300.154 468.009C299.965 468.103 299.776 468.197 299.588 468.283C294.81 470.657 289.943 472.878 284.988 474.944C275.222 479.025 265.202 482.47 254.991 485.256C253.052 485.788 251.105 486.293 249.149 486.773C245.332 487.716 241.478 488.571 237.586 489.337C221.746 492.446 205.641 494.008 189.498 494C188.426 494 187.362 493.991 186.29 493.983C185.964 493.983 185.638 493.974 185.303 493.966C184.36 493.948 183.382 493.931 182.387 493.906C163.31 493.379 144.358 490.649 125.909 485.77C124.442 485.385 122.981 484.985 121.526 484.57C107.501 480.584 93.8597 475.357 80.7634 468.952C66.3695 439.351 69.0716 423.544 66.4639 387.643C71.8165 374.279 162.374 383.717 232.096 398.813C251.019 402.91 268.398 407.428 282.132 412.023C296.32 416.763 306.605 421.581 310.636 426.107C311.578 427.044 312.225 428.236 312.498 429.536Z" fill="#0b0541"/>
<path opacity="0.2" d="M66.469 393.789C66.3358 391.567 66.1869 389.271 66.0132 386.88C74.7113 365.175 308.11 403.605 312.047 428.773C312.036 431.081 311.937 433.32 311.771 435.506C302.236 410.665 80.5048 374.14 66.469 393.789Z" fill="black"/>
</svg>
