<svg width="565" height="366" viewBox="0 0 565 366" fill="none" xmlns="http://www.w3.org/2000/svg">
<g clip-path="url(#clip0_9_787)">
<path d="M91.7869 170.43C100.058 170.43 106.763 163.723 106.763 155.45C106.763 147.177 100.058 140.47 91.7869 140.47C83.5159 140.47 76.811 147.177 76.811 155.45C76.811 163.723 83.5159 170.43 91.7869 170.43Z" fill="#FFB8B8"/>
<path d="M41.1838 334.963L44.9758 341.407L71.6288 329.843L66.032 320.333L41.1838 334.963Z" fill="#FFB8B8"/>
<path d="M42.32 332.081L49.7877 344.771L49.7881 344.772C50.413 345.834 50.8227 347.009 50.9938 348.229C51.1648 349.45 51.0939 350.692 50.785 351.885C50.4761 353.078 49.9353 354.198 49.1935 355.182C48.4517 356.166 47.5234 356.994 46.4616 357.619L46.1989 357.774L33.9721 336.996L42.32 332.081Z" fill="#0b0541"/>
<path d="M85.12 358.178L92.5954 358.177L96.1514 329.336L85.1187 329.336L85.12 358.178Z" fill="#FFB8B8"/>
<path d="M83.2133 355.736L97.9348 355.736H97.9354C99.1674 355.736 100.387 355.979 101.526 356.45C102.664 356.922 103.698 357.613 104.569 358.484C105.441 359.356 106.132 360.39 106.603 361.529C107.075 362.667 107.317 363.888 107.317 365.12V365.425L83.2138 365.426L83.2133 355.736Z" fill="#0b0541"/>
<path d="M55.0667 340.704C54.6365 340.704 54.2122 340.603 53.8283 340.409C53.4444 340.214 53.1117 339.933 52.857 339.586L45.6475 329.791C45.4276 329.493 45.2705 329.152 45.1857 328.791C45.101 328.43 45.0903 328.055 45.1544 327.69C45.2185 327.324 45.356 326.976 45.5586 326.665C45.7612 326.354 46.0247 326.088 46.3332 325.882L78.4142 304.448L59.0569 253.536L100.452 256.953L101.846 300.704C101.977 304.689 101.022 308.634 99.084 312.117C97.1459 315.601 94.2973 318.491 90.8432 320.48L56.4375 340.335C56.021 340.576 55.5481 340.704 55.0667 340.704V340.704Z" fill="#0b0541"/>
<path d="M85.3456 352.322C84.6357 352.321 83.9539 352.045 83.4436 351.551C82.9332 351.057 82.6339 350.385 82.6087 349.675L81.0916 307.054L99.8768 306.064L98.381 348.992C98.359 349.672 98.0845 350.319 97.611 350.808C97.1376 351.297 96.4991 351.591 95.8202 351.635L85.5322 352.316C85.4698 352.321 85.4076 352.322 85.3456 352.322Z" fill="#0b0541"/>
<path d="M105.243 265.417C100.463 265.417 83.7695 260.04 77.9741 258.123C77.1072 258.817 72.3443 262.379 66.7847 261.728C63.3543 261.326 60.3343 259.383 57.8087 255.955C52.2314 248.383 59.1201 215.913 65.8811 190.007C67.2365 184.771 70.5687 180.264 75.1772 177.434C79.7857 174.604 85.3115 173.672 90.5931 174.833V174.833C94.4211 175.678 97.9376 177.574 100.748 180.309C103.557 183.043 105.549 186.507 106.5 190.311C107.773 195.494 106.678 201.591 105.878 206.043C105.502 208.136 105.205 209.79 105.307 210.602C105.699 213.742 107.879 262.988 106.477 265.092C106.328 265.316 105.896 265.417 105.243 265.417Z" fill="#6C63FF"/>
<path d="M87.7582 265.504C88.5263 264.932 89.1597 264.199 89.6138 263.355C90.0679 262.512 90.3316 261.579 90.3863 260.623C90.4411 259.667 90.2855 258.71 89.9306 257.82C89.5758 256.931 89.0302 256.13 88.3323 255.474L88.6283 195.797L74.5769 198.138L78.7044 256.062C77.6805 257.307 77.1489 258.886 77.2105 260.497C77.2721 262.109 77.9225 263.642 79.0385 264.805C80.1545 265.969 81.6585 266.683 83.2656 266.812C84.8727 266.941 86.4712 266.475 87.7582 265.504V265.504Z" fill="#FFB8B8"/>
<path d="M91.0081 234.122H75.8732C75.1505 234.12 74.4576 233.833 73.9442 233.324C73.4308 232.816 73.1381 232.125 73.1294 231.402L72.7578 190.36C72.745 188.941 73.0135 187.533 73.5479 186.219C74.0824 184.904 74.8721 183.708 75.8714 182.701C76.8707 181.693 78.0598 180.894 79.3698 180.349C80.6799 179.804 82.085 179.525 83.5038 179.526C84.9226 179.528 86.327 179.811 87.6357 180.359C88.9444 180.907 90.1316 181.709 91.1284 182.719C92.1252 183.729 92.912 184.927 93.4432 186.243C93.9745 187.559 94.2396 188.967 94.2232 190.386L93.7518 231.409C93.7411 232.13 93.4475 232.819 92.9344 233.326C92.4213 233.834 91.7296 234.119 91.0081 234.122V234.122Z" fill="#6C63FF"/>
<path d="M87.9736 170.368C81.1169 170.38 74.6482 164.959 73.46 158.204C73.0346 155.551 73.2264 152.835 74.0205 150.267C74.8827 147.344 76.3614 144.64 78.3568 142.337C80.3522 140.035 82.8179 138.186 85.5878 136.918C88.3577 135.649 91.3674 134.989 94.4139 134.982C97.4605 134.975 100.473 135.621 103.249 136.878C105.083 137.708 106.89 138.9 107.73 140.731C108.57 142.561 108.044 145.119 106.207 145.943C105.006 146.481 103.499 146.217 102.434 146.989C100.904 148.099 101.298 150.46 101.981 152.223C102.664 153.986 103.437 156.119 102.292 157.622C101.224 159.023 99.0913 158.98 97.4111 158.453C95.7308 157.925 94.0724 157.042 92.3206 157.222C89.7655 157.484 87.9294 160.026 87.5895 162.572C87.2497 165.119 88.0497 167.665 88.8396 170.109L87.9736 170.368Z" fill="#0b0541"/>
<path d="M157.923 366H0.609742C0.448028 366 0.292938 365.936 0.178589 365.821C0.06424 365.707 0 365.552 0 365.39C0 365.228 0.06424 365.073 0.178589 364.959C0.292938 364.844 0.448028 364.78 0.609742 364.78H157.923C158.085 364.78 158.24 364.844 158.354 364.959C158.469 365.073 158.533 365.228 158.533 365.39C158.533 365.552 158.469 365.707 158.354 365.821C158.24 365.936 158.085 366 157.923 366Z" fill="#0b0541"/>
<path d="M554.939 265.037H164.193C161.526 265.034 158.969 263.972 157.082 262.086C155.196 260.199 154.135 257.641 154.132 254.973V13.9634C154.135 12.0087 154.912 10.1347 156.294 8.75249C157.675 7.37029 159.549 6.59277 161.503 6.59052H557.502C559.49 6.59278 561.396 7.38372 562.801 8.78982C564.207 10.1959 564.998 12.1023 565 14.0908V254.973C564.997 257.641 563.936 260.199 562.05 262.086C560.164 263.972 557.607 265.034 554.939 265.037V265.037Z" fill="#F2F2F2"/>
<path d="M542.305 252.331H178.14C172.802 252.331 168.459 248.263 168.459 243.262V33.3881C168.459 29.6798 171.677 26.6627 175.633 26.6627H544.694C548.715 26.6627 551.987 29.7295 551.987 33.4989V243.262C551.987 248.263 547.644 252.331 542.305 252.331Z" fill="#25189b"/>
<path d="M564.86 15.2175H153.991V10.0939C153.995 7.41697 155.06 4.85085 156.953 2.95852C158.846 1.0662 161.412 0.0022197 164.089 0H554.763C557.439 0.00219713 560.005 1.06617 561.898 2.95849C563.791 4.85082 564.856 7.41696 564.86 10.0939V15.2175Z" fill="#0b0541"/>
<path d="M172.342 10.2364C173.784 10.2364 174.953 9.06678 174.953 7.62393C174.953 6.18108 173.784 5.01141 172.342 5.01141C170.899 5.01141 169.73 6.18108 169.73 7.62393C169.73 9.06678 170.899 10.2364 172.342 10.2364Z" fill="#25189b"/>
<path d="M182.255 10.2364C183.698 10.2364 184.867 9.06678 184.867 7.62393C184.867 6.18108 183.698 5.01141 182.255 5.01141C180.813 5.01141 179.644 6.18108 179.644 7.62393C179.644 9.06678 180.813 10.2364 182.255 10.2364Z" fill="#25189b"/>
<path d="M192.169 10.2364C193.611 10.2364 194.781 9.06678 194.781 7.62393C194.781 6.18108 193.611 5.01141 192.169 5.01141C190.727 5.01141 189.557 6.18108 189.557 7.62393C189.557 9.06678 190.727 10.2364 192.169 10.2364Z" fill="#25189b"/>
<path d="M351.584 72.552H280.361C279.299 72.552 278.281 72.13 277.53 71.379C276.779 70.628 276.357 69.6093 276.357 68.5472C276.357 67.4851 276.779 66.4664 277.53 65.7154C278.281 64.9644 279.299 64.5424 280.361 64.5424H351.584C352.645 64.5424 353.664 64.9644 354.415 65.7154C355.165 66.4664 355.587 67.4851 355.587 68.5472C355.587 69.6093 355.165 70.628 354.415 71.379C353.664 72.13 352.645 72.552 351.584 72.552V72.552Z" fill="#CCCCCC"/>
<path d="M440.085 72.552H368.862C367.801 72.552 366.782 72.13 366.031 71.379C365.281 70.628 364.859 69.6093 364.859 68.5472C364.859 67.4851 365.281 66.4664 366.031 65.7154C366.782 64.9644 367.801 64.5424 368.862 64.5424H440.085C441.147 64.5424 442.165 64.9644 442.916 65.7154C443.667 66.4664 444.089 67.4851 444.089 68.5472C444.089 69.6093 443.667 70.628 442.916 71.379C442.165 72.13 441.147 72.552 440.085 72.552V72.552Z" fill="#CCCCCC"/>
<path d="M440.085 87.7279H316.183C315.121 87.7279 314.103 87.306 313.352 86.555C312.601 85.8039 312.179 84.7853 312.179 83.7232C312.179 82.661 312.601 81.6424 313.352 80.8913C314.103 80.1403 315.121 79.7184 316.183 79.7184H440.085C441.147 79.7184 442.165 80.1403 442.916 80.8913C443.667 81.6424 444.089 82.661 444.089 83.7232C444.089 84.7853 443.667 85.8039 442.916 86.555C442.165 87.306 441.147 87.7279 440.085 87.7279Z" fill="#CCCCCC"/>
<path d="M351.584 57.1652H280.361C279.3 57.1639 278.283 56.7414 277.533 55.9905C276.783 55.2396 276.362 54.2217 276.362 53.1604C276.362 52.0991 276.783 51.0813 277.533 50.3304C278.283 49.5795 279.3 49.157 280.361 49.1556H351.584C352.11 49.155 352.631 49.2581 353.117 49.4591C353.604 49.66 354.045 49.9549 354.418 50.3269C354.79 50.6988 355.085 51.1405 355.287 51.6267C355.488 52.1129 355.592 52.6341 355.592 53.1604C355.592 53.6867 355.488 54.2079 355.287 54.6941C355.085 55.1803 354.79 55.622 354.418 55.994C354.045 56.3659 353.604 56.6608 353.117 56.8618C352.631 57.0627 352.11 57.1658 351.584 57.1652V57.1652Z" fill="#CCCCCC"/>
<path d="M390.777 57.3759H370.548C369.486 57.3759 368.468 56.954 367.717 56.203C366.966 55.4519 366.545 54.4333 366.545 53.3712C366.545 52.309 366.966 51.2904 367.717 50.5394C368.468 49.7883 369.486 49.3664 370.548 49.3664H390.777C391.839 49.3664 392.857 49.7883 393.608 50.5394C394.359 51.2904 394.781 52.309 394.781 53.3712C394.781 54.4333 394.359 55.4519 393.608 56.203C392.857 56.954 391.839 57.3759 390.777 57.3759Z" fill="#CCCCCC"/>
<path d="M300.59 87.7279H280.361C279.3 87.7266 278.283 87.3041 277.533 86.5532C276.783 85.8023 276.362 84.7844 276.362 83.7232C276.362 82.6619 276.783 81.644 277.533 80.8931C278.283 80.1422 279.3 79.7197 280.361 79.7184H300.59C301.116 79.7177 301.637 79.8208 302.123 80.0218C302.61 80.2228 303.052 80.5177 303.424 80.8896C303.796 81.2615 304.092 81.7033 304.293 82.1895C304.495 82.6757 304.598 83.1968 304.598 83.7232C304.598 84.2495 304.495 84.7707 304.293 85.2569C304.092 85.7431 303.796 86.1848 303.424 86.5567C303.052 86.9286 302.61 87.2235 302.123 87.4245C301.637 87.6255 301.116 87.7286 300.59 87.7279Z" fill="#CCCCCC"/>
<path d="M351.584 214.662H280.361C279.299 214.662 278.281 214.24 277.53 213.489C276.779 212.738 276.357 211.719 276.357 210.657C276.357 209.595 276.779 208.576 277.53 207.825C278.281 207.074 279.299 206.652 280.361 206.652H351.584C352.109 206.652 352.63 206.756 353.116 206.957C353.601 207.158 354.043 207.453 354.415 207.825C354.786 208.197 355.081 208.639 355.282 209.124C355.484 209.61 355.587 210.131 355.587 210.657C355.587 211.183 355.484 211.704 355.282 212.19C355.081 212.676 354.786 213.117 354.415 213.489C354.043 213.861 353.601 214.156 353.116 214.357C352.63 214.558 352.109 214.662 351.584 214.662V214.662Z" fill="#CCCCCC"/>
<path d="M440.085 214.662H368.862C367.801 214.662 366.782 214.24 366.031 213.489C365.281 212.738 364.859 211.719 364.859 210.657C364.859 209.595 365.281 208.576 366.031 207.825C366.782 207.074 367.801 206.652 368.862 206.652H440.085C440.611 206.652 441.132 206.756 441.617 206.957C442.103 207.158 442.544 207.453 442.916 207.825C443.288 208.197 443.583 208.639 443.784 209.124C443.985 209.61 444.089 210.131 444.089 210.657C444.089 211.183 443.985 211.704 443.784 212.19C443.583 212.676 443.288 213.117 442.916 213.489C442.544 213.861 442.103 214.156 441.617 214.357C441.132 214.558 440.611 214.662 440.085 214.662V214.662Z" fill="#CCCCCC"/>
<path d="M440.085 229.838H316.183C315.121 229.838 314.103 229.416 313.352 228.665C312.601 227.914 312.179 226.895 312.179 225.833C312.179 224.771 312.601 223.752 313.352 223.001C314.103 222.25 315.121 221.828 316.183 221.828H440.085C440.611 221.828 441.133 221.931 441.619 222.132C442.105 222.333 442.547 222.628 442.919 222.999C443.292 223.371 443.587 223.813 443.789 224.299C443.99 224.786 444.094 225.307 444.094 225.833C444.094 226.359 443.99 226.881 443.789 227.367C443.587 227.853 443.292 228.295 442.919 228.667C442.547 229.039 442.105 229.333 441.619 229.534C441.133 229.735 440.611 229.838 440.085 229.838Z" fill="#CCCCCC"/>
<path d="M351.584 199.275H280.361C279.299 199.275 278.281 198.853 277.53 198.102C276.779 197.351 276.357 196.332 276.357 195.27C276.357 194.208 276.779 193.19 277.53 192.438C278.281 191.687 279.299 191.266 280.361 191.266H351.584C352.645 191.266 353.664 191.687 354.415 192.438C355.165 193.19 355.587 194.208 355.587 195.27C355.587 196.332 355.165 197.351 354.415 198.102C353.664 198.853 352.645 199.275 351.584 199.275Z" fill="#CCCCCC"/>
<path d="M390.777 199.486H370.548C369.486 199.486 368.468 199.064 367.717 198.313C366.966 197.562 366.545 196.543 366.545 195.481C366.545 194.419 366.966 193.4 367.717 192.649C368.468 191.898 369.486 191.476 370.548 191.476H390.777C391.839 191.476 392.857 191.898 393.608 192.649C394.359 193.4 394.781 194.419 394.781 195.481C394.781 196.543 394.359 197.562 393.608 198.313C392.857 199.064 391.839 199.486 390.777 199.486V199.486Z" fill="#CCCCCC"/>
<path d="M300.59 229.838H280.361C279.299 229.838 278.281 229.416 277.53 228.665C276.779 227.914 276.357 226.895 276.357 225.833C276.357 224.771 276.779 223.752 277.53 223.001C278.281 222.25 279.299 221.828 280.361 221.828H300.59C301.116 221.828 301.637 221.931 302.123 222.132C302.61 222.333 303.052 222.628 303.424 222.999C303.796 223.371 304.092 223.813 304.293 224.299C304.495 224.786 304.598 225.307 304.598 225.833C304.598 226.359 304.495 226.881 304.293 227.367C304.092 227.853 303.796 228.295 303.424 228.667C303.052 229.039 302.61 229.333 302.123 229.534C301.637 229.735 301.116 229.838 300.59 229.838Z" fill="#CCCCCC"/>
<path d="M332.982 171.667C331.471 171.671 330.019 171.077 328.944 170.014L302.171 143.569C301.645 143.05 301.228 142.431 300.943 141.75C300.658 141.068 300.512 140.336 300.512 139.597C300.512 138.859 300.658 138.127 300.943 137.445C301.228 136.763 301.645 136.145 302.171 135.626L328.836 109.287C329.946 108.195 331.443 107.586 333 107.59C334.558 107.595 336.051 108.214 337.155 109.313C338.26 110.421 338.88 111.922 338.88 113.487C338.88 115.052 338.26 116.553 337.155 117.661L317.34 137.481C316.723 138.1 316.376 138.939 316.376 139.813C316.376 140.687 316.723 141.526 317.34 142.145L337.047 161.857C337.852 162.661 338.4 163.685 338.622 164.8C338.845 165.916 338.731 167.072 338.296 168.123C337.86 169.173 337.123 170.071 336.177 170.702C335.231 171.333 334.119 171.669 332.982 171.667V171.667Z" fill="#FF9E00"/>
<path d="M375.643 171.667C374.506 171.669 373.394 171.333 372.449 170.702C371.503 170.071 370.765 169.173 370.33 168.123C369.895 167.072 369.781 165.916 370.003 164.8C370.226 163.685 370.774 162.661 371.578 161.857L391.285 142.145C391.902 141.526 392.249 140.687 392.249 139.813C392.249 138.939 391.902 138.1 391.285 137.481L371.471 117.661C370.923 117.113 370.488 116.462 370.192 115.746C369.895 115.03 369.743 114.262 369.743 113.487C369.743 112.712 369.895 111.944 370.192 111.228C370.488 110.512 370.923 109.861 371.471 109.313V109.313C372.575 108.214 374.068 107.595 375.625 107.59C377.183 107.585 378.679 108.195 379.79 109.287L406.455 135.626C406.98 136.145 407.398 136.763 407.683 137.445C407.967 138.127 408.114 138.858 408.114 139.597C408.114 140.336 407.967 141.068 407.683 141.75C407.398 142.431 406.98 143.05 406.455 143.569L379.682 170.014C378.606 171.077 377.155 171.671 375.643 171.667Z" fill="#FF9E00"/>
</g>
<defs>
<clipPath id="clip0_9_787">
<rect width="565" height="366" fill="white"/>
</clipPath>
</defs>
</svg>
